<svg width="597" height="312" viewBox="0 0 597 312" fill="none" xmlns="http://www.w3.org/2000/svg">
<g filter="url(#filter0_d)">
<g clip-path="url(#clip0)">
<path d="M30 39.4203C30 32.0085 36.0085 26 43.4203 26H553.58C560.992 26 567 32.0085 567 39.4203V264.58C567 271.992 560.992 278 553.58 278H43.4203C36.0085 278 30 271.992 30 264.58V39.4203Z" fill="white"/>
<path d="M262.138 228C261.923 228 261.741 227.936 261.591 227.807C261.463 227.657 261.398 227.475 261.398 227.261V209.261L256.063 213.375C255.913 213.504 255.752 213.568 255.581 213.568C255.388 213.568 255.206 213.461 255.034 213.246L254.198 212.186C254.091 212.036 254.038 211.886 254.038 211.736C254.038 211.479 254.145 211.275 254.359 211.125L261.366 205.725C261.602 205.575 261.881 205.5 262.202 205.5H263.841C264.056 205.5 264.227 205.575 264.356 205.725C264.506 205.854 264.581 206.025 264.581 206.239V227.261C264.581 227.475 264.506 227.657 264.356 227.807C264.227 227.936 264.056 228 263.841 228H262.138ZM275.392 228.321C273.763 228.321 272.36 228.032 271.181 227.454C270.003 226.875 269.092 226.114 268.449 225.171C267.828 224.229 267.495 223.221 267.453 222.15V222.086C267.453 221.914 267.517 221.775 267.645 221.668C267.774 221.561 267.924 221.507 268.095 221.507H269.831C270.281 221.507 270.57 221.743 270.699 222.214C270.999 223.35 271.578 224.196 272.435 224.754C273.292 225.311 274.278 225.589 275.392 225.589C276.828 225.589 278.017 225.161 278.96 224.304C279.924 223.425 280.406 222.214 280.406 220.671C280.406 219.279 279.924 218.154 278.96 217.296C278.017 216.439 276.828 216.011 275.392 216.011C274.62 216.011 273.999 216.118 273.528 216.332C273.056 216.525 272.585 216.804 272.113 217.168C271.856 217.361 271.631 217.511 271.438 217.618C271.267 217.704 271.074 217.746 270.86 217.746H269.188C268.995 217.746 268.824 217.682 268.674 217.554C268.524 217.404 268.46 217.232 268.481 217.039L269.51 206.304C269.531 206.046 269.606 205.854 269.735 205.725C269.885 205.575 270.078 205.5 270.313 205.5H281.531C281.745 205.5 281.917 205.575 282.045 205.725C282.195 205.854 282.27 206.025 282.27 206.239V207.493C282.27 207.707 282.195 207.889 282.045 208.039C281.917 208.168 281.745 208.232 281.531 208.232H272.274L271.663 214.564C272.82 213.836 274.213 213.471 275.842 213.471C277.256 213.471 278.553 213.761 279.731 214.339C280.931 214.918 281.874 215.754 282.56 216.846C283.267 217.939 283.62 219.225 283.62 220.704C283.62 222.289 283.267 223.661 282.56 224.818C281.874 225.954 280.91 226.821 279.667 227.421C278.424 228.021 276.999 228.321 275.392 228.321Z" fill="black"/>
<path d="M252.024 247.446C251.931 247.446 251.852 247.418 251.786 247.362C251.73 247.297 251.702 247.218 251.702 247.124V238.892H249.014C248.921 238.892 248.842 238.864 248.776 238.808C248.72 238.743 248.692 238.664 248.692 238.57V237.982C248.692 237.889 248.72 237.81 248.776 237.744C248.842 237.679 248.921 237.646 249.014 237.646H255.762C255.865 237.646 255.944 237.679 256 237.744C256.066 237.8 256.098 237.88 256.098 237.982V238.57C256.098 238.664 256.066 238.743 256 238.808C255.935 238.864 255.856 238.892 255.762 238.892H253.088V247.124C253.088 247.218 253.056 247.297 252.99 247.362C252.925 247.418 252.846 247.446 252.752 247.446H252.024ZM258.119 247.586C257.092 247.586 256.294 247.297 255.725 246.718C255.165 246.14 254.866 245.37 254.829 244.408L254.815 243.806L254.829 243.204C254.866 242.252 255.17 241.487 255.739 240.908C256.308 240.32 257.102 240.026 258.119 240.026C259.136 240.026 259.93 240.32 260.499 240.908C261.068 241.487 261.372 242.252 261.409 243.204C261.418 243.307 261.423 243.508 261.423 243.806C261.423 244.105 261.418 244.306 261.409 244.408C261.372 245.37 261.068 246.14 260.499 246.718C259.939 247.297 259.146 247.586 258.119 247.586ZM258.119 246.508C258.707 246.508 259.169 246.322 259.505 245.948C259.85 245.575 260.037 245.038 260.065 244.338C260.074 244.245 260.079 244.068 260.079 243.806C260.079 243.545 260.074 243.368 260.065 243.274C260.037 242.574 259.85 242.038 259.505 241.664C259.169 241.291 258.707 241.104 258.119 241.104C257.531 241.104 257.064 241.291 256.719 241.664C256.374 242.038 256.192 242.574 256.173 243.274L256.159 243.806L256.173 244.338C256.192 245.038 256.374 245.575 256.719 245.948C257.064 246.322 257.531 246.508 258.119 246.508ZM262.503 250.106C262.41 250.106 262.331 250.074 262.265 250.008C262.209 249.952 262.181 249.878 262.181 249.784V240.488C262.181 240.395 262.209 240.32 262.265 240.264C262.331 240.199 262.41 240.166 262.503 240.166H263.147C263.241 240.166 263.315 240.199 263.371 240.264C263.437 240.32 263.469 240.395 263.469 240.488V241.104C263.992 240.386 264.757 240.026 265.765 240.026C266.745 240.026 267.478 240.334 267.963 240.95C268.458 241.566 268.724 242.36 268.761 243.33C268.771 243.433 268.775 243.592 268.775 243.806C268.775 244.021 268.771 244.18 268.761 244.282C268.724 245.244 268.458 246.037 267.963 246.662C267.469 247.278 266.736 247.586 265.765 247.586C264.795 247.586 264.039 247.236 263.497 246.536V249.784C263.497 249.878 263.469 249.952 263.413 250.008C263.357 250.074 263.283 250.106 263.189 250.106H262.503ZM265.471 246.452C266.134 246.452 266.615 246.247 266.913 245.836C267.221 245.426 267.389 244.884 267.417 244.212C267.427 244.119 267.431 243.984 267.431 243.806C267.431 242.042 266.778 241.16 265.471 241.16C264.827 241.16 264.342 241.375 264.015 241.804C263.698 242.224 263.525 242.728 263.497 243.316L263.483 243.848L263.497 244.394C263.516 244.945 263.693 245.426 264.029 245.836C264.365 246.247 264.846 246.452 265.471 246.452ZM269.834 247.446C269.741 247.446 269.662 247.418 269.596 247.362C269.54 247.297 269.512 247.218 269.512 247.124V237.828C269.512 237.735 269.54 237.66 269.596 237.604C269.662 237.539 269.741 237.506 269.834 237.506H270.492C270.586 237.506 270.66 237.539 270.716 237.604C270.782 237.66 270.814 237.735 270.814 237.828V247.124C270.814 247.218 270.782 247.297 270.716 247.362C270.66 247.418 270.586 247.446 270.492 247.446H269.834ZM273.924 247.586C273.466 247.586 273.042 247.493 272.65 247.306C272.258 247.12 271.945 246.868 271.712 246.55C271.488 246.224 271.376 245.864 271.376 245.472C271.376 244.856 271.628 244.352 272.132 243.96C272.645 243.559 273.336 243.298 274.204 243.176L276.29 242.882V242.476C276.29 241.524 275.744 241.048 274.652 241.048C274.241 241.048 273.905 241.137 273.644 241.314C273.382 241.482 273.186 241.683 273.056 241.916C273.028 242 272.99 242.061 272.944 242.098C272.906 242.136 272.85 242.154 272.776 242.154H272.174C272.09 242.154 272.015 242.126 271.95 242.07C271.894 242.005 271.866 241.93 271.866 241.846C271.875 241.622 271.978 241.37 272.174 241.09C272.379 240.801 272.692 240.554 273.112 240.348C273.532 240.134 274.05 240.026 274.666 240.026C275.711 240.026 276.462 240.274 276.92 240.768C277.377 241.254 277.606 241.86 277.606 242.588V247.124C277.606 247.218 277.573 247.297 277.508 247.362C277.452 247.418 277.377 247.446 277.284 247.446H276.64C276.546 247.446 276.467 247.418 276.402 247.362C276.346 247.297 276.318 247.218 276.318 247.124V246.522C276.112 246.821 275.814 247.073 275.422 247.278C275.03 247.484 274.53 247.586 273.924 247.586ZM274.218 246.536C274.824 246.536 275.319 246.34 275.702 245.948C276.094 245.547 276.29 244.973 276.29 244.226V243.834L274.666 244.072C274.003 244.166 273.504 244.324 273.168 244.548C272.832 244.763 272.664 245.038 272.664 245.374C272.664 245.748 272.818 246.037 273.126 246.242C273.434 246.438 273.798 246.536 274.218 246.536ZM278.932 247.446C278.838 247.446 278.759 247.418 278.694 247.362C278.638 247.297 278.61 247.218 278.61 247.124V240.488C278.61 240.395 278.638 240.32 278.694 240.264C278.759 240.199 278.838 240.166 278.932 240.166H279.562C279.655 240.166 279.73 240.199 279.786 240.264C279.851 240.32 279.884 240.395 279.884 240.488V240.978C280.369 240.344 281.046 240.026 281.914 240.026C282.95 240.026 283.682 240.456 284.112 241.314C284.336 240.922 284.653 240.61 285.064 240.376C285.474 240.143 285.936 240.026 286.45 240.026C287.215 240.026 287.84 240.288 288.326 240.81C288.811 241.333 289.054 242.089 289.054 243.078V247.124C289.054 247.218 289.021 247.297 288.956 247.362C288.9 247.418 288.825 247.446 288.732 247.446H288.074C287.98 247.446 287.901 247.418 287.836 247.362C287.78 247.297 287.752 247.218 287.752 247.124V243.204C287.752 242.476 287.598 241.954 287.29 241.636C286.991 241.319 286.594 241.16 286.1 241.16C285.661 241.16 285.283 241.324 284.966 241.65C284.648 241.968 284.49 242.486 284.49 243.204V247.124C284.49 247.218 284.457 247.297 284.392 247.362C284.336 247.418 284.261 247.446 284.168 247.446H283.51C283.416 247.446 283.337 247.418 283.272 247.362C283.216 247.297 283.188 247.218 283.188 247.124V243.204C283.188 242.476 283.029 241.954 282.712 241.636C282.404 241.319 282.012 241.16 281.536 241.16C281.097 241.16 280.719 241.324 280.402 241.65C280.084 241.968 279.926 242.481 279.926 243.19V247.124C279.926 247.218 279.893 247.297 279.828 247.362C279.772 247.418 279.697 247.446 279.604 247.446H278.932Z" fill="black"/>
<g clip-path="url(#clip1)">
<rect x="328.726" y="187" width="88" height="86" rx="9" fill="#F9F9F9"/>
<path d="M365.974 229.139C365.759 229.139 365.577 229.075 365.427 228.946C365.299 228.796 365.234 228.614 365.234 228.4V210.4L359.899 214.514C359.749 214.642 359.588 214.707 359.416 214.707C359.224 214.707 359.041 214.6 358.87 214.385L358.034 213.325C357.927 213.175 357.874 213.025 357.874 212.875C357.874 212.617 357.981 212.414 358.195 212.264L365.202 206.864C365.438 206.714 365.716 206.639 366.038 206.639H367.677C367.891 206.639 368.063 206.714 368.191 206.864C368.341 206.992 368.416 207.164 368.416 207.378V228.4C368.416 228.614 368.341 228.796 368.191 228.946C368.063 229.075 367.891 229.139 367.677 229.139H365.974ZM372.156 229.139C371.942 229.139 371.76 229.075 371.61 228.946C371.481 228.796 371.417 228.614 371.417 228.4V227.371C371.417 226.878 371.685 226.407 372.221 225.957L379.035 219.142C380.685 217.771 381.821 216.657 382.442 215.8C383.063 214.921 383.374 214 383.374 213.035C383.374 211.792 383.021 210.817 382.313 210.11C381.628 209.403 380.621 209.05 379.292 209.05C378.049 209.05 377.053 209.425 376.303 210.175C375.553 210.903 375.092 211.878 374.921 213.1C374.878 213.357 374.771 213.55 374.599 213.678C374.449 213.785 374.278 213.839 374.085 213.839H372.413C372.221 213.839 372.06 213.785 371.931 213.678C371.803 213.55 371.738 213.4 371.738 213.228C371.781 212.071 372.092 210.967 372.671 209.917C373.249 208.846 374.096 207.978 375.21 207.314C376.346 206.628 377.706 206.285 379.292 206.285C381.713 206.285 383.535 206.917 384.756 208.182C385.999 209.425 386.621 211.01 386.621 212.939C386.621 214.289 386.278 215.51 385.592 216.603C384.928 217.675 383.888 218.832 382.474 220.075L376.303 226.342H386.331C386.567 226.342 386.749 226.417 386.878 226.567C387.028 226.696 387.103 226.867 387.103 227.082V228.4C387.103 228.614 387.028 228.796 386.878 228.946C386.728 229.075 386.546 229.139 386.331 229.139H372.156Z" fill="black"/>
<path d="M349.258 248.585C349.164 248.585 349.085 248.557 349.02 248.501C348.964 248.436 348.936 248.357 348.936 248.263V239.121C348.936 239.019 348.964 238.939 349.02 238.883C349.085 238.818 349.164 238.785 349.258 238.785H353.094C354.092 238.785 354.844 239.023 355.348 239.499C355.852 239.975 356.104 240.601 356.104 241.375C356.104 241.898 355.982 242.332 355.74 242.677C355.506 243.023 355.226 243.275 354.9 243.433C355.292 243.629 355.623 243.933 355.894 244.343C356.164 244.754 356.3 245.225 356.3 245.757C356.3 246.28 356.178 246.756 355.936 247.185C355.702 247.615 355.352 247.955 354.886 248.207C354.419 248.459 353.859 248.585 353.206 248.585H349.258ZM352.884 242.929C353.472 242.929 353.92 242.794 354.228 242.523C354.545 242.253 354.704 241.875 354.704 241.389C354.704 240.913 354.55 240.549 354.242 240.297C353.934 240.045 353.481 239.919 352.884 239.919H350.308V242.929H352.884ZM353.024 247.451C353.612 247.451 354.069 247.293 354.396 246.975C354.732 246.658 354.9 246.252 354.9 245.757C354.9 245.244 354.732 244.833 354.396 244.525C354.069 244.208 353.612 244.049 353.024 244.049H350.308V247.451H353.024ZM359.812 248.725C358.926 248.725 358.24 248.441 357.754 247.871C357.269 247.293 357.026 246.527 357.026 245.575V241.627C357.026 241.534 357.054 241.459 357.11 241.403C357.176 241.338 357.255 241.305 357.348 241.305H358.048C358.142 241.305 358.216 241.338 358.272 241.403C358.338 241.459 358.37 241.534 358.37 241.627V245.505C358.37 246.896 358.977 247.591 360.19 247.591C360.778 247.591 361.245 247.409 361.59 247.045C361.936 246.672 362.108 246.159 362.108 245.505V241.627C362.108 241.534 362.136 241.459 362.192 241.403C362.258 241.338 362.337 241.305 362.43 241.305H363.13C363.224 241.305 363.298 241.338 363.354 241.403C363.41 241.459 363.438 241.534 363.438 241.627V248.263C363.438 248.357 363.41 248.436 363.354 248.501C363.298 248.557 363.224 248.585 363.13 248.585H362.472C362.379 248.585 362.3 248.557 362.234 248.501C362.178 248.436 362.15 248.357 362.15 248.263V247.647C361.889 248.002 361.572 248.273 361.198 248.459C360.825 248.637 360.363 248.725 359.812 248.725ZM367.436 248.585C367.343 248.585 367.264 248.557 367.198 248.501C367.142 248.436 367.114 248.357 367.114 248.263V239.121C367.114 239.019 367.142 238.939 367.198 238.883C367.264 238.818 367.343 238.785 367.436 238.785H368.15C368.253 238.785 368.332 238.818 368.388 238.883C368.454 238.939 368.486 239.019 368.486 239.121V242.985H373.302V239.121C373.302 239.019 373.33 238.939 373.386 238.883C373.452 238.818 373.531 238.785 373.624 238.785H374.338C374.441 238.785 374.52 238.818 374.576 238.883C374.642 238.939 374.674 239.019 374.674 239.121V248.263C374.674 248.357 374.642 248.436 374.576 248.501C374.511 248.557 374.432 248.585 374.338 248.585H373.624C373.531 248.585 373.452 248.557 373.386 248.501C373.33 248.436 373.302 248.357 373.302 248.263V244.245H368.486V248.263C368.486 248.357 368.454 248.436 368.388 248.501C368.323 248.557 368.244 248.585 368.15 248.585H367.436ZM377.948 248.725C377.49 248.725 377.066 248.632 376.674 248.445C376.282 248.259 375.969 248.007 375.736 247.689C375.512 247.363 375.4 247.003 375.4 246.611C375.4 245.995 375.652 245.491 376.156 245.099C376.669 244.698 377.36 244.437 378.228 244.315L380.314 244.021V243.615C380.314 242.663 379.768 242.187 378.676 242.187C378.265 242.187 377.929 242.276 377.668 242.453C377.406 242.621 377.21 242.822 377.08 243.055C377.052 243.139 377.014 243.2 376.968 243.237C376.93 243.275 376.874 243.293 376.8 243.293H376.198C376.114 243.293 376.039 243.265 375.974 243.209C375.918 243.144 375.89 243.069 375.89 242.985C375.899 242.761 376.002 242.509 376.198 242.229C376.403 241.94 376.716 241.693 377.136 241.487C377.556 241.273 378.074 241.165 378.69 241.165C379.735 241.165 380.486 241.413 380.944 241.907C381.401 242.393 381.63 242.999 381.63 243.727V248.263C381.63 248.357 381.597 248.436 381.532 248.501C381.476 248.557 381.401 248.585 381.308 248.585H380.664C380.57 248.585 380.491 248.557 380.426 248.501C380.37 248.436 380.342 248.357 380.342 248.263V247.661C380.136 247.96 379.838 248.212 379.446 248.417C379.054 248.623 378.554 248.725 377.948 248.725ZM378.242 247.675C378.848 247.675 379.343 247.479 379.726 247.087C380.118 246.686 380.314 246.112 380.314 245.365V244.973L378.69 245.211C378.027 245.305 377.528 245.463 377.192 245.687C376.856 245.902 376.688 246.177 376.688 246.513C376.688 246.887 376.842 247.176 377.15 247.381C377.458 247.577 377.822 247.675 378.242 247.675ZM383.615 248.585C383.522 248.585 383.442 248.557 383.377 248.501C383.321 248.436 383.293 248.357 383.293 248.263V242.425H382.103C382.01 242.425 381.93 242.397 381.865 242.341C381.809 242.276 381.781 242.197 381.781 242.103V241.627C381.781 241.534 381.809 241.459 381.865 241.403C381.93 241.338 382.01 241.305 382.103 241.305H383.293V240.605C383.293 239.019 384.096 238.225 385.701 238.225H386.541C386.634 238.225 386.709 238.258 386.765 238.323C386.83 238.379 386.863 238.454 386.863 238.547V239.023C386.863 239.117 386.83 239.196 386.765 239.261C386.709 239.317 386.634 239.345 386.541 239.345H385.729C385.309 239.345 385.015 239.457 384.847 239.681C384.679 239.896 384.595 240.227 384.595 240.675V241.305H386.401C386.494 241.305 386.569 241.338 386.625 241.403C386.69 241.459 386.723 241.534 386.723 241.627V242.103C386.723 242.197 386.69 242.276 386.625 242.341C386.569 242.397 386.494 242.425 386.401 242.425H384.595V248.263C384.595 248.357 384.562 248.436 384.497 248.501C384.441 248.557 384.366 248.585 384.273 248.585H383.615ZM389.785 248.585C388.31 248.585 387.573 247.764 387.573 246.121V242.425H386.481C386.388 242.425 386.308 242.397 386.243 242.341C386.187 242.276 386.159 242.197 386.159 242.103V241.627C386.159 241.534 386.187 241.459 386.243 241.403C386.308 241.338 386.388 241.305 386.481 241.305H387.573V238.967C387.573 238.874 387.601 238.799 387.657 238.743C387.722 238.678 387.802 238.645 387.895 238.645H388.553C388.646 238.645 388.721 238.678 388.777 238.743C388.842 238.799 388.875 238.874 388.875 238.967V241.305H390.611C390.704 241.305 390.779 241.338 390.835 241.403C390.9 241.459 390.933 241.534 390.933 241.627V242.103C390.933 242.197 390.9 242.276 390.835 242.341C390.779 242.397 390.704 242.425 390.611 242.425H388.875V246.023C388.875 246.49 388.954 246.845 389.113 247.087C389.272 247.321 389.533 247.437 389.897 247.437H390.751C390.844 247.437 390.919 247.47 390.975 247.535C391.04 247.591 391.073 247.666 391.073 247.759V248.263C391.073 248.357 391.04 248.436 390.975 248.501C390.919 248.557 390.844 248.585 390.751 248.585H389.785ZM393.433 248.725C392.976 248.725 392.551 248.632 392.159 248.445C391.767 248.259 391.454 248.007 391.221 247.689C390.997 247.363 390.885 247.003 390.885 246.611C390.885 245.995 391.137 245.491 391.641 245.099C392.154 244.698 392.845 244.437 393.713 244.315L395.799 244.021V243.615C395.799 242.663 395.253 242.187 394.161 242.187C393.75 242.187 393.414 242.276 393.153 242.453C392.892 242.621 392.696 242.822 392.565 243.055C392.537 243.139 392.5 243.2 392.453 243.237C392.416 243.275 392.36 243.293 392.285 243.293H391.683C391.599 243.293 391.524 243.265 391.459 243.209C391.403 243.144 391.375 243.069 391.375 242.985C391.384 242.761 391.487 242.509 391.683 242.229C391.888 241.94 392.201 241.693 392.621 241.487C393.041 241.273 393.559 241.165 394.175 241.165C395.22 241.165 395.972 241.413 396.429 241.907C396.886 242.393 397.115 242.999 397.115 243.727V248.263C397.115 248.357 397.082 248.436 397.017 248.501C396.961 248.557 396.886 248.585 396.793 248.585H396.149C396.056 248.585 395.976 248.557 395.911 248.501C395.855 248.436 395.827 248.357 395.827 248.263V247.661C395.622 247.96 395.323 248.212 394.931 248.417C394.539 248.623 394.04 248.725 393.433 248.725ZM393.727 247.675C394.334 247.675 394.828 247.479 395.211 247.087C395.603 246.686 395.799 246.112 395.799 245.365V244.973L394.175 245.211C393.512 245.305 393.013 245.463 392.677 245.687C392.341 245.902 392.173 246.177 392.173 246.513C392.173 246.887 392.327 247.176 392.635 247.381C392.943 247.577 393.307 247.675 393.727 247.675Z" fill="black"/>
</g>
<g clip-path="url(#clip2)">
<path d="M475.484 227.321C473.77 227.321 472.281 226.979 471.016 226.293C469.752 225.586 468.788 224.643 468.124 223.464C467.459 222.286 467.127 221 467.127 219.607C467.127 218.471 467.352 217.4 467.802 216.393C468.274 215.364 468.799 214.454 469.377 213.661L475.484 205.143C475.506 205.121 475.57 205.046 475.677 204.918C475.763 204.789 475.881 204.693 476.031 204.629C476.181 204.543 476.352 204.5 476.545 204.5H478.249C478.441 204.5 478.591 204.575 478.699 204.725C478.827 204.854 478.891 205.014 478.891 205.207C478.891 205.357 478.849 205.496 478.763 205.625L474.07 212.182C474.541 212.032 475.152 211.957 475.902 211.957C477.445 211.979 478.806 212.332 479.984 213.018C481.184 213.704 482.106 214.625 482.749 215.782C483.413 216.939 483.745 218.204 483.745 219.575C483.745 220.946 483.413 222.232 482.749 223.432C482.106 224.611 481.152 225.554 479.888 226.261C478.645 226.968 477.177 227.321 475.484 227.321ZM475.452 224.589C476.374 224.589 477.22 224.396 477.991 224.011C478.784 223.625 479.406 223.057 479.856 222.307C480.327 221.536 480.563 220.625 480.563 219.575C480.563 218.546 480.327 217.657 479.856 216.907C479.406 216.157 478.784 215.589 477.991 215.204C477.22 214.818 476.374 214.625 475.452 214.625C474.552 214.625 473.706 214.818 472.913 215.204C472.141 215.589 471.52 216.157 471.049 216.907C470.577 217.657 470.341 218.546 470.341 219.575C470.341 220.625 470.577 221.536 471.049 222.307C471.52 223.057 472.141 223.625 472.913 224.011C473.684 224.396 474.531 224.589 475.452 224.589Z" fill="black"/>
<path d="M461.347 246.185C461.254 246.185 461.174 246.157 461.109 246.101C461.053 246.035 461.025 245.956 461.025 245.863V236.707C461.025 236.613 461.053 236.539 461.109 236.483C461.174 236.417 461.254 236.385 461.347 236.385H462.089C462.182 236.385 462.257 236.417 462.313 236.483C462.378 236.539 462.411 236.613 462.411 236.707V244.967H467.059C467.162 244.967 467.241 244.999 467.297 245.065C467.362 245.121 467.395 245.2 467.395 245.303V245.863C467.395 245.956 467.362 246.035 467.297 246.101C467.232 246.157 467.152 246.185 467.059 246.185H461.347ZM469.753 246.325C469.295 246.325 468.871 246.231 468.479 246.045C468.087 245.858 467.774 245.606 467.541 245.289C467.317 244.962 467.205 244.603 467.205 244.211C467.205 243.595 467.457 243.091 467.961 242.699C468.474 242.297 469.165 242.036 470.033 241.915L472.119 241.621V241.215C472.119 240.263 471.573 239.787 470.481 239.787C470.07 239.787 469.734 239.875 469.473 240.053C469.211 240.221 469.015 240.421 468.885 240.655C468.857 240.739 468.819 240.799 468.773 240.837C468.735 240.874 468.679 240.893 468.605 240.893H468.003C467.919 240.893 467.844 240.865 467.779 240.809C467.723 240.743 467.695 240.669 467.695 240.585C467.704 240.361 467.807 240.109 468.003 239.829C468.208 239.539 468.521 239.292 468.941 239.087C469.361 238.872 469.879 238.765 470.495 238.765C471.54 238.765 472.291 239.012 472.749 239.507C473.206 239.992 473.435 240.599 473.435 241.327V245.863C473.435 245.956 473.402 246.035 473.337 246.101C473.281 246.157 473.206 246.185 473.113 246.185H472.469C472.375 246.185 472.296 246.157 472.231 246.101C472.175 246.035 472.147 245.956 472.147 245.863V245.261C471.941 245.559 471.643 245.811 471.251 246.017C470.859 246.222 470.359 246.325 469.753 246.325ZM470.047 245.275C470.653 245.275 471.148 245.079 471.531 244.687C471.923 244.285 472.119 243.711 472.119 242.965V242.573L470.495 242.811C469.832 242.904 469.333 243.063 468.997 243.287C468.661 243.501 468.493 243.777 468.493 244.113C468.493 244.486 468.647 244.775 468.955 244.981C469.263 245.177 469.627 245.275 470.047 245.275ZM478.037 246.325C477.029 246.325 476.263 245.975 475.741 245.275V245.863C475.741 245.956 475.708 246.035 475.643 246.101C475.587 246.157 475.512 246.185 475.419 246.185H474.775C474.681 246.185 474.602 246.157 474.537 246.101C474.481 246.035 474.453 245.956 474.453 245.863V236.567C474.453 236.473 474.481 236.399 474.537 236.343C474.602 236.277 474.681 236.245 474.775 236.245H475.461C475.554 236.245 475.629 236.277 475.685 236.343C475.741 236.399 475.769 236.473 475.769 236.567V239.787C476.319 239.105 477.075 238.765 478.037 238.765C479.007 238.765 479.74 239.087 480.235 239.731C480.729 240.365 480.995 241.163 481.033 242.125C481.042 242.227 481.047 242.367 481.047 242.545C481.047 242.722 481.042 242.862 481.033 242.965C480.995 243.935 480.729 244.738 480.235 245.373C479.74 246.007 479.007 246.325 478.037 246.325ZM477.743 245.191C478.405 245.191 478.886 244.985 479.185 244.575C479.493 244.164 479.661 243.623 479.689 242.951C479.698 242.857 479.703 242.722 479.703 242.545C479.703 240.781 479.049 239.899 477.743 239.899C477.117 239.899 476.637 240.104 476.301 240.515C475.965 240.925 475.787 241.406 475.769 241.957L475.755 242.503L475.769 243.035C475.797 243.623 475.969 244.131 476.287 244.561C476.613 244.981 477.099 245.191 477.743 245.191ZM484.668 246.325C483.707 246.325 482.937 246.031 482.358 245.443C481.789 244.845 481.476 244.033 481.42 243.007L481.406 242.531L481.42 242.069C481.485 241.061 481.803 240.258 482.372 239.661C482.951 239.063 483.711 238.765 484.654 238.765C485.69 238.765 486.493 239.096 487.062 239.759C487.631 240.412 487.916 241.299 487.916 242.419V242.657C487.916 242.75 487.883 242.829 487.818 242.895C487.762 242.951 487.687 242.979 487.594 242.979H482.75V243.105C482.778 243.711 482.96 244.229 483.296 244.659C483.641 245.079 484.094 245.289 484.654 245.289C485.083 245.289 485.433 245.205 485.704 245.037C485.984 244.859 486.189 244.677 486.32 244.491C486.404 244.379 486.465 244.313 486.502 244.295C486.549 244.267 486.628 244.253 486.74 244.253H487.426C487.51 244.253 487.58 244.276 487.636 244.323C487.692 244.369 487.72 244.435 487.72 244.519C487.72 244.724 487.589 244.971 487.328 245.261C487.076 245.55 486.717 245.802 486.25 246.017C485.793 246.222 485.265 246.325 484.668 246.325ZM486.586 242.013V241.971C486.586 241.327 486.409 240.804 486.054 240.403C485.709 239.992 485.242 239.787 484.654 239.787C484.066 239.787 483.599 239.992 483.254 240.403C482.918 240.804 482.75 241.327 482.75 241.971V242.013H486.586ZM488.917 246.185C488.824 246.185 488.744 246.157 488.679 246.101C488.623 246.035 488.595 245.956 488.595 245.863V236.567C488.595 236.473 488.623 236.399 488.679 236.343C488.744 236.277 488.824 236.245 488.917 236.245H489.575C489.668 236.245 489.743 236.277 489.799 236.343C489.864 236.399 489.897 236.473 489.897 236.567V245.863C489.897 245.956 489.864 246.035 489.799 246.101C489.743 246.157 489.668 246.185 489.575 246.185H488.917Z" fill="black"/>
</g>
<g filter="url(#filter1_d)">
<path d="M241 171L277.984 143.724C287.72 136.544 301.51 139.189 307.898 149.462V149.462C313.74 158.859 325.932 162.012 335.597 156.626L375.154 134.584C385.94 128.574 399.56 132.995 404.76 144.194V144.194C410.178 155.862 424.642 160.074 435.478 153.139L531 92" stroke="black" stroke-width="1.67754"/>
</g>
<rect x="30" y="26" width="159" height="255" fill="#F9F9F9"/>
<path d="M114 230L112.59 231.41L117.17 236H101V238H117.17L112.58 242.59L114 244L121 237L114 230Z" fill="#323232"/>
<path d="M78.7382 198C78.6309 198 78.5369 197.96 78.4564 197.879C78.3759 197.799 78.3356 197.705 78.3356 197.597C78.3356 197.49 78.3423 197.416 78.3558 197.376L83.3481 184.352C83.4555 184.056 83.6702 183.909 83.9923 183.909H85.3612C85.6832 183.909 85.898 184.056 86.0053 184.352L90.9776 197.376L91.0178 197.597C91.0178 197.705 90.9776 197.799 90.897 197.879C90.8165 197.96 90.7226 198 90.6152 198H89.5886C89.4409 198 89.3269 197.966 89.2463 197.899C89.1658 197.819 89.1121 197.738 89.0853 197.658L87.9781 194.799H81.3753L80.2682 197.658C80.2413 197.738 80.1809 197.819 80.087 197.899C80.0065 197.966 79.8991 198 79.7649 198H78.7382ZM87.3943 193.068L84.6767 185.922L81.9591 193.068H87.3943ZM92.1482 185.58C92.014 185.58 91.8999 185.539 91.8059 185.459C91.7254 185.365 91.6852 185.251 91.6852 185.117V184.029C91.6852 183.895 91.7254 183.781 91.8059 183.687C91.8999 183.593 92.014 183.546 92.1482 183.546H93.4365C93.5707 183.546 93.6848 183.593 93.7787 183.687C93.8727 183.781 93.9196 183.895 93.9196 184.029V185.117C93.9196 185.251 93.8727 185.365 93.7787 185.459C93.6848 185.539 93.5707 185.58 93.4365 185.58H92.1482ZM89.9338 201.825C89.7996 201.825 89.6923 201.778 89.6117 201.684C89.5178 201.603 89.4708 201.496 89.4708 201.362V200.677C89.4708 200.543 89.5178 200.429 89.6117 200.335C89.6923 200.255 89.7996 200.214 89.9338 200.214H90.2156C90.8732 200.214 91.3094 200.047 91.5241 199.711C91.7388 199.376 91.8462 198.879 91.8462 198.221V187.995C91.8462 187.861 91.8865 187.754 91.967 187.673C92.0609 187.579 92.175 187.532 92.3092 187.532H93.2956C93.4298 187.532 93.5372 187.579 93.6177 187.673C93.7116 187.754 93.7586 187.861 93.7586 187.995V198.242C93.7586 200.63 92.6112 201.825 90.3163 201.825H89.9338ZM98.4115 198.201C97.7539 198.201 97.1432 198.067 96.5796 197.799C96.0159 197.53 95.5664 197.168 95.2309 196.712C94.9088 196.242 94.7477 195.725 94.7477 195.162C94.7477 194.276 95.1101 193.551 95.8348 192.988C96.5729 192.41 97.566 192.035 98.8141 191.86L101.814 191.437V190.854C101.814 189.485 101.028 188.8 99.4582 188.8C98.8678 188.8 98.3846 188.928 98.0089 189.183C97.6331 189.424 97.3513 189.713 97.1634 190.048C97.1231 190.169 97.0694 190.256 97.0023 190.31C96.9486 190.364 96.8681 190.391 96.7608 190.391H95.8952C95.7744 190.391 95.667 190.35 95.5731 190.27C95.4925 190.176 95.4523 190.069 95.4523 189.948C95.4657 189.626 95.6133 189.263 95.8952 188.861C96.1904 188.445 96.64 188.089 97.2439 187.794C97.8478 187.485 98.5926 187.331 99.4784 187.331C100.981 187.331 102.062 187.687 102.719 188.398C103.377 189.096 103.706 189.968 103.706 191.015V197.537C103.706 197.671 103.659 197.785 103.565 197.879C103.484 197.96 103.377 198 103.243 198H102.317C102.183 198 102.068 197.96 101.975 197.879C101.894 197.785 101.854 197.671 101.854 197.537V196.671C101.559 197.101 101.129 197.463 100.565 197.758C100.002 198.054 99.2838 198.201 98.4115 198.201ZM98.8342 196.692C99.7065 196.692 100.418 196.41 100.968 195.846C101.532 195.269 101.814 194.444 101.814 193.37V192.806L99.4784 193.149C98.5255 193.283 97.8075 193.511 97.3244 193.833C96.8413 194.142 96.5997 194.538 96.5997 195.021C96.5997 195.558 96.8212 195.974 97.264 196.269C97.7069 196.551 98.2303 196.692 98.8342 196.692ZM105.799 198C105.665 198 105.551 197.96 105.457 197.879C105.376 197.785 105.336 197.671 105.336 197.537V187.995C105.336 187.861 105.376 187.754 105.457 187.673C105.551 187.579 105.665 187.532 105.799 187.532H106.745C106.879 187.532 106.987 187.579 107.067 187.673C107.161 187.754 107.208 187.861 107.208 187.995V188.881C107.597 188.384 108.054 188.002 108.577 187.733C109.114 187.465 109.778 187.331 110.57 187.331C111.858 187.331 112.858 187.747 113.569 188.579C114.294 189.398 114.656 190.491 114.656 191.86V197.537C114.656 197.671 114.609 197.785 114.516 197.879C114.435 197.96 114.328 198 114.193 198H113.187C113.053 198 112.939 197.96 112.845 197.879C112.764 197.785 112.724 197.671 112.724 197.537V191.961C112.724 191.008 112.489 190.27 112.019 189.747C111.563 189.223 110.899 188.961 110.026 188.961C109.181 188.961 108.51 189.23 108.013 189.767C107.517 190.29 107.269 191.021 107.269 191.961V197.537C107.269 197.671 107.222 197.785 107.128 197.879C107.047 197.96 106.94 198 106.806 198H105.799ZM119.904 198.201C118.965 198.201 118.173 198.054 117.529 197.758C116.898 197.45 116.421 197.101 116.099 196.712C115.791 196.322 115.636 196 115.636 195.745C115.636 195.611 115.683 195.511 115.777 195.443C115.885 195.363 115.992 195.323 116.099 195.323H117.005C117.139 195.323 117.26 195.39 117.368 195.524C117.69 195.9 118.039 196.195 118.414 196.41C118.79 196.624 119.293 196.732 119.924 196.732C120.622 196.732 121.186 196.598 121.615 196.329C122.058 196.047 122.279 195.665 122.279 195.182C122.279 194.86 122.185 194.598 121.998 194.397C121.823 194.182 121.514 194.001 121.072 193.853C120.642 193.692 119.998 193.518 119.139 193.33C117.971 193.075 117.139 192.706 116.643 192.223C116.16 191.739 115.918 191.115 115.918 190.35C115.918 189.84 116.066 189.357 116.361 188.901C116.67 188.431 117.113 188.056 117.69 187.774C118.28 187.478 118.985 187.331 119.803 187.331C120.662 187.331 121.394 187.472 121.998 187.754C122.601 188.035 123.051 188.371 123.346 188.76C123.655 189.136 123.809 189.451 123.809 189.706C123.809 189.827 123.762 189.928 123.668 190.008C123.588 190.089 123.487 190.129 123.366 190.129H122.521C122.36 190.129 122.226 190.062 122.118 189.928C121.904 189.673 121.716 189.478 121.555 189.344C121.407 189.196 121.186 189.069 120.89 188.961C120.609 188.854 120.246 188.8 119.803 188.8C119.159 188.8 118.663 188.941 118.314 189.223C117.965 189.492 117.79 189.847 117.79 190.29C117.79 190.572 117.864 190.813 118.012 191.015C118.159 191.203 118.441 191.377 118.857 191.538C119.287 191.699 119.904 191.867 120.709 192.041C121.984 192.31 122.883 192.699 123.407 193.209C123.943 193.706 124.212 194.343 124.212 195.121C124.212 195.698 124.044 196.222 123.709 196.692C123.373 197.161 122.877 197.53 122.219 197.799C121.575 198.067 120.803 198.201 119.904 198.201ZM125.762 198C125.628 198 125.514 197.96 125.42 197.879C125.339 197.785 125.299 197.671 125.299 197.537V184.17C125.299 184.036 125.339 183.929 125.42 183.848C125.514 183.754 125.628 183.707 125.762 183.707H126.708C126.842 183.707 126.95 183.754 127.03 183.848C127.124 183.929 127.171 184.036 127.171 184.17V197.537C127.171 197.671 127.124 197.785 127.03 197.879C126.95 197.96 126.842 198 126.708 198H125.762ZM131.829 198.201C131.171 198.201 130.561 198.067 129.997 197.799C129.433 197.53 128.984 197.168 128.648 196.712C128.326 196.242 128.165 195.725 128.165 195.162C128.165 194.276 128.528 193.551 129.252 192.988C129.99 192.41 130.984 192.035 132.232 191.86L135.231 191.437V190.854C135.231 189.485 134.446 188.8 132.876 188.8C132.285 188.8 131.802 188.928 131.426 189.183C131.051 189.424 130.769 189.713 130.581 190.048C130.541 190.169 130.487 190.256 130.42 190.31C130.366 190.364 130.286 190.391 130.178 190.391H129.313C129.192 190.391 129.085 190.35 128.991 190.27C128.91 190.176 128.87 190.069 128.87 189.948C128.883 189.626 129.031 189.263 129.313 188.861C129.608 188.445 130.058 188.089 130.661 187.794C131.265 187.485 132.01 187.331 132.896 187.331C134.399 187.331 135.479 187.687 136.137 188.398C136.795 189.096 137.123 189.968 137.123 191.015V197.537C137.123 197.671 137.076 197.785 136.982 197.879C136.902 197.96 136.795 198 136.66 198H135.734C135.6 198 135.486 197.96 135.392 197.879C135.312 197.785 135.271 197.671 135.271 197.537V196.671C134.976 197.101 134.547 197.463 133.983 197.758C133.419 198.054 132.701 198.201 131.829 198.201ZM132.252 196.692C133.124 196.692 133.835 196.41 134.386 195.846C134.949 195.269 135.231 194.444 135.231 193.37V192.806L132.896 193.149C131.943 193.283 131.225 193.511 130.742 193.833C130.259 194.142 130.017 194.538 130.017 195.021C130.017 195.558 130.239 195.974 130.682 196.269C131.124 196.551 131.648 196.692 132.252 196.692ZM139.217 198C139.082 198 138.968 197.96 138.874 197.879C138.794 197.785 138.754 197.671 138.754 197.537V188.015C138.754 187.881 138.794 187.767 138.874 187.673C138.968 187.579 139.082 187.532 139.217 187.532H140.143C140.277 187.532 140.391 187.579 140.485 187.673C140.579 187.767 140.626 187.881 140.626 188.015V188.901C141.176 187.988 142.115 187.532 143.444 187.532H144.229C144.363 187.532 144.471 187.579 144.551 187.673C144.645 187.754 144.692 187.861 144.692 187.995V188.821C144.692 188.955 144.645 189.062 144.551 189.143C144.471 189.223 144.363 189.263 144.229 189.263H143.021C142.297 189.263 141.726 189.478 141.31 189.908C140.894 190.324 140.686 190.894 140.686 191.619V197.537C140.686 197.671 140.639 197.785 140.545 197.879C140.451 197.96 140.337 198 140.203 198H139.217Z" fill="black"/>
<mask id="mask0" mask-type="alpha" maskUnits="userSpaceOnUse" x="63" y="64" width="96" height="96">
<rect x="63" y="64" width="96" height="96" fill="white"/>
</mask>
<g mask="url(#mask0)">
<rect opacity="0.02" x="63" y="64" width="96" height="96" fill="#3C64B1"/>
<g opacity="0.06">
<path d="M63 64L159 160" stroke="#3C64B1"/>
<path d="M66.75 60.25L162.75 156.25" stroke="#3C64B1"/>
<path d="M70.5 56.5L166.5 152.5" stroke="#3C64B1"/>
<path d="M74.25 52.75L170.25 148.75" stroke="#3C64B1"/>
<path d="M78 49L174 145" stroke="#3C64B1"/>
<path d="M81.75 45.25L177.75 141.25" stroke="#3C64B1"/>
<path d="M85.5 41.5L181.5 137.5" stroke="#3C64B1"/>
<path d="M89.25 37.75L185.25 133.75" stroke="#3C64B1"/>
<path d="M93 34L189 130" stroke="#3C64B1"/>
<path d="M96.75 30.25L192.75 126.25" stroke="#3C64B1"/>
<path d="M100.5 26.5L196.5 122.5" stroke="#3C64B1"/>
<path d="M104.25 22.75L200.25 118.75" stroke="#3C64B1"/>
<path d="M108 19L204 115" stroke="#3C64B1"/>
<path d="M59.25 67.75L155.25 163.75" stroke="#3C64B1"/>
<path d="M55.5 71.5L151.5 167.5" stroke="#3C64B1"/>
<path d="M51.75 75.25L147.75 171.25" stroke="#3C64B1"/>
<path d="M48 79L144 175" stroke="#3C64B1"/>
<path d="M44.25 82.75L140.25 178.75" stroke="#3C64B1"/>
<path d="M40.5 86.5L136.5 182.5" stroke="#3C64B1"/>
<path d="M36.75 90.25L132.75 186.25" stroke="#3C64B1"/>
<path d="M33 94L129 190" stroke="#3C64B1"/>
<path d="M29.25 97.75L125.25 193.75" stroke="#3C64B1"/>
<path d="M25.5 101.5L121.5 197.5" stroke="#3C64B1"/>
<path d="M21.75 105.25L117.75 201.25" stroke="#3C64B1"/>
<path d="M18 109L114 205" stroke="#3C64B1"/>
<path d="M14.25 112.75L110.25 208.75" stroke="#3C64B1"/>
</g>
<g opacity="0.06">
<path d="M64.875 62.125L160.875 158.125" stroke="#3C64B1"/>
<path d="M68.625 58.375L164.625 154.375" stroke="#3C64B1"/>
<path d="M72.375 54.625L168.375 150.625" stroke="#3C64B1"/>
<path d="M76.125 50.875L172.125 146.875" stroke="#3C64B1"/>
<path d="M79.875 47.125L175.875 143.125" stroke="#3C64B1"/>
<path d="M83.625 43.375L179.625 139.375" stroke="#3C64B1"/>
<path d="M87.375 39.625L183.375 135.625" stroke="#3C64B1"/>
<path d="M91.125 35.875L187.125 131.875" stroke="#3C64B1"/>
<path d="M94.875 32.125L190.875 128.125" stroke="#3C64B1"/>
<path d="M98.625 28.375L194.625 124.375" stroke="#3C64B1"/>
<path d="M102.375 24.625L198.375 120.625" stroke="#3C64B1"/>
<path d="M106.125 20.875L202.125 116.875" stroke="#3C64B1"/>
<path d="M109.875 17.125L205.875 113.125" stroke="#3C64B1"/>
<path d="M61.125 65.875L157.125 161.875" stroke="#3C64B1"/>
<path d="M57.375 69.625L153.375 165.625" stroke="#3C64B1"/>
<path d="M53.625 73.375L149.625 169.375" stroke="#3C64B1"/>
<path d="M49.875 77.125L145.875 173.125" stroke="#3C64B1"/>
<path d="M46.125 80.875L142.125 176.875" stroke="#3C64B1"/>
<path d="M42.375 84.625L138.375 180.625" stroke="#3C64B1"/>
<path d="M38.625 88.375L134.625 184.375" stroke="#3C64B1"/>
<path d="M34.875 92.125L130.875 188.125" stroke="#3C64B1"/>
<path d="M31.125 95.875L127.125 191.875" stroke="#3C64B1"/>
<path d="M27.375 99.625L123.375 195.625" stroke="#3C64B1"/>
<path d="M23.625 103.375L119.625 199.375" stroke="#3C64B1"/>
<path d="M19.875 107.125L115.875 203.125" stroke="#3C64B1"/>
<path d="M16.125 110.875L112.125 206.875" stroke="#3C64B1"/>
</g>
</g>
<g opacity="0.5">
<path d="M122.667 97H99.3333C97.4924 97 96 98.4924 96 100.333V123.667C96 125.508 97.4924 127 99.3333 127H122.667C124.508 127 126 125.508 126 123.667V100.333C126 98.4924 124.508 97 122.667 97Z" stroke="#3C64B1" stroke-width="1.5" stroke-linecap="round" stroke-linejoin="round"/>
<path d="M105.167 108.667C106.547 108.667 107.667 107.547 107.667 106.167C107.667 104.786 106.547 103.667 105.167 103.667C103.786 103.667 102.667 104.786 102.667 106.167C102.667 107.547 103.786 108.667 105.167 108.667Z" stroke="#3C64B1" stroke-width="1.5" stroke-linecap="round" stroke-linejoin="round"/>
<path d="M126 117L117.667 108.667L99.3333 127" stroke="#3C64B1" stroke-width="1.5" stroke-linecap="round" stroke-linejoin="round"/>
</g>
<path d="M550.14 52.94C550.18 52.64 550.2 52.33 550.2 52C550.2 51.68 550.18 51.36 550.13 51.06L552.16 49.48C552.34 49.34 552.39 49.07 552.28 48.87L550.36 45.55C550.24 45.33 549.99 45.26 549.77 45.33L547.38 46.29C546.88 45.91 546.35 45.59 545.76 45.35L545.4 42.81C545.36 42.57 545.16 42.4 544.92 42.4H541.08C540.84 42.4 540.65 42.57 540.61 42.81L540.25 45.35C539.66 45.59 539.12 45.92 538.63 46.29L536.24 45.33C536.02 45.25 535.77 45.33 535.65 45.55L533.74 48.87C533.62 49.08 533.66 49.34 533.86 49.48L535.89 51.06C535.84 51.36 535.8 51.69 535.8 52C535.8 52.31 535.82 52.64 535.87 52.94L533.84 54.52C533.66 54.66 533.61 54.93 533.72 55.13L535.64 58.45C535.76 58.67 536.01 58.74 536.23 58.67L538.62 57.71C539.12 58.09 539.65 58.41 540.24 58.65L540.6 61.19C540.65 61.43 540.84 61.6 541.08 61.6H544.92C545.16 61.6 545.36 61.43 545.39 61.19L545.75 58.65C546.34 58.41 546.88 58.09 547.37 57.71L549.76 58.67C549.98 58.75 550.23 58.67 550.35 58.45L552.27 55.13C552.39 54.91 552.34 54.66 552.15 54.52L550.14 52.94ZM543 55.6C541.02 55.6 539.4 53.98 539.4 52C539.4 50.02 541.02 48.4 543 48.4C544.98 48.4 546.6 50.02 546.6 52C546.6 53.98 544.98 55.6 543 55.6Z" fill="#CCCCCC"/>
</g>
</g>
<defs>
<filter id="filter0_d" x="0" y="0" width="597" height="312" filterUnits="userSpaceOnUse" color-interpolation-filters="sRGB">
<feFlood flood-opacity="0" result="BackgroundImageFix"/>
<feColorMatrix in="SourceAlpha" type="matrix" values="0 0 0 0 0 0 0 0 0 0 0 0 0 0 0 0 0 0 127 0" result="hardAlpha"/>
<feOffset dy="4"/>
<feGaussianBlur stdDeviation="15"/>
<feColorMatrix type="matrix" values="0 0 0 0 0 0 0 0 0 0 0 0 0 0 0 0 0 0 0.1 0"/>
<feBlend mode="normal" in2="BackgroundImageFix" result="effect1_dropShadow"/>
<feBlend mode="normal" in="SourceGraphic" in2="effect1_dropShadow" result="shape"/>
</filter>
<filter id="filter1_d" x="232.502" y="91.2935" width="306.95" height="102.382" filterUnits="userSpaceOnUse" color-interpolation-filters="sRGB">
<feFlood flood-opacity="0" result="BackgroundImageFix"/>
<feColorMatrix in="SourceAlpha" type="matrix" values="0 0 0 0 0 0 0 0 0 0 0 0 0 0 0 0 0 0 127 0" result="hardAlpha"/>
<feOffset dy="14"/>
<feGaussianBlur stdDeviation="4"/>
<feColorMatrix type="matrix" values="0 0 0 0 0 0 0 0 0 0 0 0 0 0 0 0 0 0 0.25 0"/>
<feBlend mode="normal" in2="BackgroundImageFix" result="effect1_dropShadow"/>
<feBlend mode="normal" in="SourceGraphic" in2="effect1_dropShadow" result="shape"/>
</filter>
<clipPath id="clip0">
<path d="M30 39.4203C30 32.0085 36.0085 26 43.4203 26H553.58C560.992 26 567 32.0085 567 39.4203V264.58C567 271.992 560.992 278 553.58 278H43.4203C36.0085 278 30 271.992 30 264.58V39.4203Z" fill="white"/>
</clipPath>
<clipPath id="clip1">
<rect width="87" height="86" fill="white" transform="translate(329 187)"/>
</clipPath>
<clipPath id="clip2">
<rect width="87" height="86" fill="white" transform="translate(432 187)"/>
</clipPath>
</defs>
</svg>
