<svg width="597" height="312" viewBox="0 0 597 312" fill="none" xmlns="http://www.w3.org/2000/svg">
<g filter="url(#filter0_d)">
<g clip-path="url(#clip0)">
<path d="M30 39.4203C30 32.0085 36.0085 26 43.4203 26H553.58C560.992 26 567 32.0085 567 39.4203V264.58C567 271.992 560.992 278 553.58 278H43.4203C36.0085 278 30 271.992 30 264.58V39.4203Z" fill="white"/>
<path d="M262.138 228C261.923 228 261.741 227.936 261.591 227.807C261.463 227.657 261.398 227.475 261.398 227.261V209.261L256.063 213.375C255.913 213.504 255.752 213.568 255.581 213.568C255.388 213.568 255.206 213.461 255.034 213.246L254.198 212.186C254.091 212.036 254.038 211.886 254.038 211.736C254.038 211.479 254.145 211.275 254.359 211.125L261.366 205.725C261.602 205.575 261.881 205.5 262.202 205.5H263.841C264.056 205.5 264.227 205.575 264.356 205.725C264.506 205.854 264.581 206.025 264.581 206.239V227.261C264.581 227.475 264.506 227.657 264.356 227.807C264.227 227.936 264.056 228 263.841 228H262.138ZM275.392 228.321C273.763 228.321 272.36 228.032 271.181 227.454C270.003 226.875 269.092 226.114 268.449 225.171C267.828 224.229 267.495 223.221 267.453 222.15V222.086C267.453 221.914 267.517 221.775 267.645 221.668C267.774 221.561 267.924 221.507 268.095 221.507H269.831C270.281 221.507 270.57 221.743 270.699 222.214C270.999 223.35 271.578 224.196 272.435 224.754C273.292 225.311 274.278 225.589 275.392 225.589C276.828 225.589 278.017 225.161 278.96 224.304C279.924 223.425 280.406 222.214 280.406 220.671C280.406 219.279 279.924 218.154 278.96 217.296C278.017 216.439 276.828 216.011 275.392 216.011C274.62 216.011 273.999 216.118 273.528 216.332C273.056 216.525 272.585 216.804 272.113 217.168C271.856 217.361 271.631 217.511 271.438 217.618C271.267 217.704 271.074 217.746 270.86 217.746H269.188C268.995 217.746 268.824 217.682 268.674 217.554C268.524 217.404 268.46 217.232 268.481 217.039L269.51 206.304C269.531 206.046 269.606 205.854 269.735 205.725C269.885 205.575 270.078 205.5 270.313 205.5H281.531C281.745 205.5 281.917 205.575 282.045 205.725C282.195 205.854 282.27 206.025 282.27 206.239V207.493C282.27 207.707 282.195 207.889 282.045 208.039C281.917 208.168 281.745 208.232 281.531 208.232H272.274L271.663 214.564C272.82 213.836 274.213 213.471 275.842 213.471C277.256 213.471 278.553 213.761 279.731 214.339C280.931 214.918 281.874 215.754 282.56 216.846C283.267 217.939 283.62 219.225 283.62 220.704C283.62 222.289 283.267 223.661 282.56 224.818C281.874 225.954 280.91 226.821 279.667 227.421C278.424 228.021 276.999 228.321 275.392 228.321Z" fill="black"/>
<path d="M255.147 247.446C255.054 247.446 254.975 247.418 254.909 247.362C254.853 247.297 254.825 247.218 254.825 247.124V237.968C254.825 237.875 254.853 237.8 254.909 237.744C254.975 237.679 255.054 237.646 255.147 237.646H255.889C255.983 237.646 256.057 237.679 256.113 237.744C256.179 237.8 256.211 237.875 256.211 237.968V246.228H260.859C260.962 246.228 261.041 246.261 261.097 246.326C261.163 246.382 261.195 246.462 261.195 246.564V247.124C261.195 247.218 261.163 247.297 261.097 247.362C261.032 247.418 260.953 247.446 260.859 247.446H255.147ZM263.553 247.586C263.096 247.586 262.671 247.493 262.279 247.306C261.887 247.12 261.575 246.868 261.341 246.55C261.117 246.224 261.005 245.864 261.005 245.472C261.005 244.856 261.257 244.352 261.761 243.96C262.275 243.559 262.965 243.298 263.833 243.176L265.919 242.882V242.476C265.919 241.524 265.373 241.048 264.281 241.048C263.871 241.048 263.535 241.137 263.273 241.314C263.012 241.482 262.816 241.683 262.685 241.916C262.657 242 262.62 242.061 262.573 242.098C262.536 242.136 262.48 242.154 262.405 242.154H261.803C261.719 242.154 261.645 242.126 261.579 242.07C261.523 242.005 261.495 241.93 261.495 241.846C261.505 241.622 261.607 241.37 261.803 241.09C262.009 240.801 262.321 240.554 262.741 240.348C263.161 240.134 263.679 240.026 264.295 240.026C265.341 240.026 266.092 240.274 266.549 240.768C267.007 241.254 267.235 241.86 267.235 242.588V247.124C267.235 247.218 267.203 247.297 267.137 247.362C267.081 247.418 267.007 247.446 266.913 247.446H266.269C266.176 247.446 266.097 247.418 266.031 247.362C265.975 247.297 265.947 247.218 265.947 247.124V246.522C265.742 246.821 265.443 247.073 265.051 247.278C264.659 247.484 264.16 247.586 263.553 247.586ZM263.847 246.536C264.454 246.536 264.949 246.34 265.331 245.948C265.723 245.547 265.919 244.973 265.919 244.226V243.834L264.295 244.072C263.633 244.166 263.133 244.324 262.797 244.548C262.461 244.763 262.293 245.038 262.293 245.374C262.293 245.748 262.447 246.037 262.755 246.242C263.063 246.438 263.427 246.536 263.847 246.536ZM271.837 247.586C270.829 247.586 270.064 247.236 269.541 246.536V247.124C269.541 247.218 269.508 247.297 269.443 247.362C269.387 247.418 269.312 247.446 269.219 247.446H268.575C268.482 247.446 268.402 247.418 268.337 247.362C268.281 247.297 268.253 247.218 268.253 247.124V237.828C268.253 237.735 268.281 237.66 268.337 237.604C268.402 237.539 268.482 237.506 268.575 237.506H269.261C269.354 237.506 269.429 237.539 269.485 237.604C269.541 237.66 269.569 237.735 269.569 237.828V241.048C270.12 240.367 270.876 240.026 271.837 240.026C272.808 240.026 273.54 240.348 274.035 240.992C274.53 241.627 274.796 242.425 274.833 243.386C274.842 243.489 274.847 243.629 274.847 243.806C274.847 243.984 274.842 244.124 274.833 244.226C274.796 245.197 274.53 246 274.035 246.634C273.54 247.269 272.808 247.586 271.837 247.586ZM271.543 246.452C272.206 246.452 272.686 246.247 272.985 245.836C273.293 245.426 273.461 244.884 273.489 244.212C273.498 244.119 273.503 243.984 273.503 243.806C273.503 242.042 272.85 241.16 271.543 241.16C270.918 241.16 270.437 241.366 270.101 241.776C269.765 242.187 269.588 242.668 269.569 243.218L269.555 243.764L269.569 244.296C269.597 244.884 269.77 245.393 270.087 245.822C270.414 246.242 270.899 246.452 271.543 246.452ZM278.468 247.586C277.507 247.586 276.737 247.292 276.158 246.704C275.589 246.107 275.276 245.295 275.22 244.268L275.206 243.792L275.22 243.33C275.286 242.322 275.603 241.52 276.172 240.922C276.751 240.325 277.512 240.026 278.454 240.026C279.49 240.026 280.293 240.358 280.862 241.02C281.432 241.674 281.716 242.56 281.716 243.68V243.918C281.716 244.012 281.684 244.091 281.618 244.156C281.562 244.212 281.488 244.24 281.394 244.24H276.55V244.366C276.578 244.973 276.76 245.491 277.096 245.92C277.442 246.34 277.894 246.55 278.454 246.55C278.884 246.55 279.234 246.466 279.504 246.298C279.784 246.121 279.99 245.939 280.12 245.752C280.204 245.64 280.265 245.575 280.302 245.556C280.349 245.528 280.428 245.514 280.54 245.514H281.226C281.31 245.514 281.38 245.538 281.436 245.584C281.492 245.631 281.52 245.696 281.52 245.78C281.52 245.986 281.39 246.233 281.128 246.522C280.876 246.812 280.517 247.064 280.05 247.278C279.593 247.484 279.066 247.586 278.468 247.586ZM280.386 243.274V243.232C280.386 242.588 280.209 242.066 279.854 241.664C279.509 241.254 279.042 241.048 278.454 241.048C277.866 241.048 277.4 241.254 277.054 241.664C276.718 242.066 276.55 242.588 276.55 243.232V243.274H280.386ZM282.718 247.446C282.624 247.446 282.545 247.418 282.48 247.362C282.424 247.297 282.396 247.218 282.396 247.124V237.828C282.396 237.735 282.424 237.66 282.48 237.604C282.545 237.539 282.624 237.506 282.718 237.506H283.376C283.469 237.506 283.544 237.539 283.6 237.604C283.665 237.66 283.698 237.735 283.698 237.828V247.124C283.698 247.218 283.665 247.297 283.6 247.362C283.544 247.418 283.469 247.446 283.376 247.446H282.718Z" fill="black"/>
<g clip-path="url(#clip1)">
<rect x="328.726" y="187" width="88" height="86" rx="9" fill="#F9F9F9"/>
<path d="M365.974 229.139C365.759 229.139 365.577 229.075 365.427 228.946C365.299 228.796 365.234 228.614 365.234 228.4V210.4L359.899 214.514C359.749 214.642 359.588 214.707 359.416 214.707C359.224 214.707 359.041 214.6 358.87 214.385L358.034 213.325C357.927 213.175 357.874 213.025 357.874 212.875C357.874 212.617 357.981 212.414 358.195 212.264L365.202 206.864C365.438 206.714 365.716 206.639 366.038 206.639H367.677C367.891 206.639 368.063 206.714 368.191 206.864C368.341 206.992 368.416 207.164 368.416 207.378V228.4C368.416 228.614 368.341 228.796 368.191 228.946C368.063 229.075 367.891 229.139 367.677 229.139H365.974ZM372.156 229.139C371.942 229.139 371.76 229.075 371.61 228.946C371.481 228.796 371.417 228.614 371.417 228.4V227.371C371.417 226.878 371.685 226.407 372.221 225.957L379.035 219.142C380.685 217.771 381.821 216.657 382.442 215.8C383.063 214.921 383.374 214 383.374 213.035C383.374 211.792 383.021 210.817 382.313 210.11C381.628 209.403 380.621 209.05 379.292 209.05C378.049 209.05 377.053 209.425 376.303 210.175C375.553 210.903 375.092 211.878 374.921 213.1C374.878 213.357 374.771 213.55 374.599 213.678C374.449 213.785 374.278 213.839 374.085 213.839H372.413C372.221 213.839 372.06 213.785 371.931 213.678C371.803 213.55 371.738 213.4 371.738 213.228C371.781 212.071 372.092 210.967 372.671 209.917C373.249 208.846 374.096 207.978 375.21 207.314C376.346 206.628 377.706 206.285 379.292 206.285C381.713 206.285 383.535 206.917 384.756 208.182C385.999 209.425 386.621 211.01 386.621 212.939C386.621 214.289 386.278 215.51 385.592 216.603C384.928 217.675 383.888 218.832 382.474 220.075L376.303 226.342H386.331C386.567 226.342 386.749 226.417 386.878 226.567C387.028 226.696 387.103 226.867 387.103 227.082V228.4C387.103 228.614 387.028 228.796 386.878 228.946C386.728 229.075 386.546 229.139 386.331 229.139H372.156Z" fill="black"/>
<path d="M358.873 248.585C358.78 248.585 358.701 248.557 358.635 248.501C358.579 248.436 358.551 248.357 358.551 248.263V239.107C358.551 239.014 358.579 238.939 358.635 238.883C358.701 238.818 358.78 238.785 358.873 238.785H359.615C359.709 238.785 359.783 238.818 359.839 238.883C359.905 238.939 359.937 239.014 359.937 239.107V247.367H364.585C364.688 247.367 364.767 247.4 364.823 247.465C364.889 247.521 364.921 247.601 364.921 247.703V248.263C364.921 248.357 364.889 248.436 364.823 248.501C364.758 248.557 364.679 248.585 364.585 248.585H358.873ZM367.279 248.725C366.822 248.725 366.397 248.632 366.005 248.445C365.613 248.259 365.301 248.007 365.067 247.689C364.843 247.363 364.731 247.003 364.731 246.611C364.731 245.995 364.983 245.491 365.487 245.099C366.001 244.698 366.691 244.437 367.559 244.315L369.645 244.021V243.615C369.645 242.663 369.099 242.187 368.007 242.187C367.597 242.187 367.261 242.276 366.999 242.453C366.738 242.621 366.542 242.822 366.411 243.055C366.383 243.139 366.346 243.2 366.299 243.237C366.262 243.275 366.206 243.293 366.131 243.293H365.529C365.445 243.293 365.371 243.265 365.305 243.209C365.249 243.144 365.221 243.069 365.221 242.985C365.231 242.761 365.333 242.509 365.529 242.229C365.735 241.94 366.047 241.693 366.467 241.487C366.887 241.273 367.405 241.165 368.021 241.165C369.067 241.165 369.818 241.413 370.275 241.907C370.733 242.393 370.961 242.999 370.961 243.727V248.263C370.961 248.357 370.929 248.436 370.863 248.501C370.807 248.557 370.733 248.585 370.639 248.585H369.995C369.902 248.585 369.823 248.557 369.757 248.501C369.701 248.436 369.673 248.357 369.673 248.263V247.661C369.468 247.96 369.169 248.212 368.777 248.417C368.385 248.623 367.886 248.725 367.279 248.725ZM367.573 247.675C368.18 247.675 368.675 247.479 369.057 247.087C369.449 246.686 369.645 246.112 369.645 245.365V244.973L368.021 245.211C367.359 245.305 366.859 245.463 366.523 245.687C366.187 245.902 366.019 246.177 366.019 246.513C366.019 246.887 366.173 247.176 366.481 247.381C366.789 247.577 367.153 247.675 367.573 247.675ZM375.563 248.725C374.555 248.725 373.79 248.375 373.267 247.675V248.263C373.267 248.357 373.234 248.436 373.169 248.501C373.113 248.557 373.038 248.585 372.945 248.585H372.301C372.208 248.585 372.128 248.557 372.063 248.501C372.007 248.436 371.979 248.357 371.979 248.263V238.967C371.979 238.874 372.007 238.799 372.063 238.743C372.128 238.678 372.208 238.645 372.301 238.645H372.987C373.08 238.645 373.155 238.678 373.211 238.743C373.267 238.799 373.295 238.874 373.295 238.967V242.187C373.846 241.506 374.602 241.165 375.563 241.165C376.534 241.165 377.266 241.487 377.761 242.131C378.256 242.766 378.522 243.564 378.559 244.525C378.568 244.628 378.573 244.768 378.573 244.945C378.573 245.123 378.568 245.263 378.559 245.365C378.522 246.336 378.256 247.139 377.761 247.773C377.266 248.408 376.534 248.725 375.563 248.725ZM375.269 247.591C375.932 247.591 376.412 247.386 376.711 246.975C377.019 246.565 377.187 246.023 377.215 245.351C377.224 245.258 377.229 245.123 377.229 244.945C377.229 243.181 376.576 242.299 375.269 242.299C374.644 242.299 374.163 242.505 373.827 242.915C373.491 243.326 373.314 243.807 373.295 244.357L373.281 244.903L373.295 245.435C373.323 246.023 373.496 246.532 373.813 246.961C374.14 247.381 374.625 247.591 375.269 247.591ZM382.194 248.725C381.233 248.725 380.463 248.431 379.884 247.843C379.315 247.246 379.002 246.434 378.946 245.407L378.932 244.931L378.946 244.469C379.012 243.461 379.329 242.659 379.898 242.061C380.477 241.464 381.238 241.165 382.18 241.165C383.216 241.165 384.019 241.497 384.588 242.159C385.158 242.813 385.442 243.699 385.442 244.819V245.057C385.442 245.151 385.41 245.23 385.344 245.295C385.288 245.351 385.214 245.379 385.12 245.379H380.276V245.505C380.304 246.112 380.486 246.63 380.822 247.059C381.168 247.479 381.62 247.689 382.18 247.689C382.61 247.689 382.96 247.605 383.23 247.437C383.51 247.26 383.716 247.078 383.846 246.891C383.93 246.779 383.991 246.714 384.028 246.695C384.075 246.667 384.154 246.653 384.266 246.653H384.952C385.036 246.653 385.106 246.677 385.162 246.723C385.218 246.77 385.246 246.835 385.246 246.919C385.246 247.125 385.116 247.372 384.854 247.661C384.602 247.951 384.243 248.203 383.776 248.417C383.319 248.623 382.792 248.725 382.194 248.725ZM384.112 244.413V244.371C384.112 243.727 383.935 243.205 383.58 242.803C383.235 242.393 382.768 242.187 382.18 242.187C381.592 242.187 381.126 242.393 380.78 242.803C380.444 243.205 380.276 243.727 380.276 244.371V244.413H384.112ZM386.444 248.585C386.35 248.585 386.271 248.557 386.206 248.501C386.15 248.436 386.122 248.357 386.122 248.263V238.967C386.122 238.874 386.15 238.799 386.206 238.743C386.271 238.678 386.35 238.645 386.444 238.645H387.102C387.195 238.645 387.27 238.678 387.326 238.743C387.391 238.799 387.424 238.874 387.424 238.967V248.263C387.424 248.357 387.391 248.436 387.326 248.501C387.27 248.557 387.195 248.585 387.102 248.585H386.444Z" fill="black"/>
</g>
<g clip-path="url(#clip2)">
<path d="M475.484 227.321C473.77 227.321 472.281 226.979 471.016 226.293C469.752 225.586 468.788 224.643 468.124 223.464C467.459 222.286 467.127 221 467.127 219.607C467.127 218.471 467.352 217.4 467.802 216.393C468.274 215.364 468.799 214.454 469.377 213.661L475.484 205.143C475.506 205.121 475.57 205.046 475.677 204.918C475.763 204.789 475.881 204.693 476.031 204.629C476.181 204.543 476.352 204.5 476.545 204.5H478.249C478.441 204.5 478.591 204.575 478.699 204.725C478.827 204.854 478.891 205.014 478.891 205.207C478.891 205.357 478.849 205.496 478.763 205.625L474.07 212.182C474.541 212.032 475.152 211.957 475.902 211.957C477.445 211.979 478.806 212.332 479.984 213.018C481.184 213.704 482.106 214.625 482.749 215.782C483.413 216.939 483.745 218.204 483.745 219.575C483.745 220.946 483.413 222.232 482.749 223.432C482.106 224.611 481.152 225.554 479.888 226.261C478.645 226.968 477.177 227.321 475.484 227.321ZM475.452 224.589C476.374 224.589 477.22 224.396 477.991 224.011C478.784 223.625 479.406 223.057 479.856 222.307C480.327 221.536 480.563 220.625 480.563 219.575C480.563 218.546 480.327 217.657 479.856 216.907C479.406 216.157 478.784 215.589 477.991 215.204C477.22 214.818 476.374 214.625 475.452 214.625C474.552 214.625 473.706 214.818 472.913 215.204C472.141 215.589 471.52 216.157 471.049 216.907C470.577 217.657 470.341 218.546 470.341 219.575C470.341 220.625 470.577 221.536 471.049 222.307C471.52 223.057 472.141 223.625 472.913 224.011C473.684 224.396 474.531 224.589 475.452 224.589Z" fill="black"/>
<path d="M461.347 246.185C461.254 246.185 461.174 246.157 461.109 246.101C461.053 246.035 461.025 245.956 461.025 245.863V236.707C461.025 236.613 461.053 236.539 461.109 236.483C461.174 236.417 461.254 236.385 461.347 236.385H462.089C462.182 236.385 462.257 236.417 462.313 236.483C462.378 236.539 462.411 236.613 462.411 236.707V244.967H467.059C467.162 244.967 467.241 244.999 467.297 245.065C467.362 245.121 467.395 245.2 467.395 245.303V245.863C467.395 245.956 467.362 246.035 467.297 246.101C467.232 246.157 467.152 246.185 467.059 246.185H461.347ZM469.753 246.325C469.295 246.325 468.871 246.231 468.479 246.045C468.087 245.858 467.774 245.606 467.541 245.289C467.317 244.962 467.205 244.603 467.205 244.211C467.205 243.595 467.457 243.091 467.961 242.699C468.474 242.297 469.165 242.036 470.033 241.915L472.119 241.621V241.215C472.119 240.263 471.573 239.787 470.481 239.787C470.07 239.787 469.734 239.875 469.473 240.053C469.211 240.221 469.015 240.421 468.885 240.655C468.857 240.739 468.819 240.799 468.773 240.837C468.735 240.874 468.679 240.893 468.605 240.893H468.003C467.919 240.893 467.844 240.865 467.779 240.809C467.723 240.743 467.695 240.669 467.695 240.585C467.704 240.361 467.807 240.109 468.003 239.829C468.208 239.539 468.521 239.292 468.941 239.087C469.361 238.872 469.879 238.765 470.495 238.765C471.54 238.765 472.291 239.012 472.749 239.507C473.206 239.992 473.435 240.599 473.435 241.327V245.863C473.435 245.956 473.402 246.035 473.337 246.101C473.281 246.157 473.206 246.185 473.113 246.185H472.469C472.375 246.185 472.296 246.157 472.231 246.101C472.175 246.035 472.147 245.956 472.147 245.863V245.261C471.941 245.559 471.643 245.811 471.251 246.017C470.859 246.222 470.359 246.325 469.753 246.325ZM470.047 245.275C470.653 245.275 471.148 245.079 471.531 244.687C471.923 244.285 472.119 243.711 472.119 242.965V242.573L470.495 242.811C469.832 242.904 469.333 243.063 468.997 243.287C468.661 243.501 468.493 243.777 468.493 244.113C468.493 244.486 468.647 244.775 468.955 244.981C469.263 245.177 469.627 245.275 470.047 245.275ZM478.037 246.325C477.029 246.325 476.263 245.975 475.741 245.275V245.863C475.741 245.956 475.708 246.035 475.643 246.101C475.587 246.157 475.512 246.185 475.419 246.185H474.775C474.681 246.185 474.602 246.157 474.537 246.101C474.481 246.035 474.453 245.956 474.453 245.863V236.567C474.453 236.473 474.481 236.399 474.537 236.343C474.602 236.277 474.681 236.245 474.775 236.245H475.461C475.554 236.245 475.629 236.277 475.685 236.343C475.741 236.399 475.769 236.473 475.769 236.567V239.787C476.319 239.105 477.075 238.765 478.037 238.765C479.007 238.765 479.74 239.087 480.235 239.731C480.729 240.365 480.995 241.163 481.033 242.125C481.042 242.227 481.047 242.367 481.047 242.545C481.047 242.722 481.042 242.862 481.033 242.965C480.995 243.935 480.729 244.738 480.235 245.373C479.74 246.007 479.007 246.325 478.037 246.325ZM477.743 245.191C478.405 245.191 478.886 244.985 479.185 244.575C479.493 244.164 479.661 243.623 479.689 242.951C479.698 242.857 479.703 242.722 479.703 242.545C479.703 240.781 479.049 239.899 477.743 239.899C477.117 239.899 476.637 240.104 476.301 240.515C475.965 240.925 475.787 241.406 475.769 241.957L475.755 242.503L475.769 243.035C475.797 243.623 475.969 244.131 476.287 244.561C476.613 244.981 477.099 245.191 477.743 245.191ZM484.668 246.325C483.707 246.325 482.937 246.031 482.358 245.443C481.789 244.845 481.476 244.033 481.42 243.007L481.406 242.531L481.42 242.069C481.485 241.061 481.803 240.258 482.372 239.661C482.951 239.063 483.711 238.765 484.654 238.765C485.69 238.765 486.493 239.096 487.062 239.759C487.631 240.412 487.916 241.299 487.916 242.419V242.657C487.916 242.75 487.883 242.829 487.818 242.895C487.762 242.951 487.687 242.979 487.594 242.979H482.75V243.105C482.778 243.711 482.96 244.229 483.296 244.659C483.641 245.079 484.094 245.289 484.654 245.289C485.083 245.289 485.433 245.205 485.704 245.037C485.984 244.859 486.189 244.677 486.32 244.491C486.404 244.379 486.465 244.313 486.502 244.295C486.549 244.267 486.628 244.253 486.74 244.253H487.426C487.51 244.253 487.58 244.276 487.636 244.323C487.692 244.369 487.72 244.435 487.72 244.519C487.72 244.724 487.589 244.971 487.328 245.261C487.076 245.55 486.717 245.802 486.25 246.017C485.793 246.222 485.265 246.325 484.668 246.325ZM486.586 242.013V241.971C486.586 241.327 486.409 240.804 486.054 240.403C485.709 239.992 485.242 239.787 484.654 239.787C484.066 239.787 483.599 239.992 483.254 240.403C482.918 240.804 482.75 241.327 482.75 241.971V242.013H486.586ZM488.917 246.185C488.824 246.185 488.744 246.157 488.679 246.101C488.623 246.035 488.595 245.956 488.595 245.863V236.567C488.595 236.473 488.623 236.399 488.679 236.343C488.744 236.277 488.824 236.245 488.917 236.245H489.575C489.668 236.245 489.743 236.277 489.799 236.343C489.864 236.399 489.897 236.473 489.897 236.567V245.863C489.897 245.956 489.864 246.035 489.799 246.101C489.743 246.157 489.668 246.185 489.575 246.185H488.917Z" fill="black"/>
</g>
<g filter="url(#filter1_d)">
<path d="M241 171L277.984 143.724C287.72 136.544 301.51 139.189 307.898 149.462V149.462C313.74 158.859 325.932 162.012 335.597 156.626L375.154 134.584C385.94 128.574 399.56 132.995 404.76 144.194V144.194C410.178 155.862 424.642 160.074 435.478 153.139L531 92" stroke="black" stroke-width="1.67754"/>
</g>
<rect x="30" y="26" width="159" height="255" fill="#F9F9F9"/>
<path d="M114 230L112.59 231.41L117.17 236H101V238H117.17L112.58 242.59L114 244L121 237L114 230Z" fill="#323232"/>
<path d="M78.1966 198C78.0624 198 77.9483 197.96 77.8543 197.879C77.7738 197.785 77.7336 197.671 77.7336 197.537V192.786L72.8821 184.573C72.8821 184.546 72.8754 184.506 72.862 184.452C72.8351 184.399 72.8217 184.352 72.8217 184.311C72.8217 184.204 72.862 184.11 72.9425 184.029C73.023 183.949 73.117 183.909 73.2243 183.909H74.2711C74.4993 183.909 74.6737 184.023 74.7945 184.251L78.7199 190.773L82.6454 184.251C82.793 184.023 82.9742 183.909 83.1889 183.909H84.2156C84.3363 183.909 84.437 183.949 84.5175 184.029C84.598 184.11 84.6383 184.204 84.6383 184.311C84.6383 184.378 84.6115 184.466 84.5578 184.573L79.7265 192.786V197.537C79.7265 197.671 79.6795 197.785 79.5856 197.879C79.4916 197.96 79.3775 198 79.2433 198H78.1966ZM86.4306 198.201C85.773 198.201 85.1624 198.067 84.5987 197.799C84.0351 197.53 83.5855 197.168 83.25 196.712C82.9279 196.242 82.7669 195.725 82.7669 195.162C82.7669 194.276 83.1292 193.551 83.8539 192.988C84.592 192.41 85.5851 192.035 86.8332 191.86L89.8326 191.437V190.854C89.8326 189.485 89.0475 188.8 87.4774 188.8C86.8869 188.8 86.4038 188.928 86.028 189.183C85.6522 189.424 85.3704 189.713 85.1825 190.048C85.1422 190.169 85.0886 190.256 85.0215 190.31C84.9678 190.364 84.8873 190.391 84.7799 190.391H83.9143C83.7935 190.391 83.6861 190.35 83.5922 190.27C83.5117 190.176 83.4714 190.069 83.4714 189.948C83.4848 189.626 83.6325 189.263 83.9143 188.861C84.2095 188.445 84.6591 188.089 85.263 187.794C85.8669 187.485 86.6118 187.331 87.4975 187.331C89.0006 187.331 90.0809 187.687 90.7385 188.398C91.3961 189.096 91.7249 189.968 91.7249 191.015V197.537C91.7249 197.671 91.6779 197.785 91.584 197.879C91.5035 197.96 91.3961 198 91.2619 198H90.3359C90.2017 198 90.0876 197.96 89.9937 197.879C89.9132 197.785 89.8729 197.671 89.8729 197.537V196.671C89.5776 197.101 89.1482 197.463 88.5845 197.758C88.0209 198.054 87.3029 198.201 86.4306 198.201ZM86.8533 196.692C87.7256 196.692 88.4369 196.41 88.9872 195.846C89.5508 195.269 89.8326 194.444 89.8326 193.37V192.806L87.4975 193.149C86.5447 193.283 85.8267 193.511 85.3435 193.833C84.8604 194.142 84.6189 194.538 84.6189 195.021C84.6189 195.558 84.8403 195.974 85.2832 196.269C85.726 196.551 86.2494 196.692 86.8533 196.692ZM94.9708 201.825C94.8635 201.825 94.7695 201.785 94.689 201.704C94.6085 201.623 94.5682 201.53 94.5682 201.422C94.5682 201.328 94.6018 201.207 94.6689 201.06L96.2189 197.376L92.374 188.297C92.3069 188.123 92.2734 188.009 92.2734 187.955C92.2734 187.834 92.3136 187.733 92.3941 187.653C92.4747 187.572 92.5753 187.532 92.6961 187.532H93.6825C93.8972 187.532 94.0582 187.646 94.1656 187.874L97.2254 195.202L100.366 187.874C100.473 187.646 100.641 187.532 100.869 187.532H101.815C101.936 187.532 102.037 187.572 102.117 187.653C102.198 187.733 102.238 187.827 102.238 187.935C102.238 187.975 102.204 188.096 102.137 188.297L96.4202 201.483C96.3129 201.711 96.1451 201.825 95.917 201.825H94.9708ZM103.445 198C103.311 198 103.197 197.96 103.103 197.879C103.023 197.785 102.982 197.671 102.982 197.537V187.995C102.982 187.861 103.023 187.754 103.103 187.673C103.197 187.579 103.311 187.532 103.445 187.532H104.412C104.546 187.532 104.653 187.579 104.734 187.673C104.828 187.754 104.875 187.861 104.875 187.995V197.537C104.875 197.671 104.828 197.785 104.734 197.879C104.653 197.96 104.546 198 104.412 198H103.445ZM107.057 198C106.923 198 106.809 197.96 106.715 197.879C106.634 197.785 106.594 197.671 106.594 197.537V187.995C106.594 187.861 106.634 187.754 106.715 187.673C106.809 187.579 106.923 187.532 107.057 187.532H108.003C108.138 187.532 108.245 187.579 108.325 187.673C108.419 187.754 108.466 187.861 108.466 187.995V188.881C108.856 188.384 109.312 188.002 109.835 187.733C110.372 187.465 111.036 187.331 111.828 187.331C113.116 187.331 114.116 187.747 114.828 188.579C115.552 189.398 115.915 190.491 115.915 191.86V197.537C115.915 197.671 115.868 197.785 115.774 197.879C115.693 197.96 115.586 198 115.452 198H114.445C114.311 198 114.197 197.96 114.103 197.879C114.022 197.785 113.982 197.671 113.982 197.537V191.961C113.982 191.008 113.747 190.27 113.278 189.747C112.821 189.223 112.157 188.961 111.285 188.961C110.439 188.961 109.768 189.23 109.272 189.767C108.775 190.29 108.527 191.021 108.527 191.961V197.537C108.527 197.671 108.48 197.785 108.386 197.879C108.305 197.96 108.198 198 108.064 198H107.057ZM121.766 198.201C120.33 198.201 119.203 197.799 118.384 196.993C117.579 196.175 117.149 195.034 117.096 193.571L117.076 192.766L117.096 191.961C117.149 190.498 117.579 189.364 118.384 188.559C119.203 187.74 120.33 187.331 121.766 187.331C122.732 187.331 123.551 187.505 124.222 187.854C124.893 188.203 125.39 188.633 125.712 189.143C126.047 189.653 126.228 190.163 126.255 190.673C126.269 190.807 126.228 190.914 126.134 190.995C126.04 191.075 125.926 191.115 125.792 191.115H124.826C124.692 191.115 124.591 191.089 124.524 191.035C124.457 190.981 124.39 190.874 124.323 190.713C124.094 190.069 123.772 189.612 123.356 189.344C122.94 189.062 122.417 188.921 121.786 188.921C120.954 188.921 120.29 189.183 119.793 189.706C119.31 190.216 119.048 191.001 119.008 192.062L118.988 192.786L119.008 193.471C119.048 194.544 119.31 195.336 119.793 195.846C120.276 196.356 120.941 196.611 121.786 196.611C122.417 196.611 122.94 196.477 123.356 196.208C123.772 195.927 124.094 195.464 124.323 194.819C124.39 194.658 124.457 194.551 124.524 194.497C124.591 194.43 124.692 194.397 124.826 194.397H125.792C125.926 194.397 126.04 194.444 126.134 194.538C126.228 194.618 126.269 194.725 126.255 194.86C126.228 195.356 126.047 195.866 125.712 196.39C125.39 196.9 124.893 197.329 124.222 197.678C123.564 198.027 122.746 198.201 121.766 198.201ZM127.845 198C127.711 198 127.597 197.96 127.503 197.879C127.422 197.785 127.382 197.671 127.382 197.537V187.995C127.382 187.861 127.422 187.754 127.503 187.673C127.597 187.579 127.711 187.532 127.845 187.532H128.811C128.946 187.532 129.053 187.579 129.134 187.673C129.227 187.754 129.274 187.861 129.274 187.995V197.537C129.274 197.671 129.227 197.785 129.134 197.879C129.053 197.96 128.946 198 128.811 198H127.845ZM131.477 198C131.343 198 131.229 197.96 131.135 197.879C131.054 197.785 131.014 197.671 131.014 197.537V184.17C131.014 184.036 131.054 183.929 131.135 183.848C131.229 183.754 131.343 183.707 131.477 183.707H132.423C132.557 183.707 132.665 183.754 132.745 183.848C132.839 183.929 132.886 184.036 132.886 184.17V197.537C132.886 197.671 132.839 197.785 132.745 197.879C132.665 197.96 132.557 198 132.423 198H131.477ZM137.544 198.201C136.887 198.201 136.276 198.067 135.712 197.799C135.149 197.53 134.699 197.168 134.364 196.712C134.042 196.242 133.88 195.725 133.88 195.162C133.88 194.276 134.243 193.551 134.968 192.988C135.706 192.41 136.699 192.035 137.947 191.86L140.946 191.437V190.854C140.946 189.485 140.161 188.8 138.591 188.8C138.001 188.8 137.517 188.928 137.142 189.183C136.766 189.424 136.484 189.713 136.296 190.048C136.256 190.169 136.202 190.256 136.135 190.31C136.081 190.364 136.001 190.391 135.894 190.391H135.028C134.907 190.391 134.8 190.35 134.706 190.27C134.625 190.176 134.585 190.069 134.585 189.948C134.598 189.626 134.746 189.263 135.028 188.861C135.323 188.445 135.773 188.089 136.377 187.794C136.981 187.485 137.725 187.331 138.611 187.331C140.114 187.331 141.195 187.687 141.852 188.398C142.51 189.096 142.839 189.968 142.839 191.015V197.537C142.839 197.671 142.792 197.785 142.698 197.879C142.617 197.96 142.51 198 142.376 198H141.45C141.315 198 141.201 197.96 141.107 197.879C141.027 197.785 140.987 197.671 140.987 197.537V196.671C140.691 197.101 140.262 197.463 139.698 197.758C139.135 198.054 138.417 198.201 137.544 198.201ZM137.967 196.692C138.839 196.692 139.551 196.41 140.101 195.846C140.664 195.269 140.946 194.444 140.946 193.37V192.806L138.611 193.149C137.658 193.283 136.94 193.511 136.457 193.833C135.974 194.142 135.732 194.538 135.732 195.021C135.732 195.558 135.954 195.974 136.397 196.269C136.84 196.551 137.363 196.692 137.967 196.692ZM144.932 198C144.798 198 144.684 197.96 144.59 197.879C144.509 197.785 144.469 197.671 144.469 197.537V188.015C144.469 187.881 144.509 187.767 144.59 187.673C144.684 187.579 144.798 187.532 144.932 187.532H145.858C145.992 187.532 146.106 187.579 146.2 187.673C146.294 187.767 146.341 187.881 146.341 188.015V188.901C146.891 187.988 147.831 187.532 149.159 187.532H149.944C150.079 187.532 150.186 187.579 150.266 187.673C150.36 187.754 150.407 187.861 150.407 187.995V188.821C150.407 188.955 150.36 189.062 150.266 189.143C150.186 189.223 150.079 189.263 149.944 189.263H148.736C148.012 189.263 147.441 189.478 147.025 189.908C146.609 190.324 146.401 190.894 146.401 191.619V197.537C146.401 197.671 146.354 197.785 146.26 197.879C146.166 197.96 146.052 198 145.918 198H144.932Z" fill="black"/>
<mask id="mask0" mask-type="alpha" maskUnits="userSpaceOnUse" x="63" y="64" width="96" height="96">
<rect x="63" y="64" width="96" height="96" fill="white"/>
</mask>
<g mask="url(#mask0)">
<rect opacity="0.02" x="63" y="64" width="96" height="96" fill="#3C64B1"/>
<g opacity="0.06">
<path d="M63 64L159 160" stroke="#3C64B1"/>
<path d="M66.75 60.25L162.75 156.25" stroke="#3C64B1"/>
<path d="M70.5 56.5L166.5 152.5" stroke="#3C64B1"/>
<path d="M74.25 52.75L170.25 148.75" stroke="#3C64B1"/>
<path d="M78 49L174 145" stroke="#3C64B1"/>
<path d="M81.75 45.25L177.75 141.25" stroke="#3C64B1"/>
<path d="M85.5 41.5L181.5 137.5" stroke="#3C64B1"/>
<path d="M89.25 37.75L185.25 133.75" stroke="#3C64B1"/>
<path d="M93 34L189 130" stroke="#3C64B1"/>
<path d="M96.75 30.25L192.75 126.25" stroke="#3C64B1"/>
<path d="M100.5 26.5L196.5 122.5" stroke="#3C64B1"/>
<path d="M104.25 22.75L200.25 118.75" stroke="#3C64B1"/>
<path d="M108 19L204 115" stroke="#3C64B1"/>
<path d="M59.25 67.75L155.25 163.75" stroke="#3C64B1"/>
<path d="M55.5 71.5L151.5 167.5" stroke="#3C64B1"/>
<path d="M51.75 75.25L147.75 171.25" stroke="#3C64B1"/>
<path d="M48 79L144 175" stroke="#3C64B1"/>
<path d="M44.25 82.75L140.25 178.75" stroke="#3C64B1"/>
<path d="M40.5 86.5L136.5 182.5" stroke="#3C64B1"/>
<path d="M36.75 90.25L132.75 186.25" stroke="#3C64B1"/>
<path d="M33 94L129 190" stroke="#3C64B1"/>
<path d="M29.25 97.75L125.25 193.75" stroke="#3C64B1"/>
<path d="M25.5 101.5L121.5 197.5" stroke="#3C64B1"/>
<path d="M21.75 105.25L117.75 201.25" stroke="#3C64B1"/>
<path d="M18 109L114 205" stroke="#3C64B1"/>
<path d="M14.25 112.75L110.25 208.75" stroke="#3C64B1"/>
</g>
<g opacity="0.06">
<path d="M64.875 62.125L160.875 158.125" stroke="#3C64B1"/>
<path d="M68.625 58.375L164.625 154.375" stroke="#3C64B1"/>
<path d="M72.375 54.625L168.375 150.625" stroke="#3C64B1"/>
<path d="M76.125 50.875L172.125 146.875" stroke="#3C64B1"/>
<path d="M79.875 47.125L175.875 143.125" stroke="#3C64B1"/>
<path d="M83.625 43.375L179.625 139.375" stroke="#3C64B1"/>
<path d="M87.375 39.625L183.375 135.625" stroke="#3C64B1"/>
<path d="M91.125 35.875L187.125 131.875" stroke="#3C64B1"/>
<path d="M94.875 32.125L190.875 128.125" stroke="#3C64B1"/>
<path d="M98.625 28.375L194.625 124.375" stroke="#3C64B1"/>
<path d="M102.375 24.625L198.375 120.625" stroke="#3C64B1"/>
<path d="M106.125 20.875L202.125 116.875" stroke="#3C64B1"/>
<path d="M109.875 17.125L205.875 113.125" stroke="#3C64B1"/>
<path d="M61.125 65.875L157.125 161.875" stroke="#3C64B1"/>
<path d="M57.375 69.625L153.375 165.625" stroke="#3C64B1"/>
<path d="M53.625 73.375L149.625 169.375" stroke="#3C64B1"/>
<path d="M49.875 77.125L145.875 173.125" stroke="#3C64B1"/>
<path d="M46.125 80.875L142.125 176.875" stroke="#3C64B1"/>
<path d="M42.375 84.625L138.375 180.625" stroke="#3C64B1"/>
<path d="M38.625 88.375L134.625 184.375" stroke="#3C64B1"/>
<path d="M34.875 92.125L130.875 188.125" stroke="#3C64B1"/>
<path d="M31.125 95.875L127.125 191.875" stroke="#3C64B1"/>
<path d="M27.375 99.625L123.375 195.625" stroke="#3C64B1"/>
<path d="M23.625 103.375L119.625 199.375" stroke="#3C64B1"/>
<path d="M19.875 107.125L115.875 203.125" stroke="#3C64B1"/>
<path d="M16.125 110.875L112.125 206.875" stroke="#3C64B1"/>
</g>
</g>
<g opacity="0.5">
<path d="M122.667 97H99.3333C97.4924 97 96 98.4924 96 100.333V123.667C96 125.508 97.4924 127 99.3333 127H122.667C124.508 127 126 125.508 126 123.667V100.333C126 98.4924 124.508 97 122.667 97Z" stroke="#3C64B1" stroke-width="1.5" stroke-linecap="round" stroke-linejoin="round"/>
<path d="M105.167 108.667C106.547 108.667 107.667 107.547 107.667 106.167C107.667 104.786 106.547 103.667 105.167 103.667C103.786 103.667 102.667 104.786 102.667 106.167C102.667 107.547 103.786 108.667 105.167 108.667Z" stroke="#3C64B1" stroke-width="1.5" stroke-linecap="round" stroke-linejoin="round"/>
<path d="M126 117L117.667 108.667L99.3334 127" stroke="#3C64B1" stroke-width="1.5" stroke-linecap="round" stroke-linejoin="round"/>
</g>
<path d="M550.14 52.94C550.18 52.64 550.2 52.33 550.2 52C550.2 51.68 550.18 51.36 550.13 51.06L552.16 49.48C552.34 49.34 552.39 49.07 552.28 48.87L550.36 45.55C550.24 45.33 549.99 45.26 549.77 45.33L547.38 46.29C546.88 45.91 546.35 45.59 545.76 45.35L545.4 42.81C545.36 42.57 545.16 42.4 544.92 42.4H541.08C540.84 42.4 540.65 42.57 540.61 42.81L540.25 45.35C539.66 45.59 539.12 45.92 538.63 46.29L536.24 45.33C536.02 45.25 535.77 45.33 535.65 45.55L533.74 48.87C533.62 49.08 533.66 49.34 533.86 49.48L535.89 51.06C535.84 51.36 535.8 51.69 535.8 52C535.8 52.31 535.82 52.64 535.87 52.94L533.84 54.52C533.66 54.66 533.61 54.93 533.72 55.13L535.64 58.45C535.76 58.67 536.01 58.74 536.23 58.67L538.62 57.71C539.12 58.09 539.65 58.41 540.24 58.65L540.6 61.19C540.65 61.43 540.84 61.6 541.08 61.6H544.92C545.16 61.6 545.36 61.43 545.39 61.19L545.75 58.65C546.34 58.41 546.88 58.09 547.37 57.71L549.76 58.67C549.98 58.75 550.23 58.67 550.35 58.45L552.27 55.13C552.39 54.91 552.34 54.66 552.15 54.52L550.14 52.94ZM543 55.6C541.02 55.6 539.4 53.98 539.4 52C539.4 50.02 541.02 48.4 543 48.4C544.98 48.4 546.6 50.02 546.6 52C546.6 53.98 544.98 55.6 543 55.6Z" fill="#CCCCCC"/>
</g>
</g>
<defs>
<filter id="filter0_d" x="0" y="0" width="597" height="312" filterUnits="userSpaceOnUse" color-interpolation-filters="sRGB">
<feFlood flood-opacity="0" result="BackgroundImageFix"/>
<feColorMatrix in="SourceAlpha" type="matrix" values="0 0 0 0 0 0 0 0 0 0 0 0 0 0 0 0 0 0 127 0" result="hardAlpha"/>
<feOffset dy="4"/>
<feGaussianBlur stdDeviation="15"/>
<feColorMatrix type="matrix" values="0 0 0 0 0 0 0 0 0 0 0 0 0 0 0 0 0 0 0.1 0"/>
<feBlend mode="normal" in2="BackgroundImageFix" result="effect1_dropShadow"/>
<feBlend mode="normal" in="SourceGraphic" in2="effect1_dropShadow" result="shape"/>
</filter>
<filter id="filter1_d" x="232.502" y="91.2935" width="306.95" height="102.382" filterUnits="userSpaceOnUse" color-interpolation-filters="sRGB">
<feFlood flood-opacity="0" result="BackgroundImageFix"/>
<feColorMatrix in="SourceAlpha" type="matrix" values="0 0 0 0 0 0 0 0 0 0 0 0 0 0 0 0 0 0 127 0" result="hardAlpha"/>
<feOffset dy="14"/>
<feGaussianBlur stdDeviation="4"/>
<feColorMatrix type="matrix" values="0 0 0 0 0 0 0 0 0 0 0 0 0 0 0 0 0 0 0.25 0"/>
<feBlend mode="normal" in2="BackgroundImageFix" result="effect1_dropShadow"/>
<feBlend mode="normal" in="SourceGraphic" in2="effect1_dropShadow" result="shape"/>
</filter>
<clipPath id="clip0">
<path d="M30 39.4203C30 32.0085 36.0085 26 43.4203 26H553.58C560.992 26 567 32.0085 567 39.4203V264.58C567 271.992 560.992 278 553.58 278H43.4203C36.0085 278 30 271.992 30 264.58V39.4203Z" fill="white"/>
</clipPath>
<clipPath id="clip1">
<rect width="87" height="86" fill="white" transform="translate(329 187)"/>
</clipPath>
<clipPath id="clip2">
<rect width="87" height="86" fill="white" transform="translate(432 187)"/>
</clipPath>
</defs>
</svg>
