<svg width="33" height="32" viewBox="0 0 33 32" fill="none" xmlns="http://www.w3.org/2000/svg">
<circle cx="16.5" cy="16" r="16" fill="#F4F5F4"/>
<path d="M21.8333 22V20.6667C21.8333 19.9594 21.5523 19.2811 21.0522 18.781C20.5521 18.281 19.8739 18 19.1666 18H13.8333C13.126 18 12.4478 18.281 11.9477 18.781C11.4476 19.2811 11.1666 19.9594 11.1666 20.6667V22" stroke="#C3CBCD" stroke-width="1.5" stroke-linecap="round" stroke-linejoin="round"/>
<path d="M16.5 15.3333C17.9728 15.3333 19.1667 14.1394 19.1667 12.6667C19.1667 11.1939 17.9728 10 16.5 10C15.0273 10 13.8334 11.1939 13.8334 12.6667C13.8334 14.1394 15.0273 15.3333 16.5 15.3333Z" stroke="#C3CBCD" stroke-width="1.5" stroke-linecap="round" stroke-linejoin="round"/>
</svg>
