<svg width="597" height="312" viewBox="0 0 597 312" fill="none" xmlns="http://www.w3.org/2000/svg">
<g filter="url(#filter0_d)">
<g clip-path="url(#clip0)">
<path d="M30 39.4203C30 32.0085 36.0085 26 43.4203 26H553.58C560.992 26 567 32.0085 567 39.4203V264.58C567 271.992 560.992 278 553.58 278H43.4203C36.0085 278 30 271.992 30 264.58V39.4203Z" fill="white"/>
<path d="M287.138 228C286.923 228 286.741 227.936 286.591 227.807C286.463 227.657 286.398 227.475 286.398 227.261V209.261L281.063 213.375C280.913 213.504 280.752 213.568 280.581 213.568C280.388 213.568 280.206 213.461 280.034 213.246L279.198 212.186C279.091 212.036 279.038 211.886 279.038 211.736C279.038 211.479 279.145 211.275 279.359 211.125L286.366 205.725C286.602 205.575 286.881 205.5 287.202 205.5H288.841C289.056 205.5 289.227 205.575 289.356 205.725C289.506 205.854 289.581 206.025 289.581 206.239V227.261C289.581 227.475 289.506 227.657 289.356 227.807C289.227 227.936 289.056 228 288.841 228H287.138ZM300.392 228.321C298.763 228.321 297.36 228.032 296.181 227.454C295.003 226.875 294.092 226.114 293.449 225.171C292.828 224.229 292.495 223.221 292.453 222.15V222.086C292.453 221.914 292.517 221.775 292.645 221.668C292.774 221.561 292.924 221.507 293.095 221.507H294.831C295.281 221.507 295.57 221.743 295.699 222.214C295.999 223.35 296.578 224.196 297.435 224.754C298.292 225.311 299.278 225.589 300.392 225.589C301.828 225.589 303.017 225.161 303.96 224.304C304.924 223.425 305.406 222.214 305.406 220.671C305.406 219.279 304.924 218.154 303.96 217.296C303.017 216.439 301.828 216.011 300.392 216.011C299.62 216.011 298.999 216.118 298.528 216.332C298.056 216.525 297.585 216.804 297.113 217.168C296.856 217.361 296.631 217.511 296.438 217.618C296.267 217.704 296.074 217.746 295.86 217.746H294.188C293.995 217.746 293.824 217.682 293.674 217.554C293.524 217.404 293.46 217.232 293.481 217.039L294.51 206.304C294.531 206.046 294.606 205.854 294.735 205.725C294.885 205.575 295.078 205.5 295.313 205.5H306.531C306.745 205.5 306.917 205.575 307.045 205.725C307.195 205.854 307.27 206.025 307.27 206.239V207.493C307.27 207.707 307.195 207.889 307.045 208.039C306.917 208.168 306.745 208.232 306.531 208.232H297.274L296.663 214.564C297.82 213.836 299.213 213.471 300.842 213.471C302.256 213.471 303.553 213.761 304.731 214.339C305.931 214.918 306.874 215.754 307.56 216.846C308.267 217.939 308.62 219.225 308.62 220.704C308.62 222.289 308.267 223.661 307.56 224.818C306.874 225.954 305.91 226.821 304.667 227.421C303.424 228.021 301.999 228.321 300.392 228.321Z" fill="black"/>
<path d="M280.147 247.446C280.054 247.446 279.975 247.418 279.909 247.362C279.853 247.297 279.825 247.218 279.825 247.124V237.968C279.825 237.875 279.853 237.8 279.909 237.744C279.975 237.679 280.054 237.646 280.147 237.646H280.889C280.983 237.646 281.057 237.679 281.113 237.744C281.179 237.8 281.211 237.875 281.211 237.968V246.228H285.859C285.962 246.228 286.041 246.261 286.097 246.326C286.163 246.382 286.195 246.462 286.195 246.564V247.124C286.195 247.218 286.163 247.297 286.097 247.362C286.032 247.418 285.953 247.446 285.859 247.446H280.147ZM288.553 247.586C288.096 247.586 287.671 247.493 287.279 247.306C286.887 247.12 286.575 246.868 286.341 246.55C286.117 246.224 286.005 245.864 286.005 245.472C286.005 244.856 286.257 244.352 286.761 243.96C287.275 243.559 287.965 243.298 288.833 243.176L290.919 242.882V242.476C290.919 241.524 290.373 241.048 289.281 241.048C288.871 241.048 288.535 241.137 288.273 241.314C288.012 241.482 287.816 241.683 287.685 241.916C287.657 242 287.62 242.061 287.573 242.098C287.536 242.136 287.48 242.154 287.405 242.154H286.803C286.719 242.154 286.645 242.126 286.579 242.07C286.523 242.005 286.495 241.93 286.495 241.846C286.505 241.622 286.607 241.37 286.803 241.09C287.009 240.801 287.321 240.554 287.741 240.348C288.161 240.134 288.679 240.026 289.295 240.026C290.341 240.026 291.092 240.274 291.549 240.768C292.007 241.254 292.235 241.86 292.235 242.588V247.124C292.235 247.218 292.203 247.297 292.137 247.362C292.081 247.418 292.007 247.446 291.913 247.446H291.269C291.176 247.446 291.097 247.418 291.031 247.362C290.975 247.297 290.947 247.218 290.947 247.124V246.522C290.742 246.821 290.443 247.073 290.051 247.278C289.659 247.484 289.16 247.586 288.553 247.586ZM288.847 246.536C289.454 246.536 289.949 246.34 290.331 245.948C290.723 245.547 290.919 244.973 290.919 244.226V243.834L289.295 244.072C288.633 244.166 288.133 244.324 287.797 244.548C287.461 244.763 287.293 245.038 287.293 245.374C287.293 245.748 287.447 246.037 287.755 246.242C288.063 246.438 288.427 246.536 288.847 246.536ZM296.837 247.586C295.829 247.586 295.064 247.236 294.541 246.536V247.124C294.541 247.218 294.508 247.297 294.443 247.362C294.387 247.418 294.312 247.446 294.219 247.446H293.575C293.482 247.446 293.402 247.418 293.337 247.362C293.281 247.297 293.253 247.218 293.253 247.124V237.828C293.253 237.735 293.281 237.66 293.337 237.604C293.402 237.539 293.482 237.506 293.575 237.506H294.261C294.354 237.506 294.429 237.539 294.485 237.604C294.541 237.66 294.569 237.735 294.569 237.828V241.048C295.12 240.367 295.876 240.026 296.837 240.026C297.808 240.026 298.54 240.348 299.035 240.992C299.53 241.627 299.796 242.425 299.833 243.386C299.842 243.489 299.847 243.629 299.847 243.806C299.847 243.984 299.842 244.124 299.833 244.226C299.796 245.197 299.53 246 299.035 246.634C298.54 247.269 297.808 247.586 296.837 247.586ZM296.543 246.452C297.206 246.452 297.686 246.247 297.985 245.836C298.293 245.426 298.461 244.884 298.489 244.212C298.498 244.119 298.503 243.984 298.503 243.806C298.503 242.042 297.85 241.16 296.543 241.16C295.918 241.16 295.437 241.366 295.101 241.776C294.765 242.187 294.588 242.668 294.569 243.218L294.555 243.764L294.569 244.296C294.597 244.884 294.77 245.393 295.087 245.822C295.414 246.242 295.899 246.452 296.543 246.452ZM303.468 247.586C302.507 247.586 301.737 247.292 301.158 246.704C300.589 246.107 300.276 245.295 300.22 244.268L300.206 243.792L300.22 243.33C300.286 242.322 300.603 241.52 301.172 240.922C301.751 240.325 302.512 240.026 303.454 240.026C304.49 240.026 305.293 240.358 305.862 241.02C306.432 241.674 306.716 242.56 306.716 243.68V243.918C306.716 244.012 306.684 244.091 306.618 244.156C306.562 244.212 306.488 244.24 306.394 244.24H301.55V244.366C301.578 244.973 301.76 245.491 302.096 245.92C302.442 246.34 302.894 246.55 303.454 246.55C303.884 246.55 304.234 246.466 304.504 246.298C304.784 246.121 304.99 245.939 305.12 245.752C305.204 245.64 305.265 245.575 305.302 245.556C305.349 245.528 305.428 245.514 305.54 245.514H306.226C306.31 245.514 306.38 245.538 306.436 245.584C306.492 245.631 306.52 245.696 306.52 245.78C306.52 245.986 306.39 246.233 306.128 246.522C305.876 246.812 305.517 247.064 305.05 247.278C304.593 247.484 304.066 247.586 303.468 247.586ZM305.386 243.274V243.232C305.386 242.588 305.209 242.066 304.854 241.664C304.509 241.254 304.042 241.048 303.454 241.048C302.866 241.048 302.4 241.254 302.054 241.664C301.718 242.066 301.55 242.588 301.55 243.232V243.274H305.386ZM307.718 247.446C307.624 247.446 307.545 247.418 307.48 247.362C307.424 247.297 307.396 247.218 307.396 247.124V237.828C307.396 237.735 307.424 237.66 307.48 237.604C307.545 237.539 307.624 237.506 307.718 237.506H308.376C308.469 237.506 308.544 237.539 308.6 237.604C308.665 237.66 308.698 237.735 308.698 237.828V247.124C308.698 247.218 308.665 247.297 308.6 247.362C308.544 247.418 308.469 247.446 308.376 247.446H307.718Z" fill="black"/>
<path d="M448.984 227.321C447.27 227.321 445.781 226.979 444.516 226.293C443.252 225.586 442.288 224.643 441.624 223.464C440.959 222.286 440.627 221 440.627 219.607C440.627 218.471 440.852 217.4 441.302 216.393C441.774 215.364 442.299 214.454 442.877 213.661L448.984 205.143C449.006 205.121 449.07 205.046 449.177 204.918C449.263 204.789 449.381 204.693 449.531 204.629C449.681 204.543 449.852 204.5 450.045 204.5H451.749C451.941 204.5 452.091 204.575 452.199 204.725C452.327 204.854 452.391 205.014 452.391 205.207C452.391 205.357 452.349 205.496 452.263 205.625L447.57 212.182C448.041 212.032 448.652 211.957 449.402 211.957C450.945 211.979 452.306 212.332 453.484 213.018C454.684 213.704 455.606 214.625 456.249 215.782C456.913 216.939 457.245 218.204 457.245 219.575C457.245 220.946 456.913 222.232 456.249 223.432C455.606 224.611 454.652 225.554 453.388 226.261C452.145 226.968 450.677 227.321 448.984 227.321ZM448.952 224.589C449.874 224.589 450.72 224.396 451.491 224.011C452.284 223.625 452.906 223.057 453.356 222.307C453.827 221.536 454.063 220.625 454.063 219.575C454.063 218.546 453.827 217.657 453.356 216.907C452.906 216.157 452.284 215.589 451.491 215.204C450.72 214.818 449.874 214.625 448.952 214.625C448.052 214.625 447.206 214.818 446.413 215.204C445.641 215.589 445.02 216.157 444.549 216.907C444.077 217.657 443.841 218.546 443.841 219.575C443.841 220.625 444.077 221.536 444.549 222.307C445.02 223.057 445.641 223.625 446.413 224.011C447.184 224.396 448.031 224.589 448.952 224.589Z" fill="black"/>
<path d="M434.847 246.185C434.754 246.185 434.674 246.157 434.609 246.101C434.553 246.035 434.525 245.956 434.525 245.863V236.707C434.525 236.613 434.553 236.539 434.609 236.483C434.674 236.417 434.754 236.385 434.847 236.385H435.589C435.682 236.385 435.757 236.417 435.813 236.483C435.878 236.539 435.911 236.613 435.911 236.707V244.967H440.559C440.662 244.967 440.741 244.999 440.797 245.065C440.862 245.121 440.895 245.2 440.895 245.303V245.863C440.895 245.956 440.862 246.035 440.797 246.101C440.732 246.157 440.652 246.185 440.559 246.185H434.847ZM443.253 246.325C442.795 246.325 442.371 246.231 441.979 246.045C441.587 245.858 441.274 245.606 441.041 245.289C440.817 244.962 440.705 244.603 440.705 244.211C440.705 243.595 440.957 243.091 441.461 242.699C441.974 242.297 442.665 242.036 443.533 241.915L445.619 241.621V241.215C445.619 240.263 445.073 239.787 443.981 239.787C443.57 239.787 443.234 239.875 442.973 240.053C442.711 240.221 442.515 240.421 442.385 240.655C442.357 240.739 442.319 240.799 442.273 240.837C442.235 240.874 442.179 240.893 442.105 240.893H441.503C441.419 240.893 441.344 240.865 441.279 240.809C441.223 240.743 441.195 240.669 441.195 240.585C441.204 240.361 441.307 240.109 441.503 239.829C441.708 239.539 442.021 239.292 442.441 239.087C442.861 238.872 443.379 238.765 443.995 238.765C445.04 238.765 445.791 239.012 446.249 239.507C446.706 239.992 446.935 240.599 446.935 241.327V245.863C446.935 245.956 446.902 246.035 446.837 246.101C446.781 246.157 446.706 246.185 446.613 246.185H445.969C445.875 246.185 445.796 246.157 445.731 246.101C445.675 246.035 445.647 245.956 445.647 245.863V245.261C445.441 245.559 445.143 245.811 444.751 246.017C444.359 246.222 443.859 246.325 443.253 246.325ZM443.547 245.275C444.153 245.275 444.648 245.079 445.031 244.687C445.423 244.285 445.619 243.711 445.619 242.965V242.573L443.995 242.811C443.332 242.904 442.833 243.063 442.497 243.287C442.161 243.501 441.993 243.777 441.993 244.113C441.993 244.486 442.147 244.775 442.455 244.981C442.763 245.177 443.127 245.275 443.547 245.275ZM451.537 246.325C450.529 246.325 449.763 245.975 449.241 245.275V245.863C449.241 245.956 449.208 246.035 449.143 246.101C449.087 246.157 449.012 246.185 448.919 246.185H448.275C448.181 246.185 448.102 246.157 448.037 246.101C447.981 246.035 447.953 245.956 447.953 245.863V236.567C447.953 236.473 447.981 236.399 448.037 236.343C448.102 236.277 448.181 236.245 448.275 236.245H448.961C449.054 236.245 449.129 236.277 449.185 236.343C449.241 236.399 449.269 236.473 449.269 236.567V239.787C449.819 239.105 450.575 238.765 451.537 238.765C452.507 238.765 453.24 239.087 453.735 239.731C454.229 240.365 454.495 241.163 454.533 242.125C454.542 242.227 454.547 242.367 454.547 242.545C454.547 242.722 454.542 242.862 454.533 242.965C454.495 243.935 454.229 244.738 453.735 245.373C453.24 246.007 452.507 246.325 451.537 246.325ZM451.243 245.191C451.905 245.191 452.386 244.985 452.685 244.575C452.993 244.164 453.161 243.623 453.189 242.951C453.198 242.857 453.203 242.722 453.203 242.545C453.203 240.781 452.549 239.899 451.243 239.899C450.617 239.899 450.137 240.104 449.801 240.515C449.465 240.925 449.287 241.406 449.269 241.957L449.255 242.503L449.269 243.035C449.297 243.623 449.469 244.131 449.787 244.561C450.113 244.981 450.599 245.191 451.243 245.191ZM458.168 246.325C457.207 246.325 456.437 246.031 455.858 245.443C455.289 244.845 454.976 244.033 454.92 243.007L454.906 242.531L454.92 242.069C454.985 241.061 455.303 240.258 455.872 239.661C456.451 239.063 457.211 238.765 458.154 238.765C459.19 238.765 459.993 239.096 460.562 239.759C461.131 240.412 461.416 241.299 461.416 242.419V242.657C461.416 242.75 461.383 242.829 461.318 242.895C461.262 242.951 461.187 242.979 461.094 242.979H456.25V243.105C456.278 243.711 456.46 244.229 456.796 244.659C457.141 245.079 457.594 245.289 458.154 245.289C458.583 245.289 458.933 245.205 459.204 245.037C459.484 244.859 459.689 244.677 459.82 244.491C459.904 244.379 459.965 244.313 460.002 244.295C460.049 244.267 460.128 244.253 460.24 244.253H460.926C461.01 244.253 461.08 244.276 461.136 244.323C461.192 244.369 461.22 244.435 461.22 244.519C461.22 244.724 461.089 244.971 460.828 245.261C460.576 245.55 460.217 245.802 459.75 246.017C459.293 246.222 458.765 246.325 458.168 246.325ZM460.086 242.013V241.971C460.086 241.327 459.909 240.804 459.554 240.403C459.209 239.992 458.742 239.787 458.154 239.787C457.566 239.787 457.099 239.992 456.754 240.403C456.418 240.804 456.25 241.327 456.25 241.971V242.013H460.086ZM462.417 246.185C462.324 246.185 462.244 246.157 462.179 246.101C462.123 246.035 462.095 245.956 462.095 245.863V236.567C462.095 236.473 462.123 236.399 462.179 236.343C462.244 236.277 462.324 236.245 462.417 236.245H463.075C463.168 236.245 463.243 236.277 463.299 236.343C463.364 236.399 463.397 236.473 463.397 236.567V245.863C463.397 245.956 463.364 246.035 463.299 246.101C463.243 246.157 463.168 246.185 463.075 246.185H462.417Z" fill="black"/>
<g filter="url(#filter1_d)">
<path d="M241 171L277.984 143.724C287.72 136.544 301.51 139.189 307.898 149.462V149.462C313.74 158.859 325.932 162.012 335.597 156.626L375.154 134.584C385.94 128.574 399.56 132.995 404.76 144.194V144.194C410.178 155.862 424.642 160.074 435.478 153.139L531 92" stroke="black" stroke-width="1.67754"/>
</g>
<rect x="30" y="26" width="159" height="255" fill="#F9F9F9"/>
<path d="M114 230L112.59 231.41L117.17 236H101V238H117.17L112.58 242.59L114 244L121 237L114 230Z" fill="#323232"/>
<path d="M84.4131 198C84.2789 198 84.1648 197.96 84.0708 197.879C83.9903 197.785 83.9501 197.671 83.9501 197.537V192.786L79.0986 184.573C79.0986 184.546 79.0919 184.506 79.0785 184.452C79.0517 184.399 79.0382 184.352 79.0382 184.311C79.0382 184.204 79.0785 184.11 79.159 184.029C79.2395 183.949 79.3335 183.909 79.4408 183.909H80.4876C80.7158 183.909 80.8902 184.023 81.011 184.251L84.9365 190.773L88.8619 184.251C89.0095 184.023 89.1907 183.909 89.4054 183.909H90.4321C90.5528 183.909 90.6535 183.949 90.734 184.029C90.8145 184.11 90.8548 184.204 90.8548 184.311C90.8548 184.378 90.828 184.466 90.7743 184.573L85.943 192.786V197.537C85.943 197.671 85.896 197.785 85.8021 197.879C85.7081 197.96 85.5941 198 85.4598 198H84.4131ZM92.6471 198.201C91.9895 198.201 91.3789 198.067 90.8152 197.799C90.2516 197.53 89.802 197.168 89.4665 196.712C89.1444 196.242 88.9834 195.725 88.9834 195.162C88.9834 194.276 89.3457 193.551 90.0704 192.988C90.8085 192.41 91.8016 192.035 93.0497 191.86L96.0491 191.437V190.854C96.0491 189.485 95.2641 188.8 93.6939 188.8C93.1034 188.8 92.6203 188.928 92.2445 189.183C91.8687 189.424 91.5869 189.713 91.399 190.048C91.3588 190.169 91.3051 190.256 91.238 190.31C91.1843 190.364 91.1038 190.391 90.9964 190.391H90.1308C90.01 190.391 89.9027 190.35 89.8087 190.27C89.7282 190.176 89.6879 190.069 89.6879 189.948C89.7013 189.626 89.849 189.263 90.1308 188.861C90.426 188.445 90.8756 188.089 91.4795 187.794C92.0835 187.485 92.8283 187.331 93.714 187.331C95.2171 187.331 96.2974 187.687 96.955 188.398C97.6126 189.096 97.9414 189.968 97.9414 191.015V197.537C97.9414 197.671 97.8944 197.785 97.8005 197.879C97.72 197.96 97.6126 198 97.4784 198H96.5524C96.4182 198 96.3041 197.96 96.2102 197.879C96.1297 197.785 96.0894 197.671 96.0894 197.537V196.671C95.7942 197.101 95.3647 197.463 94.8011 197.758C94.2374 198.054 93.5194 198.201 92.6471 198.201ZM93.0698 196.692C93.9422 196.692 94.6534 196.41 95.2037 195.846C95.7673 195.269 96.0491 194.444 96.0491 193.37V192.806L93.714 193.149C92.7612 193.283 92.0432 193.511 91.5601 193.833C91.0769 194.142 90.8354 194.538 90.8354 195.021C90.8354 195.558 91.0568 195.974 91.4997 196.269C91.9425 196.551 92.4659 196.692 93.0698 196.692ZM99.3704 198C99.2362 198 99.1221 197.96 99.0282 197.879C98.9477 197.785 98.9074 197.671 98.9074 197.537V196.832C98.9074 196.725 98.9343 196.618 98.9879 196.51C99.055 196.39 99.1221 196.282 99.1892 196.188L104.745 189.122H99.5516C99.4174 189.122 99.3033 189.082 99.2094 189.002C99.1288 188.908 99.0886 188.794 99.0886 188.659V187.995C99.0886 187.861 99.1288 187.754 99.2094 187.673C99.3033 187.579 99.4174 187.532 99.5516 187.532H106.718C106.852 187.532 106.96 187.579 107.04 187.673C107.134 187.754 107.181 187.861 107.181 187.995V188.74C107.181 188.847 107.147 188.955 107.08 189.062C107.027 189.169 106.966 189.27 106.899 189.364L101.404 196.41H107.121C107.268 196.41 107.382 196.45 107.463 196.53C107.543 196.611 107.584 196.725 107.584 196.873V197.537C107.584 197.671 107.537 197.785 107.443 197.879C107.362 197.96 107.255 198 107.121 198H99.3704ZM111.469 198.201C110.812 198.201 110.201 198.067 109.637 197.799C109.074 197.53 108.624 197.168 108.289 196.712C107.966 196.242 107.805 195.725 107.805 195.162C107.805 194.276 108.168 193.551 108.892 192.988C109.631 192.41 110.624 192.035 111.872 191.86L114.871 191.437V190.854C114.871 189.485 114.086 188.8 112.516 188.8C111.925 188.8 111.442 188.928 111.067 189.183C110.691 189.424 110.409 189.713 110.221 190.048C110.181 190.169 110.127 190.256 110.06 190.31C110.006 190.364 109.926 190.391 109.818 190.391H108.953C108.832 190.391 108.725 190.35 108.631 190.27C108.55 190.176 108.51 190.069 108.51 189.948C108.523 189.626 108.671 189.263 108.953 188.861C109.248 188.445 109.698 188.089 110.302 187.794C110.906 187.485 111.65 187.331 112.536 187.331C114.039 187.331 115.119 187.687 115.777 188.398C116.435 189.096 116.763 189.968 116.763 191.015V197.537C116.763 197.671 116.717 197.785 116.623 197.879C116.542 197.96 116.435 198 116.3 198H115.374C115.24 198 115.126 197.96 115.032 197.879C114.952 197.785 114.911 197.671 114.911 197.537V196.671C114.616 197.101 114.187 197.463 113.623 197.758C113.059 198.054 112.341 198.201 111.469 198.201ZM111.892 196.692C112.764 196.692 113.476 196.41 114.026 195.846C114.589 195.269 114.871 194.444 114.871 193.37V192.806L112.536 193.149C111.583 193.283 110.865 193.511 110.382 193.833C109.899 194.142 109.657 194.538 109.657 195.021C109.657 195.558 109.879 195.974 110.322 196.269C110.765 196.551 111.288 196.692 111.892 196.692ZM118.857 198C118.723 198 118.609 197.96 118.515 197.879C118.434 197.785 118.394 197.671 118.394 197.537V188.015C118.394 187.881 118.434 187.767 118.515 187.673C118.609 187.579 118.723 187.532 118.857 187.532H119.783C119.917 187.532 120.031 187.579 120.125 187.673C120.219 187.767 120.266 187.881 120.266 188.015V188.901C120.816 187.988 121.756 187.532 123.084 187.532H123.869C124.003 187.532 124.111 187.579 124.191 187.673C124.285 187.754 124.332 187.861 124.332 187.995V188.821C124.332 188.955 124.285 189.062 124.191 189.143C124.111 189.223 124.003 189.263 123.869 189.263H122.661C121.937 189.263 121.366 189.478 120.95 189.908C120.534 190.324 120.326 190.894 120.326 191.619V197.537C120.326 197.671 120.279 197.785 120.185 197.879C120.091 197.96 119.977 198 119.843 198H118.857ZM125.261 198C125.126 198 125.012 197.96 124.918 197.879C124.838 197.785 124.798 197.671 124.798 197.537V184.17C124.798 184.036 124.838 183.929 124.918 183.848C125.012 183.754 125.126 183.707 125.261 183.707H126.207C126.341 183.707 126.448 183.754 126.529 183.848C126.623 183.929 126.67 184.036 126.67 184.17V197.537C126.67 197.671 126.623 197.785 126.529 197.879C126.448 197.96 126.341 198 126.207 198H125.261ZM131.328 198.201C130.67 198.201 130.059 198.067 129.496 197.799C128.932 197.53 128.483 197.168 128.147 196.712C127.825 196.242 127.664 195.725 127.664 195.162C127.664 194.276 128.026 193.551 128.751 192.988C129.489 192.41 130.482 192.035 131.73 191.86L134.73 191.437V190.854C134.73 189.485 133.945 188.8 132.374 188.8C131.784 188.8 131.301 188.928 130.925 189.183C130.549 189.424 130.268 189.713 130.08 190.048C130.039 190.169 129.986 190.256 129.919 190.31C129.865 190.364 129.784 190.391 129.677 190.391H128.811C128.691 190.391 128.583 190.35 128.489 190.27C128.409 190.176 128.369 190.069 128.369 189.948C128.382 189.626 128.53 189.263 128.811 188.861C129.107 188.445 129.556 188.089 130.16 187.794C130.764 187.485 131.509 187.331 132.395 187.331C133.898 187.331 134.978 187.687 135.636 188.398C136.293 189.096 136.622 189.968 136.622 191.015V197.537C136.622 197.671 136.575 197.785 136.481 197.879C136.401 197.96 136.293 198 136.159 198H135.233C135.099 198 134.985 197.96 134.891 197.879C134.81 197.785 134.77 197.671 134.77 197.537V196.671C134.475 197.101 134.045 197.463 133.482 197.758C132.918 198.054 132.2 198.201 131.328 198.201ZM131.75 196.692C132.623 196.692 133.334 196.41 133.884 195.846C134.448 195.269 134.73 194.444 134.73 193.37V192.806L132.395 193.149C131.442 193.283 130.724 193.511 130.241 193.833C129.758 194.142 129.516 194.538 129.516 195.021C129.516 195.558 129.737 195.974 130.18 196.269C130.623 196.551 131.147 196.692 131.75 196.692ZM138.715 198C138.581 198 138.467 197.96 138.373 197.879C138.293 197.785 138.252 197.671 138.252 197.537V188.015C138.252 187.881 138.293 187.767 138.373 187.673C138.467 187.579 138.581 187.532 138.715 187.532H139.641C139.776 187.532 139.89 187.579 139.984 187.673C140.077 187.767 140.124 187.881 140.124 188.015V188.901C140.675 187.988 141.614 187.532 142.943 187.532H143.728C143.862 187.532 143.969 187.579 144.05 187.673C144.144 187.754 144.191 187.861 144.191 187.995V188.821C144.191 188.955 144.144 189.062 144.05 189.143C143.969 189.223 143.862 189.263 143.728 189.263H142.52C141.795 189.263 141.225 189.478 140.809 189.908C140.393 190.324 140.185 190.894 140.185 191.619V197.537C140.185 197.671 140.138 197.785 140.044 197.879C139.95 197.96 139.836 198 139.702 198H138.715Z" fill="black"/>
<mask id="mask0" mask-type="alpha" maskUnits="userSpaceOnUse" x="63" y="64" width="96" height="96">
<rect x="63" y="64" width="96" height="96" fill="white"/>
</mask>
<g mask="url(#mask0)">
<rect opacity="0.02" x="63" y="64" width="96" height="96" fill="#3C64B1"/>
<g opacity="0.06">
<path d="M63 64L159 160" stroke="#3C64B1"/>
<path d="M66.75 60.25L162.75 156.25" stroke="#3C64B1"/>
<path d="M70.5 56.5L166.5 152.5" stroke="#3C64B1"/>
<path d="M74.25 52.75L170.25 148.75" stroke="#3C64B1"/>
<path d="M78 49L174 145" stroke="#3C64B1"/>
<path d="M81.75 45.25L177.75 141.25" stroke="#3C64B1"/>
<path d="M85.5 41.5L181.5 137.5" stroke="#3C64B1"/>
<path d="M89.25 37.75L185.25 133.75" stroke="#3C64B1"/>
<path d="M93 34L189 130" stroke="#3C64B1"/>
<path d="M96.75 30.25L192.75 126.25" stroke="#3C64B1"/>
<path d="M100.5 26.5L196.5 122.5" stroke="#3C64B1"/>
<path d="M104.25 22.75L200.25 118.75" stroke="#3C64B1"/>
<path d="M108 19L204 115" stroke="#3C64B1"/>
<path d="M59.25 67.75L155.25 163.75" stroke="#3C64B1"/>
<path d="M55.5 71.5L151.5 167.5" stroke="#3C64B1"/>
<path d="M51.75 75.25L147.75 171.25" stroke="#3C64B1"/>
<path d="M48 79L144 175" stroke="#3C64B1"/>
<path d="M44.25 82.75L140.25 178.75" stroke="#3C64B1"/>
<path d="M40.5 86.5L136.5 182.5" stroke="#3C64B1"/>
<path d="M36.75 90.25L132.75 186.25" stroke="#3C64B1"/>
<path d="M33 94L129 190" stroke="#3C64B1"/>
<path d="M29.25 97.75L125.25 193.75" stroke="#3C64B1"/>
<path d="M25.5 101.5L121.5 197.5" stroke="#3C64B1"/>
<path d="M21.75 105.25L117.75 201.25" stroke="#3C64B1"/>
<path d="M18 109L114 205" stroke="#3C64B1"/>
<path d="M14.25 112.75L110.25 208.75" stroke="#3C64B1"/>
</g>
<g opacity="0.06">
<path d="M64.875 62.125L160.875 158.125" stroke="#3C64B1"/>
<path d="M68.625 58.375L164.625 154.375" stroke="#3C64B1"/>
<path d="M72.375 54.625L168.375 150.625" stroke="#3C64B1"/>
<path d="M76.125 50.875L172.125 146.875" stroke="#3C64B1"/>
<path d="M79.875 47.125L175.875 143.125" stroke="#3C64B1"/>
<path d="M83.625 43.375L179.625 139.375" stroke="#3C64B1"/>
<path d="M87.375 39.625L183.375 135.625" stroke="#3C64B1"/>
<path d="M91.125 35.875L187.125 131.875" stroke="#3C64B1"/>
<path d="M94.875 32.125L190.875 128.125" stroke="#3C64B1"/>
<path d="M98.625 28.375L194.625 124.375" stroke="#3C64B1"/>
<path d="M102.375 24.625L198.375 120.625" stroke="#3C64B1"/>
<path d="M106.125 20.875L202.125 116.875" stroke="#3C64B1"/>
<path d="M109.875 17.125L205.875 113.125" stroke="#3C64B1"/>
<path d="M61.125 65.875L157.125 161.875" stroke="#3C64B1"/>
<path d="M57.375 69.625L153.375 165.625" stroke="#3C64B1"/>
<path d="M53.625 73.375L149.625 169.375" stroke="#3C64B1"/>
<path d="M49.875 77.125L145.875 173.125" stroke="#3C64B1"/>
<path d="M46.125 80.875L142.125 176.875" stroke="#3C64B1"/>
<path d="M42.375 84.625L138.375 180.625" stroke="#3C64B1"/>
<path d="M38.625 88.375L134.625 184.375" stroke="#3C64B1"/>
<path d="M34.875 92.125L130.875 188.125" stroke="#3C64B1"/>
<path d="M31.125 95.875L127.125 191.875" stroke="#3C64B1"/>
<path d="M27.375 99.625L123.375 195.625" stroke="#3C64B1"/>
<path d="M23.625 103.375L119.625 199.375" stroke="#3C64B1"/>
<path d="M19.875 107.125L115.875 203.125" stroke="#3C64B1"/>
<path d="M16.125 110.875L112.125 206.875" stroke="#3C64B1"/>
</g>
</g>
<g opacity="0.5">
<path d="M122.667 97H99.3333C97.4924 97 96 98.4924 96 100.333V123.667C96 125.508 97.4924 127 99.3333 127H122.667C124.508 127 126 125.508 126 123.667V100.333C126 98.4924 124.508 97 122.667 97Z" stroke="#3C64B1" stroke-width="1.5" stroke-linecap="round" stroke-linejoin="round"/>
<path d="M105.167 108.667C106.547 108.667 107.667 107.547 107.667 106.167C107.667 104.786 106.547 103.667 105.167 103.667C103.786 103.667 102.667 104.786 102.667 106.167C102.667 107.547 103.786 108.667 105.167 108.667Z" stroke="#3C64B1" stroke-width="1.5" stroke-linecap="round" stroke-linejoin="round"/>
<path d="M126 117L117.667 108.667L99.3333 127" stroke="#3C64B1" stroke-width="1.5" stroke-linecap="round" stroke-linejoin="round"/>
</g>
<path d="M550.14 52.94C550.18 52.64 550.2 52.33 550.2 52C550.2 51.68 550.18 51.36 550.13 51.06L552.16 49.48C552.34 49.34 552.39 49.07 552.28 48.87L550.36 45.55C550.24 45.33 549.99 45.26 549.77 45.33L547.38 46.29C546.88 45.91 546.35 45.59 545.76 45.35L545.4 42.81C545.36 42.57 545.16 42.4 544.92 42.4H541.08C540.84 42.4 540.65 42.57 540.61 42.81L540.25 45.35C539.66 45.59 539.12 45.92 538.63 46.29L536.24 45.33C536.02 45.25 535.77 45.33 535.65 45.55L533.74 48.87C533.62 49.08 533.66 49.34 533.86 49.48L535.89 51.06C535.84 51.36 535.8 51.69 535.8 52C535.8 52.31 535.82 52.64 535.87 52.94L533.84 54.52C533.66 54.66 533.61 54.93 533.72 55.13L535.64 58.45C535.76 58.67 536.01 58.74 536.23 58.67L538.62 57.71C539.12 58.09 539.65 58.41 540.24 58.65L540.6 61.19C540.65 61.43 540.84 61.6 541.08 61.6H544.92C545.16 61.6 545.36 61.43 545.39 61.19L545.75 58.65C546.34 58.41 546.88 58.09 547.37 57.71L549.76 58.67C549.98 58.75 550.23 58.67 550.35 58.45L552.27 55.13C552.39 54.91 552.34 54.66 552.15 54.52L550.14 52.94ZM543 55.6C541.02 55.6 539.4 53.98 539.4 52C539.4 50.02 541.02 48.4 543 48.4C544.98 48.4 546.6 50.02 546.6 52C546.6 53.98 544.98 55.6 543 55.6Z" fill="#CCCCCC"/>
</g>
</g>
<defs>
<filter id="filter0_d" x="0" y="0" width="597" height="312" filterUnits="userSpaceOnUse" color-interpolation-filters="sRGB">
<feFlood flood-opacity="0" result="BackgroundImageFix"/>
<feColorMatrix in="SourceAlpha" type="matrix" values="0 0 0 0 0 0 0 0 0 0 0 0 0 0 0 0 0 0 127 0" result="hardAlpha"/>
<feOffset dy="4"/>
<feGaussianBlur stdDeviation="15"/>
<feColorMatrix type="matrix" values="0 0 0 0 0 0 0 0 0 0 0 0 0 0 0 0 0 0 0.1 0"/>
<feBlend mode="normal" in2="BackgroundImageFix" result="effect1_dropShadow"/>
<feBlend mode="normal" in="SourceGraphic" in2="effect1_dropShadow" result="shape"/>
</filter>
<filter id="filter1_d" x="232.502" y="91.2935" width="306.95" height="102.382" filterUnits="userSpaceOnUse" color-interpolation-filters="sRGB">
<feFlood flood-opacity="0" result="BackgroundImageFix"/>
<feColorMatrix in="SourceAlpha" type="matrix" values="0 0 0 0 0 0 0 0 0 0 0 0 0 0 0 0 0 0 127 0" result="hardAlpha"/>
<feOffset dy="14"/>
<feGaussianBlur stdDeviation="4"/>
<feColorMatrix type="matrix" values="0 0 0 0 0 0 0 0 0 0 0 0 0 0 0 0 0 0 0.25 0"/>
<feBlend mode="normal" in2="BackgroundImageFix" result="effect1_dropShadow"/>
<feBlend mode="normal" in="SourceGraphic" in2="effect1_dropShadow" result="shape"/>
</filter>
<clipPath id="clip0">
<path d="M30 39.4203C30 32.0085 36.0085 26 43.4203 26H553.58C560.992 26 567 32.0085 567 39.4203V264.58C567 271.992 560.992 278 553.58 278H43.4203C36.0085 278 30 271.992 30 264.58V39.4203Z" fill="white"/>
</clipPath>
</defs>
</svg>
