<svg width="591" height="309" viewBox="0 0 591 309" fill="none" xmlns="http://www.w3.org/2000/svg">
<g filter="url(#filter0_d)">
<rect x="30" y="26" width="531" height="249" rx="13.2754" fill="white"/>
<path d="M276.19 72C276.058 72 275.945 71.9602 275.852 71.8805C275.772 71.7876 275.732 71.6748 275.732 71.542V58.5189C275.732 58.3861 275.772 58.2799 275.852 58.2003C275.945 58.1073 276.058 58.0609 276.19 58.0609H277.246C277.379 58.0609 277.485 58.1073 277.564 58.2003C277.657 58.2799 277.704 58.3861 277.704 58.5189V71.542C277.704 71.6748 277.657 71.7876 277.564 71.8805C277.485 71.9602 277.379 72 277.246 72H276.19ZM276.071 57.0652C275.938 57.0652 275.832 57.0254 275.752 56.9457C275.673 56.8661 275.633 56.7599 275.633 56.6271V55.3328C275.633 55.2 275.673 55.0938 275.752 55.0142C275.832 54.9212 275.938 54.8748 276.071 54.8748H277.365C277.498 54.8748 277.604 54.9212 277.684 55.0142C277.777 55.0938 277.823 55.2 277.823 55.3328V56.6271C277.823 56.7599 277.777 56.8661 277.684 56.9457C277.604 57.0254 277.498 57.0652 277.365 57.0652H276.071ZM283.85 76.3809C283.399 76.3809 282.994 76.2879 282.636 76.1021C282.29 75.9162 282.118 75.7304 282.118 75.5445C282.118 75.4781 282.144 75.4184 282.198 75.3653L282.496 75.0865C282.563 75.0201 282.629 74.987 282.695 74.987C282.748 74.987 282.881 75.0533 283.094 75.1861C283.293 75.3188 283.532 75.3852 283.81 75.3852C284.036 75.3852 284.222 75.3188 284.368 75.1861C284.527 75.0533 284.607 74.8741 284.607 74.6484C284.607 74.4493 284.527 74.2834 284.368 74.1506C284.222 74.0179 284.036 73.9515 283.81 73.9515C283.651 73.9515 283.479 73.9847 283.293 74.051C283.107 74.1041 282.981 74.1307 282.914 74.1307C282.795 74.1307 282.702 74.0909 282.636 74.0112L282.297 73.6528C282.257 73.5997 282.237 73.5466 282.237 73.4935C282.237 73.4271 282.257 73.3474 282.297 73.2545C282.337 73.1616 282.363 73.0952 282.377 73.0554L282.775 72.0996C281.686 71.927 280.83 71.4491 280.206 70.6658C279.596 69.8826 279.27 68.867 279.23 67.6191L279.211 66.8226L279.23 66.0261C279.284 64.5791 279.708 63.4573 280.505 62.6608C281.315 61.851 282.43 61.4461 283.85 61.4461C284.806 61.4461 285.616 61.6187 286.28 61.9638C286.943 62.309 287.435 62.7338 287.753 63.2383C288.085 63.7427 288.264 64.2472 288.291 64.7517C288.304 64.8844 288.264 64.9906 288.171 65.0703C288.079 65.1499 287.966 65.1897 287.833 65.1897H286.877C286.744 65.1897 286.645 65.1632 286.578 65.1101C286.512 65.057 286.446 64.9508 286.379 64.7915C286.154 64.1543 285.835 63.7029 285.423 63.4374C285.012 63.1586 284.494 63.0192 283.87 63.0192C283.047 63.0192 282.39 63.2781 281.899 63.7958C281.421 64.3003 281.162 65.0769 281.122 66.1257L281.102 66.8425L281.122 67.5196C281.162 68.5816 281.421 69.3648 281.899 69.8693C282.377 70.3738 283.034 70.626 283.87 70.626C284.494 70.626 285.012 70.4932 285.423 70.2277C285.835 69.949 286.154 69.491 286.379 68.8537C286.446 68.6944 286.512 68.5882 286.578 68.5351C286.645 68.4688 286.744 68.4356 286.877 68.4356H287.833C287.966 68.4356 288.079 68.482 288.171 68.575C288.264 68.6546 288.304 68.7608 288.291 68.8936C288.264 69.3848 288.085 69.8826 287.753 70.387C287.435 70.8915 286.943 71.323 286.28 71.6814C285.629 72.0266 284.826 72.1991 283.87 72.1991L283.432 73.1151C283.605 73.0089 283.85 72.9558 284.169 72.9558C284.62 72.9558 284.985 73.1085 285.264 73.4138C285.556 73.7324 285.702 74.1373 285.702 74.6285C285.702 75.133 285.536 75.5512 285.204 75.883C284.886 76.2149 284.434 76.3809 283.85 76.3809ZM293.548 72.1991C292.18 72.1991 291.085 71.781 290.262 70.9446C289.452 70.095 289.008 68.94 288.928 67.4797L288.908 66.8027L288.928 66.1456C289.021 64.7118 289.472 63.5701 290.282 62.7205C291.105 61.8709 292.187 61.4461 293.528 61.4461C295.001 61.4461 296.143 61.9174 296.953 62.8599C297.763 63.7892 298.168 65.0503 298.168 66.6434V66.9819C298.168 67.1147 298.121 67.2275 298.028 67.3204C297.949 67.4001 297.842 67.4399 297.71 67.4399H290.82V67.6191C290.859 68.482 291.118 69.2188 291.596 69.8295C292.087 70.4269 292.731 70.7256 293.528 70.7256C294.138 70.7256 294.636 70.6061 295.021 70.3671C295.42 70.1149 295.712 69.856 295.897 69.5905C296.017 69.4312 296.103 69.3383 296.156 69.3117C296.223 69.2719 296.336 69.252 296.495 69.252H297.471C297.59 69.252 297.69 69.2852 297.769 69.3516C297.849 69.4179 297.889 69.5109 297.889 69.6303C297.889 69.9224 297.703 70.2742 297.331 70.6857C296.973 71.0973 296.462 71.4557 295.798 71.761C295.147 72.0531 294.397 72.1991 293.548 72.1991ZM296.276 66.0659V66.0062C296.276 65.0902 296.024 64.3468 295.519 63.7759C295.028 63.1918 294.364 62.8997 293.528 62.8997C292.691 62.8997 292.028 63.1918 291.537 63.7759C291.059 64.3468 290.82 65.0902 290.82 66.0062V66.0659H296.276ZM299.757 72C299.624 72 299.511 71.9602 299.418 71.8805C299.338 71.7876 299.299 71.6748 299.299 71.542V62.1231C299.299 61.9904 299.338 61.8775 299.418 61.7846C299.511 61.6917 299.624 61.6452 299.757 61.6452H300.673C300.805 61.6452 300.918 61.6917 301.011 61.7846C301.104 61.8775 301.151 61.9904 301.151 62.1231V62.9993C301.695 62.0966 302.624 61.6452 303.938 61.6452H304.715C304.848 61.6452 304.954 61.6917 305.034 61.7846C305.126 61.8643 305.173 61.9705 305.173 62.1032V62.9197C305.173 63.0524 305.126 63.1586 305.034 63.2383C304.954 63.3179 304.848 63.3577 304.715 63.3577H303.52C302.803 63.3577 302.239 63.5701 301.828 63.995C301.416 64.4065 301.21 64.9707 301.21 65.6876V71.542C301.21 71.6748 301.164 71.7876 301.071 71.8805C300.978 71.9602 300.865 72 300.732 72H299.757ZM305.912 59.7137C305.779 59.7137 305.666 59.6738 305.573 59.5942C305.494 59.5012 305.454 59.3884 305.454 59.2557V58.1803C305.454 58.0476 305.494 57.9348 305.573 57.8418C305.666 57.7489 305.779 57.7024 305.912 57.7024H307.166C307.299 57.7024 307.412 57.7489 307.505 57.8418C307.598 57.9348 307.644 58.0476 307.644 58.1803V59.2557C307.644 59.3884 307.598 59.5012 307.505 59.5942C307.412 59.6738 307.299 59.7137 307.166 59.7137H305.912ZM306.071 72C305.939 72 305.826 71.9602 305.733 71.8805C305.653 71.7876 305.613 71.6748 305.613 71.542V62.1032C305.613 61.9705 305.653 61.8643 305.733 61.7846C305.826 61.6917 305.939 61.6452 306.071 61.6452H307.027C307.16 61.6452 307.266 61.6917 307.346 61.7846C307.439 61.8643 307.485 61.9705 307.485 62.1032V71.542C307.485 71.6748 307.439 71.7876 307.346 71.8805C307.266 71.9602 307.16 72 307.027 72H306.071ZM309.664 72C309.531 72 309.418 71.9602 309.325 71.8805C309.246 71.7876 309.206 71.6748 309.206 71.542V58.3197C309.206 58.187 309.246 58.0808 309.325 58.0011C309.418 57.9082 309.531 57.8617 309.664 57.8617H310.6C310.733 57.8617 310.839 57.9082 310.918 58.0011C311.011 58.0808 311.058 58.187 311.058 58.3197V65.2495L314.981 61.9837C315.021 61.9572 315.087 61.9041 315.18 61.8244C315.273 61.7581 315.359 61.7116 315.439 61.685C315.532 61.6585 315.644 61.6452 315.777 61.6452H316.833C316.952 61.6452 317.052 61.685 317.131 61.7647C317.211 61.8443 317.251 61.9439 317.251 62.0634C317.251 62.2094 317.171 62.3355 317.012 62.4417L312.412 66.265L317.51 71.2234C317.669 71.3561 317.749 71.4756 317.749 71.5818C317.749 71.7013 317.709 71.8009 317.629 71.8805C317.549 71.9602 317.45 72 317.33 72H316.295C316.096 72 315.95 71.9801 315.857 71.9403C315.777 71.9004 315.658 71.8075 315.498 71.6615L311.058 67.42V71.542C311.058 71.6748 311.011 71.7876 310.918 71.8805C310.839 71.9602 310.733 72 310.6 72H309.664Z" fill="black"/>
<path d="M150.588 224.398C148.571 224.398 146.832 224.04 145.371 223.323C143.911 222.606 142.783 221.664 141.986 220.495C141.216 219.327 140.805 218.079 140.751 216.752V216.672C140.751 216.46 140.831 216.287 140.99 216.154C141.15 216.022 141.336 215.955 141.548 215.955H143.699C144.256 215.955 144.615 216.247 144.774 216.831C145.146 218.238 145.862 219.287 146.924 219.978C147.986 220.668 149.208 221.013 150.588 221.013C152.367 221.013 153.841 220.482 155.009 219.42C156.204 218.331 156.801 216.831 156.801 214.92C156.801 213.194 156.204 211.8 155.009 210.738C153.841 209.676 152.367 209.145 150.588 209.145C149.633 209.145 148.863 209.278 148.279 209.543C147.694 209.782 147.11 210.127 146.526 210.579C146.208 210.818 145.929 211.003 145.69 211.136C145.477 211.242 145.238 211.295 144.973 211.295H142.902C142.663 211.295 142.451 211.216 142.265 211.057C142.079 210.871 141.999 210.658 142.026 210.419L143.3 197.117C143.327 196.799 143.42 196.56 143.579 196.401C143.765 196.215 144.004 196.122 144.296 196.122H158.195C158.461 196.122 158.673 196.215 158.832 196.401C159.018 196.56 159.111 196.772 159.111 197.038V198.591C159.111 198.856 159.018 199.082 158.832 199.268C158.673 199.427 158.461 199.507 158.195 199.507H146.725L145.969 207.353C147.402 206.45 149.128 205.999 151.146 205.999C152.898 205.999 154.505 206.357 155.965 207.074C157.452 207.791 158.62 208.826 159.47 210.18C160.346 211.534 160.784 213.127 160.784 214.959C160.784 216.924 160.346 218.623 159.47 220.057C158.62 221.464 157.425 222.54 155.885 223.283C154.345 224.027 152.58 224.398 150.588 224.398Z" fill="black"/>
<path d="M117.157 249.529C117.025 249.529 116.912 249.489 116.819 249.41C116.739 249.317 116.699 249.204 116.699 249.071V244.372L111.9 236.247C111.9 236.22 111.894 236.181 111.881 236.128C111.854 236.074 111.841 236.028 111.841 235.988C111.841 235.882 111.881 235.789 111.96 235.709C112.04 235.63 112.133 235.59 112.239 235.59H113.274C113.5 235.59 113.673 235.703 113.792 235.928L117.675 242.38L121.558 235.928C121.704 235.703 121.883 235.59 122.096 235.59H123.111C123.231 235.59 123.331 235.63 123.41 235.709C123.49 235.789 123.53 235.882 123.53 235.988C123.53 236.054 123.503 236.141 123.45 236.247L118.671 244.372V249.071C118.671 249.204 118.624 249.317 118.531 249.41C118.439 249.489 118.326 249.529 118.193 249.529H117.157ZM126.829 249.728C125.462 249.728 124.367 249.31 123.544 248.474C122.734 247.624 122.289 246.469 122.21 245.009L122.19 244.332L122.21 243.675C122.302 242.241 122.754 241.099 123.564 240.25C124.387 239.4 125.469 238.975 126.809 238.975C128.283 238.975 129.425 239.446 130.234 240.389C131.044 241.318 131.449 242.579 131.449 244.172V244.511C131.449 244.644 131.403 244.756 131.31 244.849C131.23 244.929 131.124 244.969 130.991 244.969H124.101V245.148C124.141 246.011 124.4 246.748 124.878 247.358C125.369 247.956 126.013 248.255 126.809 248.255C127.42 248.255 127.918 248.135 128.303 247.896C128.701 247.644 128.993 247.385 129.179 247.12C129.299 246.96 129.385 246.867 129.438 246.841C129.504 246.801 129.617 246.781 129.776 246.781H130.752C130.872 246.781 130.971 246.814 131.051 246.881C131.131 246.947 131.17 247.04 131.17 247.159C131.17 247.451 130.985 247.803 130.613 248.215C130.254 248.626 129.743 248.985 129.08 249.29C128.429 249.582 127.679 249.728 126.829 249.728ZM129.557 243.595V243.535C129.557 242.619 129.305 241.876 128.801 241.305C128.31 240.721 127.646 240.429 126.809 240.429C125.973 240.429 125.309 240.721 124.818 241.305C124.34 241.876 124.101 242.619 124.101 243.535V243.595H129.557ZM133.038 249.529C132.905 249.529 132.793 249.489 132.7 249.41C132.62 249.317 132.58 249.204 132.58 249.071V239.632C132.58 239.499 132.62 239.393 132.7 239.314C132.793 239.221 132.905 239.174 133.038 239.174H133.974C134.107 239.174 134.213 239.221 134.293 239.314C134.386 239.393 134.432 239.499 134.432 239.632V240.508C134.817 240.017 135.268 239.639 135.786 239.373C136.317 239.108 136.974 238.975 137.758 238.975C139.032 238.975 140.021 239.387 140.725 240.21C141.442 241.019 141.8 242.101 141.8 243.456V249.071C141.8 249.204 141.754 249.317 141.661 249.41C141.581 249.489 141.475 249.529 141.342 249.529H140.346C140.214 249.529 140.101 249.489 140.008 249.41C139.928 249.317 139.888 249.204 139.888 249.071V243.555C139.888 242.613 139.656 241.882 139.191 241.365C138.74 240.847 138.083 240.588 137.22 240.588C136.384 240.588 135.72 240.854 135.229 241.385C134.737 241.902 134.492 242.626 134.492 243.555V249.071C134.492 249.204 134.445 249.317 134.352 249.41C134.273 249.489 134.167 249.529 134.034 249.529H133.038ZM143.705 237.243C143.572 237.243 143.46 237.203 143.367 237.123C143.287 237.03 143.247 236.917 143.247 236.785V235.709C143.247 235.577 143.287 235.464 143.367 235.371C143.46 235.278 143.572 235.231 143.705 235.231H144.96C145.092 235.231 145.205 235.278 145.298 235.371C145.391 235.464 145.438 235.577 145.438 235.709V236.785C145.438 236.917 145.391 237.03 145.298 237.123C145.205 237.203 145.092 237.243 144.96 237.243H143.705ZM143.864 249.529C143.732 249.529 143.619 249.489 143.526 249.41C143.446 249.317 143.406 249.204 143.406 249.071V239.632C143.406 239.499 143.446 239.393 143.526 239.314C143.619 239.221 143.732 239.174 143.864 239.174H144.82C144.953 239.174 145.059 239.221 145.139 239.314C145.232 239.393 145.278 239.499 145.278 239.632V249.071C145.278 249.204 145.232 249.317 145.139 249.41C145.059 249.489 144.953 249.529 144.82 249.529H143.864ZM154.225 249.529C152.127 249.529 151.079 248.361 151.079 246.024V240.767H149.525C149.393 240.767 149.28 240.727 149.187 240.648C149.107 240.555 149.067 240.442 149.067 240.309V239.632C149.067 239.499 149.107 239.393 149.187 239.314C149.28 239.221 149.393 239.174 149.525 239.174H151.079V235.849C151.079 235.716 151.118 235.61 151.198 235.53C151.291 235.437 151.404 235.391 151.537 235.391H152.472C152.605 235.391 152.711 235.437 152.791 235.53C152.884 235.61 152.93 235.716 152.93 235.849V239.174H155.4C155.532 239.174 155.639 239.221 155.718 239.314C155.811 239.393 155.858 239.499 155.858 239.632V240.309C155.858 240.442 155.811 240.555 155.718 240.648C155.639 240.727 155.532 240.767 155.4 240.767H152.93V245.885C152.93 246.549 153.043 247.053 153.269 247.398C153.495 247.73 153.866 247.896 154.384 247.896H155.599C155.732 247.896 155.838 247.943 155.917 248.036C156.01 248.115 156.057 248.221 156.057 248.354V249.071C156.057 249.204 156.01 249.317 155.917 249.41C155.838 249.489 155.732 249.529 155.599 249.529H154.225ZM159.598 249.728C158.948 249.728 158.344 249.595 157.786 249.33C157.229 249.064 156.784 248.706 156.452 248.255C156.134 247.79 155.974 247.279 155.974 246.721C155.974 245.845 156.333 245.128 157.05 244.571C157.78 244 158.762 243.628 159.997 243.456L162.964 243.037V242.46C162.964 241.106 162.187 240.429 160.634 240.429C160.05 240.429 159.572 240.555 159.2 240.807C158.828 241.046 158.55 241.331 158.364 241.663C158.324 241.783 158.271 241.869 158.205 241.922C158.151 241.975 158.072 242.002 157.966 242.002H157.109C156.99 242.002 156.884 241.962 156.791 241.882C156.711 241.789 156.671 241.683 156.671 241.564C156.684 241.245 156.831 240.887 157.109 240.488C157.401 240.077 157.846 239.725 158.443 239.433C159.041 239.128 159.778 238.975 160.654 238.975C162.141 238.975 163.209 239.327 163.86 240.03C164.51 240.721 164.836 241.584 164.836 242.619V249.071C164.836 249.204 164.789 249.317 164.696 249.41C164.617 249.489 164.51 249.529 164.378 249.529H163.462C163.329 249.529 163.216 249.489 163.123 249.41C163.043 249.317 163.004 249.204 163.004 249.071V248.215C162.711 248.64 162.287 248.998 161.729 249.29C161.172 249.582 160.461 249.728 159.598 249.728ZM160.017 248.235C160.879 248.235 161.583 247.956 162.127 247.398C162.685 246.827 162.964 246.011 162.964 244.949V244.391L160.654 244.73C159.711 244.863 159.001 245.088 158.523 245.407C158.045 245.712 157.806 246.104 157.806 246.582C157.806 247.113 158.025 247.524 158.463 247.816C158.901 248.095 159.419 248.235 160.017 248.235ZM166.926 249.529C166.793 249.529 166.681 249.489 166.588 249.41C166.508 249.317 166.468 249.204 166.468 249.071V235.849C166.468 235.716 166.508 235.61 166.588 235.53C166.681 235.437 166.793 235.391 166.926 235.391H167.862C167.995 235.391 168.101 235.437 168.181 235.53C168.274 235.61 168.32 235.716 168.32 235.849V249.071C168.32 249.204 168.274 249.317 168.181 249.41C168.101 249.489 167.995 249.529 167.862 249.529H166.926ZM174.182 249.728C172.815 249.728 171.72 249.31 170.897 248.474C170.087 247.624 169.642 246.469 169.563 245.009L169.543 244.332L169.563 243.675C169.655 242.241 170.107 241.099 170.917 240.25C171.74 239.4 172.822 238.975 174.162 238.975C175.636 238.975 176.778 239.446 177.587 240.389C178.397 241.318 178.802 242.579 178.802 244.172V244.511C178.802 244.644 178.756 244.756 178.663 244.849C178.583 244.929 178.477 244.969 178.344 244.969H171.454V245.148C171.494 246.011 171.753 246.748 172.231 247.358C172.722 247.956 173.366 248.255 174.162 248.255C174.773 248.255 175.271 248.135 175.656 247.896C176.054 247.644 176.346 247.385 176.532 247.12C176.652 246.96 176.738 246.867 176.791 246.841C176.857 246.801 176.97 246.781 177.129 246.781H178.105C178.225 246.781 178.324 246.814 178.404 246.881C178.484 246.947 178.523 247.04 178.523 247.159C178.523 247.451 178.338 247.803 177.966 248.215C177.607 248.626 177.096 248.985 176.433 249.29C175.782 249.582 175.032 249.728 174.182 249.728ZM176.91 243.595V243.535C176.91 242.619 176.658 241.876 176.154 241.305C175.663 240.721 174.999 240.429 174.162 240.429C173.326 240.429 172.662 240.721 172.171 241.305C171.693 241.876 171.454 242.619 171.454 243.535V243.595H176.91ZM180.411 253.312C180.278 253.312 180.166 253.266 180.073 253.173C179.993 253.093 179.953 252.987 179.953 252.854V239.632C179.953 239.499 179.993 239.393 180.073 239.314C180.166 239.221 180.278 239.174 180.411 239.174H181.327C181.46 239.174 181.566 239.221 181.646 239.314C181.739 239.393 181.785 239.499 181.785 239.632V240.508C182.529 239.486 183.617 238.975 185.051 238.975C186.445 238.975 187.487 239.413 188.177 240.289C188.881 241.166 189.259 242.294 189.312 243.675C189.326 243.821 189.332 244.046 189.332 244.352C189.332 244.657 189.326 244.883 189.312 245.029C189.259 246.396 188.881 247.524 188.177 248.414C187.474 249.29 186.432 249.728 185.051 249.728C183.67 249.728 182.595 249.23 181.825 248.235V252.854C181.825 252.987 181.785 253.093 181.705 253.173C181.626 253.266 181.52 253.312 181.387 253.312H180.411ZM184.633 248.115C185.575 248.115 186.259 247.823 186.684 247.239C187.122 246.655 187.361 245.885 187.401 244.929C187.414 244.796 187.421 244.604 187.421 244.352C187.421 241.843 186.491 240.588 184.633 240.588C183.717 240.588 183.026 240.893 182.562 241.504C182.11 242.101 181.865 242.818 181.825 243.655L181.805 244.411L181.825 245.188C181.852 245.971 182.104 246.655 182.582 247.239C183.06 247.823 183.743 248.115 184.633 248.115Z" fill="black"/>
<path d="M276.956 224C276.69 224 276.465 223.92 276.279 223.761C276.119 223.575 276.04 223.35 276.04 223.084V200.781L269.429 205.879C269.243 206.038 269.044 206.118 268.831 206.118C268.592 206.118 268.367 205.985 268.154 205.72L267.119 204.406C266.986 204.22 266.92 204.034 266.92 203.848C266.92 203.529 267.052 203.277 267.318 203.091L276 196.401C276.292 196.215 276.637 196.122 277.035 196.122H279.066C279.332 196.122 279.544 196.215 279.704 196.401C279.89 196.56 279.982 196.772 279.982 197.038V223.084C279.982 223.35 279.89 223.575 279.704 223.761C279.544 223.92 279.332 224 279.066 224H276.956ZM284.616 224C284.351 224 284.125 223.92 283.939 223.761C283.78 223.575 283.7 223.35 283.7 223.084V221.81C283.7 221.199 284.032 220.615 284.696 220.057L293.139 211.614C295.183 209.915 296.591 208.534 297.361 207.472C298.131 206.384 298.516 205.242 298.516 204.047C298.516 202.507 298.077 201.299 297.201 200.423C296.352 199.547 295.104 199.109 293.458 199.109C291.918 199.109 290.683 199.573 289.754 200.503C288.825 201.405 288.254 202.613 288.041 204.127C287.988 204.445 287.855 204.684 287.643 204.844C287.457 204.976 287.245 205.043 287.006 205.043H284.935C284.696 205.043 284.497 204.976 284.337 204.844C284.178 204.684 284.098 204.498 284.098 204.286C284.152 202.852 284.537 201.485 285.253 200.184C285.97 198.856 287.019 197.781 288.4 196.958C289.807 196.108 291.493 195.684 293.458 195.684C296.458 195.684 298.715 196.467 300.228 198.033C301.768 199.573 302.538 201.538 302.538 203.928C302.538 205.6 302.113 207.114 301.264 208.468C300.44 209.795 299.153 211.229 297.4 212.769L289.754 220.535H302.18C302.472 220.535 302.697 220.628 302.857 220.814C303.042 220.973 303.135 221.186 303.135 221.451V223.084C303.135 223.35 303.042 223.575 302.857 223.761C302.671 223.92 302.445 224 302.18 224H284.616Z" fill="black"/>
<path d="M235.895 249.529C235.762 249.529 235.649 249.489 235.556 249.41C235.477 249.317 235.437 249.204 235.437 249.071V236.068C235.437 235.922 235.477 235.809 235.556 235.729C235.649 235.636 235.762 235.59 235.895 235.59H240.415C242.42 235.59 243.867 236.041 244.756 236.944C245.646 237.833 246.11 239.181 246.15 240.986C246.163 241.371 246.17 241.889 246.17 242.54C246.17 243.19 246.163 243.714 246.15 244.113C246.11 245.374 245.898 246.403 245.513 247.199C245.141 247.982 244.55 248.567 243.741 248.952C242.931 249.336 241.855 249.529 240.515 249.529H235.895ZM240.415 247.836C241.331 247.836 242.055 247.71 242.586 247.458C243.13 247.206 243.521 246.808 243.76 246.263C244.013 245.706 244.152 244.962 244.179 244.033C244.205 243.236 244.218 242.739 244.218 242.54C244.218 242.327 244.205 241.836 244.179 241.066C244.152 239.752 243.84 238.796 243.243 238.198C242.645 237.588 241.67 237.282 240.315 237.282H237.388V247.836H240.415ZM251.799 249.728C250.432 249.728 249.336 249.31 248.513 248.474C247.704 247.624 247.259 246.469 247.179 245.009L247.159 244.332L247.179 243.675C247.272 242.241 247.723 241.099 248.533 240.25C249.356 239.4 250.438 238.975 251.779 238.975C253.253 238.975 254.394 239.446 255.204 240.389C256.014 241.318 256.419 242.579 256.419 244.172V244.511C256.419 244.644 256.372 244.756 256.279 244.849C256.2 244.929 256.094 244.969 255.961 244.969H249.071V245.148C249.111 246.011 249.37 246.748 249.848 247.358C250.339 247.956 250.983 248.255 251.779 248.255C252.39 248.255 252.888 248.135 253.273 247.896C253.671 247.644 253.963 247.385 254.149 247.12C254.268 246.96 254.354 246.867 254.408 246.841C254.474 246.801 254.587 246.781 254.746 246.781H255.722C255.841 246.781 255.941 246.814 256.021 246.881C256.1 246.947 256.14 247.04 256.14 247.159C256.14 247.451 255.954 247.803 255.582 248.215C255.224 248.626 254.713 248.985 254.049 249.29C253.399 249.582 252.649 249.728 251.799 249.728ZM254.527 243.595V243.535C254.527 242.619 254.275 241.876 253.77 241.305C253.279 240.721 252.615 240.429 251.779 240.429C250.943 240.429 250.279 240.721 249.788 241.305C249.31 241.876 249.071 242.619 249.071 243.535V243.595H254.527ZM260.804 249.529C260.459 249.529 260.213 249.363 260.067 249.031L256.383 239.792L256.344 239.592C256.344 239.473 256.383 239.373 256.463 239.294C256.543 239.214 256.642 239.174 256.762 239.174H257.718C257.943 239.174 258.109 239.287 258.215 239.513L261.242 247.358L264.269 239.513C264.388 239.287 264.548 239.174 264.747 239.174H265.723C265.829 239.174 265.922 239.214 266.001 239.294C266.094 239.373 266.141 239.473 266.141 239.592L266.101 239.792L262.397 249.031C262.251 249.363 262.006 249.529 261.66 249.529H260.804ZM269.474 249.728C268.824 249.728 268.22 249.595 267.662 249.33C267.105 249.064 266.66 248.706 266.328 248.255C266.01 247.79 265.85 247.279 265.85 246.721C265.85 245.845 266.209 245.128 266.926 244.571C267.656 244 268.638 243.628 269.873 243.456L272.84 243.037V242.46C272.84 241.106 272.063 240.429 270.51 240.429C269.926 240.429 269.448 240.555 269.076 240.807C268.704 241.046 268.426 241.331 268.24 241.663C268.2 241.783 268.147 241.869 268.08 241.922C268.027 241.975 267.948 242.002 267.842 242.002H266.985C266.866 242.002 266.76 241.962 266.667 241.882C266.587 241.789 266.547 241.683 266.547 241.564C266.56 241.245 266.706 240.887 266.985 240.488C267.277 240.077 267.722 239.725 268.319 239.433C268.917 239.128 269.654 238.975 270.53 238.975C272.017 238.975 273.085 239.327 273.736 240.03C274.386 240.721 274.712 241.584 274.712 242.619V249.071C274.712 249.204 274.665 249.317 274.572 249.41C274.492 249.489 274.386 249.529 274.254 249.529H273.338C273.205 249.529 273.092 249.489 272.999 249.41C272.919 249.317 272.88 249.204 272.88 249.071V248.215C272.587 248.64 272.163 248.998 271.605 249.29C271.048 249.582 270.337 249.728 269.474 249.728ZM269.893 248.235C270.755 248.235 271.459 247.956 272.003 247.398C272.561 246.827 272.84 246.011 272.84 244.949V244.391L270.53 244.73C269.587 244.863 268.877 245.088 268.399 245.407C267.921 245.712 267.682 246.104 267.682 246.582C267.682 247.113 267.901 247.524 268.339 247.816C268.777 248.095 269.295 248.235 269.893 248.235ZM276.782 249.529C276.649 249.529 276.537 249.489 276.444 249.41C276.364 249.317 276.324 249.204 276.324 249.071V239.632C276.324 239.499 276.364 239.393 276.444 239.314C276.537 239.221 276.649 239.174 276.782 239.174H277.678C277.811 239.174 277.917 239.221 277.997 239.314C278.09 239.393 278.136 239.499 278.136 239.632V240.329C278.827 239.426 279.789 238.975 281.024 238.975C282.497 238.975 283.539 239.586 284.15 240.807C284.469 240.25 284.92 239.805 285.504 239.473C286.088 239.141 286.745 238.975 287.476 238.975C288.564 238.975 289.454 239.347 290.144 240.09C290.834 240.834 291.179 241.909 291.179 243.316V249.071C291.179 249.204 291.133 249.317 291.04 249.41C290.96 249.489 290.854 249.529 290.721 249.529H289.785C289.653 249.529 289.54 249.489 289.447 249.41C289.367 249.317 289.327 249.204 289.327 249.071V243.495C289.327 242.46 289.108 241.716 288.67 241.265C288.246 240.814 287.681 240.588 286.978 240.588C286.354 240.588 285.816 240.82 285.365 241.285C284.913 241.736 284.688 242.473 284.688 243.495V249.071C284.688 249.204 284.641 249.317 284.548 249.41C284.469 249.489 284.362 249.529 284.23 249.529H283.294C283.161 249.529 283.048 249.489 282.955 249.41C282.876 249.317 282.836 249.204 282.836 249.071V243.495C282.836 242.46 282.61 241.716 282.159 241.265C281.721 240.814 281.163 240.588 280.486 240.588C279.862 240.588 279.324 240.82 278.873 241.285C278.422 241.736 278.196 242.466 278.196 243.475V249.071C278.196 249.204 278.15 249.317 278.057 249.41C277.977 249.489 277.871 249.529 277.738 249.529H276.782ZM300.543 249.728C299.176 249.728 298.081 249.31 297.258 248.474C296.448 247.624 296.003 246.469 295.924 245.009L295.904 244.332L295.924 243.675C296.017 242.241 296.468 241.099 297.278 240.25C298.101 239.4 299.183 238.975 300.524 238.975C301.997 238.975 303.139 239.446 303.949 240.389C304.758 241.318 305.163 242.579 305.163 244.172V244.511C305.163 244.644 305.117 244.756 305.024 244.849C304.944 244.929 304.838 244.969 304.705 244.969H297.815V245.148C297.855 246.011 298.114 246.748 298.592 247.358C299.083 247.956 299.727 248.255 300.524 248.255C301.134 248.255 301.632 248.135 302.017 247.896C302.415 247.644 302.707 247.385 302.893 247.12C303.013 246.96 303.099 246.867 303.152 246.841C303.218 246.801 303.331 246.781 303.491 246.781H304.466C304.586 246.781 304.685 246.814 304.765 246.881C304.845 246.947 304.884 247.04 304.884 247.159C304.884 247.451 304.699 247.803 304.327 248.215C303.968 248.626 303.457 248.985 302.794 249.29C302.143 249.582 301.393 249.728 300.543 249.728ZM303.272 243.595V243.535C303.272 242.619 303.019 241.876 302.515 241.305C302.024 240.721 301.36 240.429 300.524 240.429C299.687 240.429 299.023 240.721 298.532 241.305C298.054 241.876 297.815 242.619 297.815 243.535V243.595H303.272ZM310.078 249.728C308.697 249.728 307.655 249.277 306.951 248.374C306.248 247.471 305.876 246.33 305.836 244.949L305.816 244.352L305.836 243.754C305.876 242.387 306.248 241.252 306.951 240.349C307.655 239.433 308.697 238.975 310.078 238.975C311.445 238.975 312.52 239.46 313.304 240.429V235.849C313.304 235.716 313.344 235.61 313.423 235.53C313.516 235.437 313.629 235.391 313.762 235.391H314.718C314.85 235.391 314.956 235.437 315.036 235.53C315.129 235.61 315.176 235.716 315.176 235.849V249.071C315.176 249.204 315.129 249.317 315.036 249.41C314.956 249.489 314.85 249.529 314.718 249.529H313.821C313.689 249.529 313.576 249.489 313.483 249.41C313.403 249.317 313.363 249.204 313.363 249.071V248.235C312.593 249.23 311.498 249.728 310.078 249.728ZM310.496 248.115C311.412 248.115 312.096 247.816 312.547 247.219C313.012 246.608 313.264 245.885 313.304 245.049C313.317 244.903 313.324 244.65 313.324 244.292C313.324 243.92 313.317 243.661 313.304 243.515C313.277 242.732 313.025 242.048 312.547 241.464C312.069 240.88 311.385 240.588 310.496 240.588C309.553 240.588 308.863 240.88 308.425 241.464C308 242.048 307.768 242.818 307.728 243.774L307.708 244.352C307.708 246.861 308.637 248.115 310.496 248.115ZM321.029 249.728C319.662 249.728 318.567 249.31 317.743 248.474C316.934 247.624 316.489 246.469 316.409 245.009L316.389 244.332L316.409 243.675C316.502 242.241 316.954 241.099 317.763 240.25C318.586 239.4 319.668 238.975 321.009 238.975C322.483 238.975 323.624 239.446 324.434 240.389C325.244 241.318 325.649 242.579 325.649 244.172V244.511C325.649 244.644 325.602 244.756 325.51 244.849C325.43 244.929 325.324 244.969 325.191 244.969H318.301V245.148C318.341 246.011 318.6 246.748 319.078 247.358C319.569 247.956 320.213 248.255 321.009 248.255C321.62 248.255 322.118 248.135 322.503 247.896C322.901 247.644 323.193 247.385 323.379 247.12C323.498 246.96 323.585 246.867 323.638 246.841C323.704 246.801 323.817 246.781 323.976 246.781H324.952C325.071 246.781 325.171 246.814 325.251 246.881C325.33 246.947 325.37 247.04 325.37 247.159C325.37 247.451 325.184 247.803 324.813 248.215C324.454 248.626 323.943 248.985 323.279 249.29C322.629 249.582 321.879 249.728 321.029 249.728ZM323.757 243.595V243.535C323.757 242.619 323.505 241.876 323 241.305C322.509 240.721 321.846 240.429 321.009 240.429C320.173 240.429 319.509 240.721 319.018 241.305C318.54 241.876 318.301 242.619 318.301 243.535V243.595H323.757ZM327.238 249.529C327.105 249.529 326.992 249.489 326.899 249.41C326.82 249.317 326.78 249.204 326.78 249.071V239.632C326.78 239.499 326.82 239.393 326.899 239.314C326.992 239.221 327.105 239.174 327.238 239.174H328.174C328.307 239.174 328.413 239.221 328.492 239.314C328.585 239.393 328.632 239.499 328.632 239.632V240.508C329.017 240.017 329.468 239.639 329.986 239.373C330.517 239.108 331.174 238.975 331.957 238.975C333.232 238.975 334.221 239.387 334.924 240.21C335.641 241.019 336 242.101 336 243.456V249.071C336 249.204 335.953 249.317 335.86 249.41C335.781 249.489 335.674 249.529 335.542 249.529H334.546C334.413 249.529 334.3 249.489 334.208 249.41C334.128 249.317 334.088 249.204 334.088 249.071V243.555C334.088 242.613 333.856 241.882 333.391 241.365C332.94 240.847 332.283 240.588 331.42 240.588C330.583 240.588 329.92 240.854 329.428 241.385C328.937 241.902 328.692 242.626 328.692 243.555V249.071C328.692 249.204 328.645 249.317 328.552 249.41C328.473 249.489 328.366 249.529 328.234 249.529H327.238Z" fill="black"/>
<path d="M421.673 224C421.408 224 421.182 223.92 420.996 223.761C420.837 223.575 420.757 223.35 420.757 223.084V200.781L414.146 205.879C413.96 206.038 413.761 206.118 413.549 206.118C413.31 206.118 413.084 205.985 412.872 205.72L411.836 204.406C411.703 204.22 411.637 204.034 411.637 203.848C411.637 203.529 411.77 203.277 412.035 203.091L420.717 196.401C421.009 196.215 421.354 196.122 421.753 196.122H423.784C424.049 196.122 424.262 196.215 424.421 196.401C424.607 196.56 424.7 196.772 424.7 197.038V223.084C424.7 223.35 424.607 223.575 424.421 223.761C424.262 223.92 424.049 224 423.784 224H421.673ZM429.334 224C429.068 224 428.842 223.92 428.657 223.761C428.497 223.575 428.418 223.35 428.418 223.084V221.81C428.418 221.199 428.749 220.615 429.413 220.057L437.856 211.614C439.901 209.915 441.308 208.534 442.078 207.472C442.848 206.384 443.233 205.242 443.233 204.047C443.233 202.507 442.795 201.299 441.919 200.423C441.069 199.547 439.821 199.109 438.175 199.109C436.635 199.109 435.4 199.573 434.471 200.503C433.542 201.405 432.971 202.613 432.759 204.127C432.706 204.445 432.573 204.684 432.36 204.844C432.175 204.976 431.962 205.043 431.723 205.043H429.652C429.413 205.043 429.214 204.976 429.055 204.844C428.896 204.684 428.816 204.498 428.816 204.286C428.869 202.852 429.254 201.485 429.971 200.184C430.688 198.856 431.736 197.781 433.117 196.958C434.524 196.108 436.21 195.684 438.175 195.684C441.175 195.684 443.432 196.467 444.945 198.033C446.485 199.573 447.255 201.538 447.255 203.928C447.255 205.6 446.831 207.114 445.981 208.468C445.158 209.795 443.87 211.229 442.118 212.769L434.471 220.535H446.897C447.189 220.535 447.415 220.628 447.574 220.814C447.76 220.973 447.853 221.186 447.853 221.451V223.084C447.853 223.35 447.76 223.575 447.574 223.761C447.388 223.92 447.162 224 446.897 224H429.334Z" fill="black"/>
<path d="M382.103 249.529C381.97 249.529 381.858 249.489 381.765 249.41C381.685 249.317 381.645 249.204 381.645 249.071V237.362H377.822C377.689 237.362 377.576 237.322 377.483 237.243C377.404 237.15 377.364 237.037 377.364 236.904V236.068C377.364 235.935 377.404 235.822 377.483 235.729C377.576 235.636 377.689 235.59 377.822 235.59H387.42C387.566 235.59 387.679 235.636 387.758 235.729C387.851 235.809 387.898 235.922 387.898 236.068V236.904C387.898 237.037 387.851 237.15 387.758 237.243C387.666 237.322 387.553 237.362 387.42 237.362H383.617V249.071C383.617 249.204 383.57 249.317 383.477 249.41C383.384 249.489 383.271 249.529 383.139 249.529H382.103ZM389.681 249.728C389.03 249.728 388.426 249.595 387.869 249.33C387.311 249.064 386.866 248.706 386.534 248.255C386.216 247.79 386.057 247.279 386.057 246.721C386.057 245.845 386.415 245.128 387.132 244.571C387.862 244 388.844 243.628 390.079 243.456L393.046 243.037V242.46C393.046 241.106 392.269 240.429 390.716 240.429C390.132 240.429 389.654 240.555 389.282 240.807C388.911 241.046 388.632 241.331 388.446 241.663C388.406 241.783 388.353 241.869 388.287 241.922C388.234 241.975 388.154 242.002 388.048 242.002H387.192C387.072 242.002 386.966 241.962 386.873 241.882C386.793 241.789 386.754 241.683 386.754 241.564C386.767 241.245 386.913 240.887 387.192 240.488C387.484 240.077 387.928 239.725 388.526 239.433C389.123 239.128 389.86 238.975 390.736 238.975C392.223 238.975 393.292 239.327 393.942 240.03C394.593 240.721 394.918 241.584 394.918 242.619V249.071C394.918 249.204 394.871 249.317 394.778 249.41C394.699 249.489 394.593 249.529 394.46 249.529H393.544C393.411 249.529 393.298 249.489 393.205 249.41C393.126 249.317 393.086 249.204 393.086 249.071V248.215C392.794 248.64 392.369 248.998 391.811 249.29C391.254 249.582 390.544 249.728 389.681 249.728ZM390.099 248.235C390.962 248.235 391.665 247.956 392.21 247.398C392.767 246.827 393.046 246.011 393.046 244.949V244.391L390.736 244.73C389.794 244.863 389.083 245.088 388.605 245.407C388.128 245.712 387.889 246.104 387.889 246.582C387.889 247.113 388.108 247.524 388.546 247.816C388.984 248.095 389.502 248.235 390.099 248.235ZM396.989 249.529C396.856 249.529 396.743 249.489 396.65 249.41C396.57 249.317 396.531 249.204 396.531 249.071V239.632C396.531 239.499 396.57 239.393 396.65 239.314C396.743 239.221 396.856 239.174 396.989 239.174H397.885C398.017 239.174 398.124 239.221 398.203 239.314C398.296 239.393 398.343 239.499 398.343 239.632V240.329C399.033 239.426 399.995 238.975 401.23 238.975C402.704 238.975 403.746 239.586 404.356 240.807C404.675 240.25 405.126 239.805 405.71 239.473C406.295 239.141 406.952 238.975 407.682 238.975C408.77 238.975 409.66 239.347 410.35 240.09C411.041 240.834 411.386 241.909 411.386 243.316V249.071C411.386 249.204 411.339 249.317 411.246 249.41C411.167 249.489 411.06 249.529 410.928 249.529H409.992C409.859 249.529 409.746 249.489 409.653 249.41C409.574 249.317 409.534 249.204 409.534 249.071V243.495C409.534 242.46 409.315 241.716 408.877 241.265C408.452 240.814 407.888 240.588 407.184 240.588C406.56 240.588 406.022 240.82 405.571 241.285C405.12 241.736 404.894 242.473 404.894 243.495V249.071C404.894 249.204 404.848 249.317 404.755 249.41C404.675 249.489 404.569 249.529 404.436 249.529H403.5C403.367 249.529 403.255 249.489 403.162 249.41C403.082 249.317 403.042 249.204 403.042 249.071V243.495C403.042 242.46 402.816 241.716 402.365 241.265C401.927 240.814 401.369 240.588 400.692 240.588C400.068 240.588 399.531 240.82 399.079 241.285C398.628 241.736 398.402 242.466 398.402 243.475V249.071C398.402 249.204 398.356 249.317 398.263 249.41C398.183 249.489 398.077 249.529 397.944 249.529H396.989ZM415.864 249.728C415.214 249.728 414.61 249.595 414.052 249.33C413.495 249.064 413.05 248.706 412.718 248.255C412.399 247.79 412.24 247.279 412.24 246.721C412.24 245.845 412.598 245.128 413.315 244.571C414.045 244 415.028 243.628 416.262 243.456L419.229 243.037V242.46C419.229 241.106 418.453 240.429 416.9 240.429C416.316 240.429 415.838 240.555 415.466 240.807C415.094 241.046 414.815 241.331 414.63 241.663C414.59 241.783 414.537 241.869 414.47 241.922C414.417 241.975 414.337 242.002 414.231 242.002H413.375C413.256 242.002 413.149 241.962 413.056 241.882C412.977 241.789 412.937 241.683 412.937 241.564C412.95 241.245 413.096 240.887 413.375 240.488C413.667 240.077 414.112 239.725 414.709 239.433C415.307 239.128 416.043 238.975 416.92 238.975C418.406 238.975 419.475 239.327 420.126 240.03C420.776 240.721 421.101 241.584 421.101 242.619V249.071C421.101 249.204 421.055 249.317 420.962 249.41C420.882 249.489 420.776 249.529 420.643 249.529H419.727C419.595 249.529 419.482 249.489 419.389 249.41C419.309 249.317 419.269 249.204 419.269 249.071V248.215C418.977 248.64 418.552 248.998 417.995 249.29C417.437 249.582 416.727 249.728 415.864 249.728ZM416.282 248.235C417.145 248.235 417.849 247.956 418.393 247.398C418.951 246.827 419.229 246.011 419.229 244.949V244.391L416.92 244.73C415.977 244.863 415.267 245.088 414.789 245.407C414.311 245.712 414.072 246.104 414.072 246.582C414.072 247.113 414.291 247.524 414.729 247.816C415.167 248.095 415.685 248.235 416.282 248.235ZM423.172 249.529C423.039 249.529 422.926 249.489 422.833 249.41C422.754 249.317 422.714 249.204 422.714 249.071V239.632C422.714 239.499 422.754 239.393 422.833 239.314C422.926 239.221 423.039 239.174 423.172 239.174H424.068C424.201 239.174 424.307 239.221 424.387 239.314C424.48 239.393 424.526 239.499 424.526 239.632V240.329C425.216 239.426 426.179 238.975 427.413 238.975C428.887 238.975 429.929 239.586 430.54 240.807C430.858 240.25 431.31 239.805 431.894 239.473C432.478 239.141 433.135 238.975 433.865 238.975C434.954 238.975 435.843 239.347 436.534 240.09C437.224 240.834 437.569 241.909 437.569 243.316V249.071C437.569 249.204 437.523 249.317 437.43 249.41C437.35 249.489 437.244 249.529 437.111 249.529H436.175C436.042 249.529 435.93 249.489 435.837 249.41C435.757 249.317 435.717 249.204 435.717 249.071V243.495C435.717 242.46 435.498 241.716 435.06 241.265C434.635 240.814 434.071 240.588 433.367 240.588C432.744 240.588 432.206 240.82 431.755 241.285C431.303 241.736 431.077 242.473 431.077 243.495V249.071C431.077 249.204 431.031 249.317 430.938 249.41C430.858 249.489 430.752 249.529 430.619 249.529H429.684C429.551 249.529 429.438 249.489 429.345 249.41C429.265 249.317 429.226 249.204 429.226 249.071V243.495C429.226 242.46 429 241.716 428.549 241.265C428.11 240.814 427.553 240.588 426.876 240.588C426.252 240.588 425.714 240.82 425.263 241.285C424.811 241.736 424.586 242.466 424.586 243.475V249.071C424.586 249.204 424.539 249.317 424.446 249.41C424.367 249.489 424.261 249.529 424.128 249.529H423.172ZM439.638 249.529C439.505 249.529 439.393 249.489 439.3 249.41C439.22 249.317 439.18 249.204 439.18 249.071V235.849C439.18 235.716 439.22 235.61 439.3 235.53C439.393 235.437 439.505 235.391 439.638 235.391H440.574C440.707 235.391 440.813 235.437 440.893 235.53C440.986 235.61 441.032 235.716 441.032 235.849V249.071C441.032 249.204 440.986 249.317 440.893 249.41C440.813 249.489 440.707 249.529 440.574 249.529H439.638ZM445.64 249.728C444.989 249.728 444.385 249.595 443.828 249.33C443.27 249.064 442.825 248.706 442.494 248.255C442.175 247.79 442.016 247.279 442.016 246.721C442.016 245.845 442.374 245.128 443.091 244.571C443.821 244 444.803 243.628 446.038 243.456L449.005 243.037V242.46C449.005 241.106 448.228 240.429 446.675 240.429C446.091 240.429 445.613 240.555 445.242 240.807C444.87 241.046 444.591 241.331 444.405 241.663C444.365 241.783 444.312 241.869 444.246 241.922C444.193 241.975 444.113 242.002 444.007 242.002H443.151C443.031 242.002 442.925 241.962 442.832 241.882C442.752 241.789 442.713 241.683 442.713 241.564C442.726 241.245 442.872 240.887 443.151 240.488C443.443 240.077 443.887 239.725 444.485 239.433C445.082 239.128 445.819 238.975 446.695 238.975C448.182 238.975 449.251 239.327 449.901 240.03C450.552 240.721 450.877 241.584 450.877 242.619V249.071C450.877 249.204 450.83 249.317 450.738 249.41C450.658 249.489 450.552 249.529 450.419 249.529H449.503C449.37 249.529 449.257 249.489 449.164 249.41C449.085 249.317 449.045 249.204 449.045 249.071V248.215C448.753 248.64 448.328 248.998 447.77 249.29C447.213 249.582 446.503 249.728 445.64 249.728ZM446.058 248.235C446.921 248.235 447.624 247.956 448.169 247.398C448.726 246.827 449.005 246.011 449.005 244.949V244.391L446.695 244.73C445.753 244.863 445.042 245.088 444.564 245.407C444.087 245.712 443.848 246.104 443.848 246.582C443.848 247.113 444.067 247.524 444.505 247.816C444.943 248.095 445.461 248.235 446.058 248.235ZM452.948 249.529C452.815 249.529 452.702 249.489 452.609 249.41C452.529 249.317 452.49 249.204 452.49 249.071V239.632C452.49 239.499 452.529 239.393 452.609 239.314C452.702 239.221 452.815 239.174 452.948 239.174H453.884C454.016 239.174 454.122 239.221 454.202 239.314C454.295 239.393 454.342 239.499 454.342 239.632V240.508C454.727 240.017 455.178 239.639 455.696 239.373C456.227 239.108 456.884 238.975 457.667 238.975C458.941 238.975 459.93 239.387 460.634 240.21C461.351 241.019 461.709 242.101 461.709 243.456V249.071C461.709 249.204 461.663 249.317 461.57 249.41C461.49 249.489 461.384 249.529 461.251 249.529H460.256C460.123 249.529 460.01 249.489 459.917 249.41C459.838 249.317 459.798 249.204 459.798 249.071V243.555C459.798 242.613 459.565 241.882 459.101 241.365C458.649 240.847 457.992 240.588 457.129 240.588C456.293 240.588 455.629 240.854 455.138 241.385C454.647 241.902 454.401 242.626 454.401 243.555V249.071C454.401 249.204 454.355 249.317 454.262 249.41C454.182 249.489 454.076 249.529 453.943 249.529H452.948ZM466.203 249.728C465.553 249.728 464.949 249.595 464.391 249.33C463.834 249.064 463.389 248.706 463.057 248.255C462.738 247.79 462.579 247.279 462.579 246.721C462.579 245.845 462.937 245.128 463.654 244.571C464.384 244 465.367 243.628 466.601 243.456L469.569 243.037V242.46C469.569 241.106 468.792 240.429 467.239 240.429C466.655 240.429 466.177 240.555 465.805 240.807C465.433 241.046 465.154 241.331 464.969 241.663C464.929 241.783 464.876 241.869 464.809 241.922C464.756 241.975 464.677 242.002 464.57 242.002H463.714C463.595 242.002 463.488 241.962 463.395 241.882C463.316 241.789 463.276 241.683 463.276 241.564C463.289 241.245 463.435 240.887 463.714 240.488C464.006 240.077 464.451 239.725 465.048 239.433C465.646 239.128 466.382 238.975 467.259 238.975C468.745 238.975 469.814 239.327 470.465 240.03C471.115 240.721 471.44 241.584 471.44 242.619V249.071C471.44 249.204 471.394 249.317 471.301 249.41C471.221 249.489 471.115 249.529 470.982 249.529H470.066C469.934 249.529 469.821 249.489 469.728 249.41C469.648 249.317 469.608 249.204 469.608 249.071V248.215C469.316 248.64 468.891 248.998 468.334 249.29C467.776 249.582 467.066 249.728 466.203 249.728ZM466.621 248.235C467.484 248.235 468.188 247.956 468.732 247.398C469.29 246.827 469.569 246.011 469.569 244.949V244.391L467.259 244.73C466.316 244.863 465.606 245.088 465.128 245.407C464.65 245.712 464.411 246.104 464.411 246.582C464.411 247.113 464.63 247.524 465.068 247.816C465.506 248.095 466.024 248.235 466.621 248.235ZM473.511 249.529C473.378 249.529 473.265 249.489 473.173 249.41C473.093 249.317 473.053 249.204 473.053 249.071V239.632C473.053 239.499 473.093 239.393 473.173 239.314C473.265 239.221 473.378 239.174 473.511 239.174H474.447C474.58 239.174 474.686 239.221 474.766 239.314C474.858 239.393 474.905 239.499 474.905 239.632V240.508C475.29 240.017 475.741 239.639 476.259 239.373C476.79 239.108 477.447 238.975 478.23 238.975C479.505 238.975 480.494 239.387 481.197 240.21C481.914 241.019 482.273 242.101 482.273 243.456V249.071C482.273 249.204 482.226 249.317 482.133 249.41C482.054 249.489 481.948 249.529 481.815 249.529H480.819C480.686 249.529 480.574 249.489 480.481 249.41C480.401 249.317 480.361 249.204 480.361 249.071V243.555C480.361 242.613 480.129 241.882 479.664 241.365C479.213 240.847 478.556 240.588 477.693 240.588C476.856 240.588 476.193 240.854 475.701 241.385C475.21 241.902 474.965 242.626 474.965 243.555V249.071C474.965 249.204 474.918 249.317 474.825 249.41C474.746 249.489 474.639 249.529 474.507 249.529H473.511Z" fill="black"/>
<g filter="url(#filter1_d)">
<path d="M84 172.993L141.786 144.214C155.228 137.52 171.478 140.515 181.65 151.562V151.562C190.965 161.678 205.486 165.129 218.356 160.287L285.936 134.858C299.682 129.686 315.184 134.554 323.506 146.656V146.656C332.154 159.232 348.49 163.933 362.5 157.878L507.982 95" stroke="black" stroke-width="1.65942"/>
</g>
</g>
<defs>
<filter id="filter0_d" x="0" y="0" width="591" height="309" filterUnits="userSpaceOnUse" color-interpolation-filters="sRGB">
<feFlood flood-opacity="0" result="BackgroundImageFix"/>
<feColorMatrix in="SourceAlpha" type="matrix" values="0 0 0 0 0 0 0 0 0 0 0 0 0 0 0 0 0 0 127 0" result="hardAlpha"/>
<feOffset dy="4"/>
<feGaussianBlur stdDeviation="15"/>
<feColorMatrix type="matrix" values="0 0 0 0 0 0 0 0 0 0 0 0 0 0 0 0 0 0 0.1 0"/>
<feBlend mode="normal" in2="BackgroundImageFix" result="effect1_dropShadow"/>
<feBlend mode="normal" in="SourceGraphic" in2="effect1_dropShadow" result="shape"/>
</filter>
<filter id="filter1_d" x="75.6301" y="94.2384" width="440.681" height="101.497" filterUnits="userSpaceOnUse" color-interpolation-filters="sRGB">
<feFlood flood-opacity="0" result="BackgroundImageFix"/>
<feColorMatrix in="SourceAlpha" type="matrix" values="0 0 0 0 0 0 0 0 0 0 0 0 0 0 0 0 0 0 127 0" result="hardAlpha"/>
<feOffset dy="14"/>
<feGaussianBlur stdDeviation="4"/>
<feColorMatrix type="matrix" values="0 0 0 0 0 0 0 0 0 0 0 0 0 0 0 0 0 0 0.25 0"/>
<feBlend mode="normal" in2="BackgroundImageFix" result="effect1_dropShadow"/>
<feBlend mode="normal" in="SourceGraphic" in2="effect1_dropShadow" result="shape"/>
</filter>
</defs>
</svg>
