<svg width="597" height="312" viewBox="0 0 597 312" fill="none" xmlns="http://www.w3.org/2000/svg">
<g filter="url(#filter0_d)">
<rect x="30" y="26" width="537" height="252" rx="13.4203" fill="white"/>
<path d="M264.979 71.8406C264.845 71.8406 264.73 71.8003 264.637 71.7198C264.556 71.6259 264.516 71.5118 264.516 71.3776V66.6268L259.664 58.4136C259.664 58.3867 259.658 58.3465 259.644 58.2928C259.617 58.2391 259.604 58.1921 259.604 58.1519C259.604 58.0445 259.644 57.9506 259.725 57.8701C259.805 57.7895 259.899 57.7493 260.007 57.7493H261.053C261.281 57.7493 261.456 57.8633 261.577 58.0915L265.502 64.6137L269.428 58.0915C269.575 57.8633 269.756 57.7493 269.971 57.7493H270.998C271.119 57.7493 271.219 57.7895 271.3 57.8701C271.38 57.9506 271.42 58.0445 271.42 58.1519C271.42 58.219 271.394 58.3062 271.34 58.4136L266.509 66.6268V71.3776C266.509 71.5118 266.462 71.6259 266.368 71.7198C266.274 71.8003 266.16 71.8406 266.026 71.8406H264.979ZM273.213 72.0419C272.555 72.0419 271.945 71.9077 271.381 71.6393C270.817 71.3709 270.368 71.0085 270.032 70.5522C269.71 70.0825 269.549 69.5658 269.549 69.0022C269.549 68.1164 269.911 67.3917 270.636 66.8281C271.374 66.251 272.367 65.8753 273.615 65.7008L276.615 65.2781V64.6943C276.615 63.3254 275.83 62.641 274.26 62.641C273.669 62.641 273.186 62.7685 272.81 63.0234C272.434 63.265 272.153 63.5535 271.965 63.8891C271.924 64.0098 271.871 64.0971 271.804 64.1507C271.75 64.2044 271.669 64.2313 271.562 64.2313H270.696C270.576 64.2313 270.468 64.191 270.374 64.1105C270.294 64.0165 270.254 63.9092 270.254 63.7884C270.267 63.4663 270.415 63.104 270.696 62.7014C270.992 62.2853 271.441 61.9297 272.045 61.6344C272.649 61.3258 273.394 61.1714 274.28 61.1714C275.783 61.1714 276.863 61.5271 277.521 62.2384C278.178 62.9362 278.507 63.8085 278.507 64.8553V71.3776C278.507 71.5118 278.46 71.6259 278.366 71.7198C278.286 71.8003 278.178 71.8406 278.044 71.8406H277.118C276.984 71.8406 276.87 71.8003 276.776 71.7198C276.695 71.6259 276.655 71.5118 276.655 71.3776V70.512C276.36 70.9414 275.93 71.3038 275.367 71.599C274.803 71.8943 274.085 72.0419 273.213 72.0419ZM273.636 70.5321C274.508 70.5321 275.219 70.2503 275.769 69.6866C276.333 69.1095 276.615 68.2842 276.615 67.2106V66.6469L274.28 66.9891C273.327 67.1233 272.609 67.3515 272.126 67.6736C271.643 67.9822 271.401 68.3781 271.401 68.8613C271.401 69.3981 271.622 69.8141 272.065 70.1094C272.508 70.3912 273.032 70.5321 273.636 70.5321ZM281.753 75.6654C281.646 75.6654 281.552 75.6251 281.471 75.5446C281.391 75.4641 281.35 75.3701 281.35 75.2628C281.35 75.1688 281.384 75.048 281.451 74.9004L283.001 71.2165L279.156 62.1377C279.089 61.9632 279.056 61.8492 279.056 61.7955C279.056 61.6747 279.096 61.5741 279.176 61.4935C279.257 61.413 279.357 61.3727 279.478 61.3727H280.465C280.679 61.3727 280.84 61.4868 280.948 61.715L284.008 69.0424L287.148 61.715C287.255 61.4868 287.423 61.3727 287.651 61.3727H288.597C288.718 61.3727 288.819 61.413 288.899 61.4935C288.98 61.5741 289.02 61.668 289.02 61.7754C289.02 61.8156 288.987 61.9364 288.919 62.1377L283.202 75.3231C283.095 75.5513 282.927 75.6654 282.699 75.6654H281.753ZM290.228 71.8406C290.093 71.8406 289.979 71.8003 289.885 71.7198C289.805 71.6259 289.765 71.5118 289.765 71.3776V61.8357C289.765 61.7015 289.805 61.5942 289.885 61.5137C289.979 61.4197 290.093 61.3727 290.228 61.3727H291.194C291.328 61.3727 291.435 61.4197 291.516 61.5137C291.61 61.5942 291.657 61.7015 291.657 61.8357V71.3776C291.657 71.5118 291.61 71.6259 291.516 71.7198C291.435 71.8003 291.328 71.8406 291.194 71.8406H290.228ZM293.839 71.8406C293.705 71.8406 293.591 71.8003 293.497 71.7198C293.417 71.6259 293.376 71.5118 293.376 71.3776V61.8357C293.376 61.7015 293.417 61.5942 293.497 61.5137C293.591 61.4197 293.705 61.3727 293.839 61.3727H294.786C294.92 61.3727 295.027 61.4197 295.108 61.5137C295.202 61.5942 295.249 61.7015 295.249 61.8357V62.7215C295.638 62.2249 296.094 61.8425 296.617 61.5741C297.154 61.3056 297.819 61.1714 298.61 61.1714C299.899 61.1714 300.898 61.5875 301.61 62.4195C302.334 63.2382 302.697 64.3319 302.697 65.7008V71.3776C302.697 71.5118 302.65 71.6259 302.556 71.7198C302.475 71.8003 302.368 71.8406 302.234 71.8406H301.227C301.093 71.8406 300.979 71.8003 300.885 71.7198C300.805 71.6259 300.764 71.5118 300.764 71.3776V65.8014C300.764 64.8486 300.529 64.1105 300.06 63.5871C299.603 63.0637 298.939 62.802 298.067 62.802C297.221 62.802 296.55 63.0704 296.054 63.6072C295.557 64.1306 295.309 64.862 295.309 65.8014V71.3776C295.309 71.5118 295.262 71.6259 295.168 71.7198C295.088 71.8003 294.98 71.8406 294.846 71.8406H293.839ZM308.548 72.0419C307.112 72.0419 305.985 71.6393 305.166 70.8341C304.361 70.0154 303.932 68.8747 303.878 67.4119L303.858 66.6067L303.878 65.8014C303.932 64.3386 304.361 63.2046 305.166 62.3994C305.985 61.5808 307.112 61.1714 308.548 61.1714C309.514 61.1714 310.333 61.3459 311.004 61.6948C311.675 62.0438 312.172 62.4732 312.494 62.9832C312.829 63.4932 313.01 64.0031 313.037 64.5131C313.051 64.6473 313.01 64.7547 312.917 64.8352C312.823 64.9157 312.709 64.956 312.574 64.956H311.608C311.474 64.956 311.373 64.9291 311.306 64.8754C311.239 64.8218 311.172 64.7144 311.105 64.5534C310.877 63.9092 310.555 63.4529 310.139 63.1845C309.722 62.9027 309.199 62.7617 308.568 62.7617C307.736 62.7617 307.072 63.0234 306.575 63.5468C306.092 64.0568 305.831 64.8419 305.79 65.9021L305.77 66.6268L305.79 67.3112C305.831 68.3849 306.092 69.1766 306.575 69.6866C307.059 70.1966 307.723 70.4516 308.568 70.4516C309.199 70.4516 309.722 70.3174 310.139 70.049C310.555 69.7671 310.877 69.3041 311.105 68.66C311.172 68.4989 311.239 68.3916 311.306 68.3379C311.373 68.2708 311.474 68.2372 311.608 68.2372H312.574C312.709 68.2372 312.823 68.2842 312.917 68.3781C313.01 68.4587 313.051 68.566 313.037 68.7002C313.01 69.1968 312.829 69.7067 312.494 70.2301C312.172 70.7401 311.675 71.1696 311.004 71.5185C310.347 71.8674 309.528 72.0419 308.548 72.0419ZM314.627 71.8406C314.493 71.8406 314.379 71.8003 314.285 71.7198C314.205 71.6259 314.164 71.5118 314.164 71.3776V61.8357C314.164 61.7015 314.205 61.5942 314.285 61.5137C314.379 61.4197 314.493 61.3727 314.627 61.3727H315.594C315.728 61.3727 315.835 61.4197 315.916 61.5137C316.01 61.5942 316.057 61.7015 316.057 61.8357V71.3776C316.057 71.5118 316.01 71.6259 315.916 71.7198C315.835 71.8003 315.728 71.8406 315.594 71.8406H314.627ZM318.259 71.8406C318.125 71.8406 318.011 71.8003 317.917 71.7198C317.836 71.6259 317.796 71.5118 317.796 71.3776V58.011C317.796 57.8768 317.836 57.7694 317.917 57.6889C318.011 57.5949 318.125 57.548 318.259 57.548H319.205C319.34 57.548 319.447 57.5949 319.527 57.6889C319.621 57.7694 319.668 57.8768 319.668 58.011V71.3776C319.668 71.5118 319.621 71.6259 319.527 71.7198C319.447 71.8003 319.34 71.8406 319.205 71.8406H318.259ZM324.326 72.0419C323.669 72.0419 323.058 71.9077 322.495 71.6393C321.931 71.3709 321.481 71.0085 321.146 70.5522C320.824 70.0825 320.663 69.5658 320.663 69.0022C320.663 68.1164 321.025 67.3917 321.75 66.8281C322.488 66.251 323.481 65.8753 324.729 65.7008L327.728 65.2781V64.6943C327.728 63.3254 326.943 62.641 325.373 62.641C324.783 62.641 324.3 62.7685 323.924 63.0234C323.548 63.265 323.266 63.5535 323.078 63.8891C323.038 64.0098 322.984 64.0971 322.917 64.1507C322.864 64.2044 322.783 64.2313 322.676 64.2313H321.81C321.689 64.2313 321.582 64.191 321.488 64.1105C321.407 64.0165 321.367 63.9092 321.367 63.7884C321.381 63.4663 321.528 63.104 321.81 62.7014C322.105 62.2853 322.555 61.9297 323.159 61.6344C323.763 61.3258 324.508 61.1714 325.393 61.1714C326.896 61.1714 327.977 61.5271 328.634 62.2384C329.292 62.9362 329.621 63.8085 329.621 64.8553V71.3776C329.621 71.5118 329.574 71.6259 329.48 71.7198C329.399 71.8003 329.292 71.8406 329.158 71.8406H328.232C328.098 71.8406 327.983 71.8003 327.889 71.7198C327.809 71.6259 327.769 71.5118 327.769 71.3776V70.512C327.473 70.9414 327.044 71.3038 326.48 71.599C325.917 71.8943 325.199 72.0419 324.326 72.0419ZM324.749 70.5321C325.621 70.5321 326.333 70.2503 326.883 69.6866C327.447 69.1095 327.728 68.2842 327.728 67.2106V66.6469L325.393 66.9891C324.44 67.1233 323.722 67.3515 323.239 67.6736C322.756 67.9822 322.515 68.3781 322.515 68.8613C322.515 69.3981 322.736 69.8141 323.179 70.1094C323.622 70.3912 324.145 70.5321 324.749 70.5321ZM331.714 71.8406C331.58 71.8406 331.466 71.8003 331.372 71.7198C331.291 71.6259 331.251 71.5118 331.251 71.3776V61.8559C331.251 61.7217 331.291 61.6076 331.372 61.5137C331.466 61.4197 331.58 61.3727 331.714 61.3727H332.64C332.774 61.3727 332.888 61.4197 332.982 61.5137C333.076 61.6076 333.123 61.7217 333.123 61.8559V62.7416C333.673 61.829 334.613 61.3727 335.941 61.3727H336.726C336.861 61.3727 336.968 61.4197 337.049 61.5137C337.143 61.5942 337.189 61.7015 337.189 61.8357V62.6611C337.189 62.7953 337.143 62.9027 337.049 62.9832C336.968 63.0637 336.861 63.104 336.726 63.104H335.519C334.794 63.104 334.224 63.3187 333.808 63.7481C333.392 64.1642 333.184 64.7345 333.184 65.4592V71.3776C333.184 71.5118 333.137 71.6259 333.043 71.7198C332.949 71.8003 332.835 71.8406 332.7 71.8406H331.714Z" fill="black"/>
<path d="M141.507 229.174C141.239 229.174 141.01 229.093 140.823 228.932C140.661 228.744 140.581 228.516 140.581 228.248V205.702L133.898 210.855C133.71 211.016 133.508 211.097 133.294 211.097C133.052 211.097 132.824 210.963 132.609 210.694L131.563 209.366C131.428 209.178 131.361 208.99 131.361 208.802C131.361 208.48 131.495 208.225 131.764 208.037L140.541 201.273C140.836 201.085 141.185 200.991 141.587 200.991H143.641C143.909 200.991 144.124 201.085 144.285 201.273C144.473 201.434 144.567 201.649 144.567 201.917V228.248C144.567 228.516 144.473 228.744 144.285 228.932C144.124 229.093 143.909 229.174 143.641 229.174H141.507ZM158.108 229.576C156.069 229.576 154.311 229.214 152.834 228.489C151.358 227.765 150.217 226.812 149.412 225.631C148.634 224.45 148.218 223.188 148.164 221.846V221.766C148.164 221.551 148.245 221.377 148.406 221.242C148.567 221.108 148.755 221.041 148.969 221.041H151.143C151.707 221.041 152.069 221.336 152.23 221.927C152.606 223.349 153.331 224.41 154.404 225.108C155.478 225.805 156.713 226.154 158.108 226.154C159.907 226.154 161.396 225.618 162.577 224.544C163.785 223.443 164.389 221.927 164.389 219.994C164.389 218.25 163.785 216.841 162.577 215.767C161.396 214.693 159.907 214.157 158.108 214.157C157.142 214.157 156.364 214.291 155.773 214.559C155.183 214.801 154.592 215.15 154.002 215.606C153.68 215.848 153.398 216.035 153.156 216.17C152.942 216.277 152.7 216.331 152.432 216.331H150.338C150.097 216.331 149.882 216.25 149.694 216.089C149.506 215.901 149.426 215.686 149.452 215.445L150.741 201.998C150.768 201.676 150.862 201.434 151.023 201.273C151.21 201.085 151.452 200.991 151.747 200.991H165.798C166.067 200.991 166.281 201.085 166.442 201.273C166.63 201.434 166.724 201.649 166.724 201.917V203.487C166.724 203.756 166.63 203.984 166.442 204.172C166.281 204.333 166.067 204.413 165.798 204.413H154.203L153.438 212.345C154.888 211.432 156.632 210.976 158.672 210.976C160.444 210.976 162.067 211.338 163.544 212.063C165.047 212.788 166.228 213.834 167.087 215.203C167.972 216.572 168.415 218.183 168.415 220.035C168.415 222.021 167.972 223.739 167.087 225.188C166.228 226.611 165.02 227.698 163.463 228.449C161.906 229.201 160.122 229.576 158.108 229.576Z" fill="black"/>
<path d="M127.03 254.047C126.896 254.047 126.782 254.007 126.688 253.926C126.607 253.832 126.567 253.718 126.567 253.584V248.833L121.715 240.62C121.715 240.593 121.709 240.553 121.695 240.499C121.668 240.446 121.655 240.399 121.655 240.358C121.655 240.251 121.695 240.157 121.776 240.077C121.856 239.996 121.95 239.956 122.058 239.956H123.104C123.333 239.956 123.507 240.07 123.628 240.298L127.553 246.82L131.479 240.298C131.626 240.07 131.807 239.956 132.022 239.956H133.049C133.17 239.956 133.27 239.996 133.351 240.077C133.431 240.157 133.472 240.251 133.472 240.358C133.472 240.425 133.445 240.513 133.391 240.62L128.56 248.833V253.584C128.56 253.718 128.513 253.832 128.419 253.926C128.325 254.007 128.211 254.047 128.077 254.047H127.03ZM135.264 254.248C134.606 254.248 133.996 254.114 133.432 253.846C132.868 253.577 132.419 253.215 132.083 252.759C131.761 252.289 131.6 251.772 131.6 251.209C131.6 250.323 131.962 249.598 132.687 249.035C133.425 248.458 134.418 248.082 135.666 247.907L138.666 247.485V246.901C138.666 245.532 137.881 244.847 136.311 244.847C135.72 244.847 135.237 244.975 134.861 245.23C134.485 245.471 134.204 245.76 134.016 246.096C133.975 246.216 133.922 246.304 133.855 246.357C133.801 246.411 133.721 246.438 133.613 246.438H132.748C132.627 246.438 132.519 246.397 132.425 246.317C132.345 246.223 132.305 246.116 132.305 245.995C132.318 245.673 132.466 245.31 132.748 244.908C133.043 244.492 133.492 244.136 134.096 243.841C134.7 243.532 135.445 243.378 136.331 243.378C137.834 243.378 138.914 243.734 139.572 244.445C140.229 245.143 140.558 246.015 140.558 247.062V253.584C140.558 253.718 140.511 253.832 140.417 253.926C140.337 254.007 140.229 254.047 140.095 254.047H139.169C139.035 254.047 138.921 254.007 138.827 253.926C138.746 253.832 138.706 253.718 138.706 253.584V252.718C138.411 253.148 137.981 253.51 137.418 253.805C136.854 254.101 136.136 254.248 135.264 254.248ZM135.687 252.739C136.559 252.739 137.27 252.457 137.82 251.893C138.384 251.316 138.666 250.491 138.666 249.417V248.853L136.331 249.196C135.378 249.33 134.66 249.558 134.177 249.88C133.694 250.189 133.452 250.585 133.452 251.068C133.452 251.605 133.674 252.021 134.116 252.316C134.559 252.598 135.083 252.739 135.687 252.739ZM143.804 257.872C143.697 257.872 143.603 257.832 143.522 257.751C143.442 257.671 143.401 257.577 143.401 257.469C143.401 257.375 143.435 257.255 143.502 257.107L145.052 253.423L141.207 244.344C141.14 244.17 141.107 244.056 141.107 244.002C141.107 243.881 141.147 243.781 141.227 243.7C141.308 243.619 141.409 243.579 141.529 243.579H142.516C142.73 243.579 142.892 243.693 142.999 243.921L146.059 251.249L149.199 243.921C149.306 243.693 149.474 243.579 149.702 243.579H150.648C150.769 243.579 150.87 243.619 150.95 243.7C151.031 243.781 151.071 243.874 151.071 243.982C151.071 244.022 151.038 244.143 150.971 244.344L145.253 257.53C145.146 257.758 144.978 257.872 144.75 257.872H143.804ZM152.279 254.047C152.145 254.047 152.03 254.007 151.937 253.926C151.856 253.832 151.816 253.718 151.816 253.584V244.042C151.816 243.908 151.856 243.801 151.937 243.72C152.03 243.626 152.145 243.579 152.279 243.579H153.245C153.379 243.579 153.487 243.626 153.567 243.72C153.661 243.801 153.708 243.908 153.708 244.042V253.584C153.708 253.718 153.661 253.832 153.567 253.926C153.487 254.007 153.379 254.047 153.245 254.047H152.279ZM155.89 254.047C155.756 254.047 155.642 254.007 155.548 253.926C155.468 253.832 155.427 253.718 155.427 253.584V244.042C155.427 243.908 155.468 243.801 155.548 243.72C155.642 243.626 155.756 243.579 155.89 243.579H156.837C156.971 243.579 157.078 243.626 157.159 243.72C157.253 243.801 157.3 243.908 157.3 244.042V244.928C157.689 244.431 158.145 244.049 158.668 243.781C159.205 243.512 159.87 243.378 160.661 243.378C161.95 243.378 162.95 243.794 163.661 244.626C164.386 245.445 164.748 246.538 164.748 247.907V253.584C164.748 253.718 164.701 253.832 164.607 253.926C164.526 254.007 164.419 254.047 164.285 254.047H163.278C163.144 254.047 163.03 254.007 162.936 253.926C162.856 253.832 162.815 253.718 162.815 253.584V248.008C162.815 247.055 162.58 246.317 162.111 245.794C161.654 245.27 160.99 245.008 160.118 245.008C159.272 245.008 158.601 245.277 158.105 245.814C157.608 246.337 157.36 247.069 157.36 248.008V253.584C157.36 253.718 157.313 253.832 157.219 253.926C157.139 254.007 157.031 254.047 156.897 254.047H155.89ZM170.599 254.248C169.163 254.248 168.036 253.846 167.217 253.041C166.412 252.222 165.983 251.081 165.929 249.618L165.909 248.813L165.929 248.008C165.983 246.545 166.412 245.411 167.217 244.606C168.036 243.787 169.163 243.378 170.599 243.378C171.566 243.378 172.384 243.552 173.055 243.901C173.726 244.25 174.223 244.68 174.545 245.19C174.88 245.7 175.062 246.21 175.088 246.72C175.102 246.854 175.062 246.961 174.968 247.042C174.874 247.122 174.76 247.162 174.625 247.162H173.659C173.525 247.162 173.424 247.136 173.357 247.082C173.29 247.028 173.223 246.921 173.156 246.76C172.928 246.116 172.606 245.659 172.19 245.391C171.774 245.109 171.25 244.968 170.619 244.968C169.787 244.968 169.123 245.23 168.627 245.753C168.143 246.263 167.882 247.048 167.841 248.109L167.821 248.833L167.841 249.518C167.882 250.591 168.143 251.383 168.627 251.893C169.11 252.403 169.774 252.658 170.619 252.658C171.25 252.658 171.774 252.524 172.19 252.255C172.606 251.974 172.928 251.511 173.156 250.866C173.223 250.705 173.29 250.598 173.357 250.544C173.424 250.477 173.525 250.444 173.659 250.444H174.625C174.76 250.444 174.874 250.491 174.968 250.585C175.062 250.665 175.102 250.773 175.088 250.907C175.062 251.403 174.88 251.913 174.545 252.437C174.223 252.947 173.726 253.376 173.055 253.725C172.398 254.074 171.579 254.248 170.599 254.248ZM176.678 254.047C176.544 254.047 176.43 254.007 176.336 253.926C176.256 253.832 176.215 253.718 176.215 253.584V244.042C176.215 243.908 176.256 243.801 176.336 243.72C176.43 243.626 176.544 243.579 176.678 243.579H177.645C177.779 243.579 177.886 243.626 177.967 243.72C178.061 243.801 178.108 243.908 178.108 244.042V253.584C178.108 253.718 178.061 253.832 177.967 253.926C177.886 254.007 177.779 254.047 177.645 254.047H176.678Z" fill="black"/>
<path d="M271.645 229.174C271.376 229.174 271.148 229.093 270.96 228.932C270.799 228.744 270.719 228.516 270.719 228.248V205.702L264.035 210.855C263.847 211.016 263.646 211.097 263.431 211.097C263.19 211.097 262.962 210.963 262.747 210.694L261.7 209.366C261.566 209.178 261.499 208.99 261.499 208.802C261.499 208.48 261.633 208.225 261.901 208.037L270.678 201.273C270.974 201.085 271.322 200.991 271.725 200.991H273.778C274.047 200.991 274.262 201.085 274.423 201.273C274.61 201.434 274.704 201.649 274.704 201.917V228.248C274.704 228.516 274.61 228.744 274.423 228.932C274.262 229.093 274.047 229.174 273.778 229.174H271.645ZM279.389 229.174C279.12 229.174 278.892 229.093 278.704 228.932C278.543 228.744 278.463 228.516 278.463 228.248V226.96C278.463 226.342 278.798 225.752 279.469 225.188L288.005 216.653C290.071 214.935 291.494 213.539 292.272 212.466C293.051 211.365 293.44 210.211 293.44 209.003C293.44 207.446 292.997 206.225 292.111 205.339C291.252 204.454 289.991 204.011 288.327 204.011C286.77 204.011 285.522 204.481 284.582 205.42C283.643 206.333 283.066 207.554 282.851 209.084C282.797 209.406 282.663 209.647 282.449 209.808C282.261 209.943 282.046 210.01 281.804 210.01H279.711C279.469 210.01 279.268 209.943 279.107 209.808C278.946 209.647 278.865 209.459 278.865 209.245C278.919 207.795 279.308 206.413 280.033 205.098C280.758 203.756 281.818 202.669 283.213 201.837C284.636 200.978 286.34 200.548 288.327 200.548C291.36 200.548 293.641 201.34 295.171 202.924C296.728 204.481 297.506 206.467 297.506 208.882C297.506 210.573 297.077 212.103 296.218 213.472C295.386 214.814 294.084 216.264 292.312 217.82L284.582 225.671H297.144C297.439 225.671 297.667 225.765 297.828 225.953C298.016 226.114 298.11 226.329 298.11 226.597V228.248C298.11 228.516 298.016 228.744 297.828 228.932C297.64 229.093 297.412 229.174 297.144 229.174H279.389Z" fill="black"/>
<path d="M239.974 254.047C239.84 254.047 239.726 254.007 239.632 253.926C239.552 253.832 239.511 253.718 239.511 253.584V248.833L234.66 240.62C234.66 240.593 234.653 240.553 234.64 240.499C234.613 240.446 234.599 240.399 234.599 240.358C234.599 240.251 234.64 240.157 234.72 240.077C234.801 239.996 234.895 239.956 235.002 239.956H236.049C236.277 239.956 236.451 240.07 236.572 240.298L240.498 246.82L244.423 240.298C244.571 240.07 244.752 239.956 244.967 239.956H245.993C246.114 239.956 246.215 239.996 246.295 240.077C246.376 240.157 246.416 240.251 246.416 240.358C246.416 240.425 246.389 240.513 246.336 240.62L241.504 248.833V253.584C241.504 253.718 241.457 253.832 241.363 253.926C241.269 254.007 241.155 254.047 241.021 254.047H239.974ZM249.752 254.248C248.369 254.248 247.262 253.826 246.43 252.98C245.612 252.121 245.162 250.954 245.082 249.477L245.061 248.793L245.082 248.129C245.175 246.679 245.632 245.525 246.45 244.666C247.282 243.807 248.376 243.378 249.732 243.378C251.221 243.378 252.375 243.854 253.194 244.807C254.013 245.747 254.422 247.022 254.422 248.632V248.974C254.422 249.108 254.375 249.222 254.281 249.316C254.201 249.397 254.093 249.437 253.959 249.437H246.994V249.618C247.034 250.491 247.296 251.236 247.779 251.853C248.276 252.457 248.926 252.759 249.732 252.759C250.349 252.759 250.852 252.638 251.241 252.396C251.644 252.141 251.939 251.88 252.127 251.611C252.248 251.45 252.335 251.356 252.389 251.329C252.456 251.289 252.57 251.269 252.731 251.269H253.717C253.838 251.269 253.939 251.303 254.019 251.37C254.1 251.437 254.14 251.531 254.14 251.652C254.14 251.947 253.952 252.302 253.577 252.718C253.214 253.134 252.698 253.497 252.027 253.805C251.369 254.101 250.611 254.248 249.752 254.248ZM252.51 248.048V247.988C252.51 247.062 252.255 246.31 251.745 245.733C251.248 245.143 250.577 244.847 249.732 244.847C248.886 244.847 248.215 245.143 247.719 245.733C247.235 246.31 246.994 247.062 246.994 247.988V248.048H252.51ZM256.028 254.047C255.894 254.047 255.78 254.007 255.686 253.926C255.606 253.832 255.565 253.718 255.565 253.584V244.042C255.565 243.908 255.606 243.801 255.686 243.72C255.78 243.626 255.894 243.579 256.028 243.579H256.975C257.109 243.579 257.216 243.626 257.297 243.72C257.391 243.801 257.438 243.908 257.438 244.042V244.928C257.827 244.431 258.283 244.049 258.806 243.781C259.343 243.512 260.008 243.378 260.799 243.378C262.088 243.378 263.088 243.794 263.799 244.626C264.523 245.445 264.886 246.538 264.886 247.907V253.584C264.886 253.718 264.839 253.832 264.745 253.926C264.664 254.007 264.557 254.047 264.423 254.047H263.416C263.282 254.047 263.168 254.007 263.074 253.926C262.994 253.832 262.953 253.718 262.953 253.584V248.008C262.953 247.055 262.718 246.317 262.249 245.794C261.792 245.27 261.128 245.008 260.256 245.008C259.41 245.008 258.739 245.277 258.243 245.814C257.746 246.337 257.498 247.069 257.498 248.008V253.584C257.498 253.718 257.451 253.832 257.357 253.926C257.277 254.007 257.169 254.047 257.035 254.047H256.028ZM266.812 241.627C266.678 241.627 266.564 241.586 266.47 241.506C266.389 241.412 266.349 241.298 266.349 241.164V240.077C266.349 239.942 266.389 239.828 266.47 239.734C266.564 239.64 266.678 239.593 266.812 239.593H268.08C268.214 239.593 268.328 239.64 268.422 239.734C268.516 239.828 268.563 239.942 268.563 240.077V241.164C268.563 241.298 268.516 241.412 268.422 241.506C268.328 241.586 268.214 241.627 268.08 241.627H266.812ZM266.973 254.047C266.839 254.047 266.725 254.007 266.631 253.926C266.55 253.832 266.51 253.718 266.51 253.584V244.042C266.51 243.908 266.55 243.801 266.631 243.72C266.725 243.626 266.839 243.579 266.973 243.579H267.939C268.073 243.579 268.181 243.626 268.261 243.72C268.355 243.801 268.402 243.908 268.402 244.042V253.584C268.402 253.718 268.355 253.832 268.261 253.926C268.181 254.007 268.073 254.047 267.939 254.047H266.973ZM275.074 257.872C274.966 257.872 274.872 257.832 274.792 257.751C274.711 257.671 274.671 257.577 274.671 257.469C274.671 257.375 274.705 257.255 274.772 257.107L276.322 253.423L272.477 244.344C272.41 244.17 272.376 244.056 272.376 244.002C272.376 243.881 272.417 243.781 272.497 243.7C272.578 243.619 272.678 243.579 272.799 243.579H273.785C274 243.579 274.161 243.693 274.269 243.921L277.328 251.249L280.469 243.921C280.576 243.693 280.744 243.579 280.972 243.579H281.918C282.039 243.579 282.14 243.619 282.22 243.7C282.301 243.781 282.341 243.874 282.341 243.982C282.341 244.022 282.307 244.143 282.24 244.344L276.523 257.53C276.416 257.758 276.248 257.872 276.02 257.872H275.074ZM287.019 254.248C285.543 254.248 284.396 253.832 283.577 253C282.772 252.168 282.342 251.061 282.289 249.679L282.269 248.813L282.289 247.948C282.342 246.579 282.778 245.478 283.597 244.646C284.416 243.801 285.556 243.378 287.019 243.378C288.482 243.378 289.623 243.801 290.441 244.646C291.26 245.478 291.696 246.579 291.75 247.948C291.763 248.095 291.77 248.384 291.77 248.813C291.77 249.243 291.763 249.531 291.75 249.679C291.696 251.061 291.26 252.168 290.441 253C289.636 253.832 288.496 254.248 287.019 254.248ZM287.019 252.698C287.865 252.698 288.529 252.43 289.012 251.893C289.509 251.356 289.777 250.585 289.817 249.578C289.831 249.444 289.838 249.189 289.838 248.813C289.838 248.437 289.831 248.182 289.817 248.048C289.777 247.042 289.509 246.27 289.012 245.733C288.529 245.196 287.865 244.928 287.019 244.928C286.174 244.928 285.503 245.196 285.006 245.733C284.51 246.27 284.248 247.042 284.221 248.048L284.201 248.813L284.221 249.578C284.248 250.585 284.51 251.356 285.006 251.893C285.503 252.43 286.174 252.698 287.019 252.698ZM293.49 254.047C293.356 254.047 293.242 254.007 293.148 253.926C293.067 253.832 293.027 253.718 293.027 253.584V244.062C293.027 243.928 293.067 243.814 293.148 243.72C293.242 243.626 293.356 243.579 293.49 243.579H294.416C294.55 243.579 294.664 243.626 294.758 243.72C294.852 243.814 294.899 243.928 294.899 244.062V244.948C295.45 244.036 296.389 243.579 297.718 243.579H298.503C298.637 243.579 298.744 243.626 298.825 243.72C298.919 243.801 298.966 243.908 298.966 244.042V244.868C298.966 245.002 298.919 245.109 298.825 245.19C298.744 245.27 298.637 245.31 298.503 245.31H297.295C296.57 245.31 296 245.525 295.584 245.955C295.168 246.371 294.96 246.941 294.96 247.666V253.584C294.96 253.718 294.913 253.832 294.819 253.926C294.725 254.007 294.611 254.047 294.477 254.047H293.49ZM303.316 254.248C302.041 254.248 301.055 253.839 300.357 253.02C299.659 252.188 299.31 251.088 299.31 249.719V244.042C299.31 243.908 299.35 243.801 299.431 243.72C299.525 243.626 299.639 243.579 299.773 243.579H300.78C300.914 243.579 301.021 243.626 301.102 243.72C301.196 243.801 301.243 243.908 301.243 244.042V249.618C301.243 251.618 302.115 252.618 303.86 252.618C304.705 252.618 305.376 252.356 305.873 251.833C306.369 251.296 306.618 250.558 306.618 249.618V244.042C306.618 243.908 306.658 243.801 306.738 243.72C306.832 243.626 306.946 243.579 307.081 243.579H308.087C308.221 243.579 308.329 243.626 308.409 243.72C308.49 243.801 308.53 243.908 308.53 244.042V253.584C308.53 253.718 308.49 253.832 308.409 253.926C308.329 254.007 308.221 254.047 308.087 254.047H307.141C307.007 254.047 306.893 254.007 306.799 253.926C306.718 253.832 306.678 253.718 306.678 253.584V252.698C306.302 253.208 305.846 253.597 305.309 253.866C304.772 254.121 304.108 254.248 303.316 254.248ZM310.72 254.047C310.586 254.047 310.472 254.007 310.378 253.926C310.297 253.832 310.257 253.718 310.257 253.584V244.042C310.257 243.908 310.297 243.801 310.378 243.72C310.472 243.626 310.586 243.579 310.72 243.579H311.626C311.76 243.579 311.867 243.626 311.948 243.72C312.042 243.801 312.089 243.908 312.089 244.042V244.747C312.787 243.834 313.76 243.378 315.008 243.378C316.497 243.378 317.551 243.995 318.168 245.23C318.49 244.666 318.947 244.217 319.537 243.881C320.128 243.546 320.792 243.378 321.53 243.378C322.63 243.378 323.53 243.754 324.227 244.505C324.925 245.257 325.274 246.344 325.274 247.766V253.584C325.274 253.718 325.227 253.832 325.133 253.926C325.053 254.007 324.945 254.047 324.811 254.047H323.865C323.731 254.047 323.617 254.007 323.523 253.926C323.442 253.832 323.402 253.718 323.402 253.584V247.948C323.402 246.901 323.181 246.149 322.738 245.693C322.308 245.237 321.738 245.008 321.027 245.008C320.396 245.008 319.852 245.243 319.396 245.713C318.94 246.169 318.712 246.914 318.712 247.948V253.584C318.712 253.718 318.665 253.832 318.571 253.926C318.49 254.007 318.383 254.047 318.249 254.047H317.303C317.168 254.047 317.054 254.007 316.96 253.926C316.88 253.832 316.84 253.718 316.84 253.584V247.948C316.84 246.901 316.611 246.149 316.155 245.693C315.712 245.237 315.149 245.008 314.464 245.008C313.833 245.008 313.29 245.243 312.834 245.713C312.377 246.169 312.149 246.907 312.149 247.927V253.584C312.149 253.718 312.102 253.832 312.008 253.926C311.928 254.007 311.82 254.047 311.686 254.047H310.72Z" fill="black"/>
<path d="M428.392 229.403C426.245 229.403 424.38 228.973 422.796 228.114C421.212 227.229 420.005 226.048 419.173 224.571C418.341 223.095 417.925 221.485 417.925 219.74C417.925 218.317 418.206 216.975 418.77 215.714C419.36 214.426 420.018 213.285 420.743 212.292L428.392 201.623C428.419 201.596 428.5 201.502 428.634 201.341C428.741 201.18 428.889 201.059 429.077 200.978C429.265 200.871 429.479 200.817 429.721 200.817H431.855C432.096 200.817 432.284 200.911 432.418 201.099C432.579 201.26 432.66 201.462 432.66 201.703C432.66 201.891 432.606 202.065 432.499 202.227L426.621 210.44C427.211 210.252 427.976 210.158 428.916 210.158C430.848 210.185 432.553 210.628 434.029 211.487C435.532 212.345 436.686 213.5 437.491 214.949C438.323 216.398 438.739 217.982 438.739 219.7C438.739 221.418 438.323 223.028 437.491 224.531C436.686 226.007 435.492 227.188 433.908 228.074C432.351 228.96 430.513 229.403 428.392 229.403ZM428.352 225.98C429.506 225.98 430.566 225.739 431.533 225.256C432.526 224.773 433.304 224.061 433.868 223.122C434.458 222.156 434.754 221.015 434.754 219.7C434.754 218.411 434.458 217.298 433.868 216.358C433.304 215.419 432.526 214.707 431.533 214.224C430.566 213.741 429.506 213.5 428.352 213.5C427.225 213.5 426.165 213.741 425.171 214.224C424.205 214.707 423.427 215.419 422.836 216.358C422.246 217.298 421.951 218.411 421.951 219.7C421.951 221.015 422.246 222.156 422.836 223.122C423.427 224.061 424.205 224.773 425.171 225.256C426.138 225.739 427.198 225.98 428.352 225.98Z" fill="black"/>
<path d="M375.856 253.545C375.722 253.545 375.608 253.505 375.514 253.425C375.433 253.331 375.393 253.216 375.393 253.082V239.917C375.393 239.783 375.433 239.675 375.514 239.595C375.608 239.501 375.722 239.454 375.856 239.454H376.923C377.057 239.454 377.164 239.501 377.245 239.595C377.339 239.675 377.386 239.783 377.386 239.917V251.794H384.069C384.217 251.794 384.331 251.841 384.411 251.935C384.505 252.015 384.552 252.129 384.552 252.277V253.082C384.552 253.216 384.505 253.331 384.411 253.425C384.317 253.505 384.203 253.545 384.069 253.545H375.856ZM389.282 253.747C387.806 253.747 386.659 253.331 385.84 252.499C385.035 251.666 384.605 250.559 384.552 249.177L384.531 248.311L384.552 247.446C384.605 246.077 385.041 244.976 385.86 244.144C386.679 243.299 387.819 242.876 389.282 242.876C390.745 242.876 391.886 243.299 392.704 244.144C393.523 244.976 393.959 246.077 394.013 247.446C394.026 247.593 394.033 247.882 394.033 248.311C394.033 248.741 394.026 249.029 394.013 249.177C393.959 250.559 393.523 251.666 392.704 252.499C391.899 253.331 390.758 253.747 389.282 253.747ZM389.282 252.197C390.128 252.197 390.792 251.928 391.275 251.391C391.772 250.855 392.04 250.083 392.08 249.076C392.094 248.942 392.101 248.687 392.101 248.311C392.101 247.936 392.094 247.681 392.08 247.546C392.04 246.54 391.772 245.768 391.275 245.231C390.792 244.695 390.128 244.426 389.282 244.426C388.437 244.426 387.766 244.695 387.269 245.231C386.773 245.768 386.511 246.54 386.484 247.546L386.464 248.311L386.484 249.076C386.511 250.083 386.773 250.855 387.269 251.391C387.766 251.928 388.437 252.197 389.282 252.197ZM395.753 253.545C395.619 253.545 395.505 253.505 395.411 253.425C395.33 253.331 395.29 253.216 395.29 253.082V243.561C395.29 243.426 395.33 243.312 395.411 243.218C395.505 243.124 395.619 243.077 395.753 243.077H396.679C396.813 243.077 396.927 243.124 397.021 243.218C397.115 243.312 397.162 243.426 397.162 243.561V244.446C397.713 243.534 398.652 243.077 399.981 243.077H400.766C400.9 243.077 401.007 243.124 401.088 243.218C401.182 243.299 401.229 243.406 401.229 243.54V244.366C401.229 244.5 401.182 244.607 401.088 244.688C401.007 244.768 400.9 244.809 400.766 244.809H399.558C398.833 244.809 398.263 245.023 397.847 245.453C397.431 245.869 397.223 246.439 397.223 247.164V253.082C397.223 253.216 397.176 253.331 397.082 253.425C396.988 253.505 396.874 253.545 396.74 253.545H395.753ZM405.664 253.747C404.282 253.747 403.175 253.324 402.343 252.478C401.524 251.619 401.075 250.452 400.994 248.976L400.974 248.291L400.994 247.627C401.088 246.178 401.544 245.023 402.363 244.165C403.195 243.306 404.289 242.876 405.644 242.876C407.134 242.876 408.288 243.353 409.107 244.305C409.925 245.245 410.335 246.52 410.335 248.13V248.472C410.335 248.607 410.288 248.721 410.194 248.815C410.113 248.895 410.006 248.935 409.872 248.935H402.906V249.117C402.947 249.989 403.208 250.734 403.692 251.351C404.188 251.955 404.839 252.257 405.644 252.257C406.262 252.257 406.765 252.136 407.154 251.895C407.557 251.64 407.852 251.378 408.04 251.11C408.16 250.948 408.248 250.855 408.301 250.828C408.368 250.787 408.483 250.767 408.644 250.767H409.63C409.751 250.767 409.851 250.801 409.932 250.868C410.012 250.935 410.053 251.029 410.053 251.15C410.053 251.445 409.865 251.801 409.489 252.217C409.127 252.633 408.61 252.995 407.939 253.304C407.281 253.599 406.523 253.747 405.664 253.747ZM408.422 247.546V247.486C408.422 246.56 408.167 245.808 407.657 245.231C407.161 244.641 406.49 244.346 405.644 244.346C404.799 244.346 404.128 244.641 403.631 245.231C403.148 245.808 402.906 246.56 402.906 247.486V247.546H408.422ZM411.941 253.545C411.807 253.545 411.693 253.505 411.599 253.425C411.518 253.331 411.478 253.216 411.478 253.082V243.54C411.478 243.406 411.518 243.299 411.599 243.218C411.693 243.124 411.807 243.077 411.941 243.077H412.847C412.981 243.077 413.088 243.124 413.169 243.218C413.263 243.299 413.31 243.406 413.31 243.54V244.245C414.008 243.332 414.981 242.876 416.229 242.876C417.718 242.876 418.772 243.493 419.389 244.728C419.711 244.165 420.168 243.715 420.758 243.379C421.349 243.044 422.013 242.876 422.751 242.876C423.851 242.876 424.751 243.252 425.448 244.003C426.146 244.755 426.495 245.842 426.495 247.265V253.082C426.495 253.216 426.448 253.331 426.354 253.425C426.274 253.505 426.166 253.545 426.032 253.545H425.086C424.952 253.545 424.838 253.505 424.744 253.425C424.663 253.331 424.623 253.216 424.623 253.082V247.446C424.623 246.399 424.402 245.647 423.959 245.191C423.529 244.735 422.959 244.507 422.248 244.507C421.617 244.507 421.073 244.742 420.617 245.211C420.161 245.668 419.933 246.412 419.933 247.446V253.082C419.933 253.216 419.886 253.331 419.792 253.425C419.711 253.505 419.604 253.545 419.47 253.545H418.524C418.389 253.545 418.275 253.505 418.181 253.425C418.101 253.331 418.061 253.216 418.061 253.082V247.446C418.061 246.399 417.832 245.647 417.376 245.191C416.933 244.735 416.37 244.507 415.685 244.507C415.054 244.507 414.511 244.742 414.055 245.211C413.598 245.668 413.37 246.406 413.37 247.426V253.082C413.37 253.216 413.323 253.331 413.229 253.425C413.149 253.505 413.041 253.545 412.907 253.545H411.941ZM432.076 241.125C431.942 241.125 431.828 241.085 431.734 241.004C431.654 240.91 431.613 240.796 431.613 240.662V239.575C431.613 239.441 431.654 239.326 431.734 239.233C431.828 239.139 431.942 239.092 432.076 239.092H433.345C433.479 239.092 433.593 239.139 433.687 239.233C433.781 239.326 433.828 239.441 433.828 239.575V240.662C433.828 240.796 433.781 240.91 433.687 241.004C433.593 241.085 433.479 241.125 433.345 241.125H432.076ZM432.237 253.545C432.103 253.545 431.989 253.505 431.895 253.425C431.815 253.331 431.774 253.216 431.774 253.082V243.54C431.774 243.406 431.815 243.299 431.895 243.218C431.989 243.124 432.103 243.077 432.237 243.077H433.204C433.338 243.077 433.445 243.124 433.526 243.218C433.62 243.299 433.667 243.406 433.667 243.54V253.082C433.667 253.216 433.62 253.331 433.526 253.425C433.445 253.505 433.338 253.545 433.204 253.545H432.237ZM435.869 257.37C435.735 257.37 435.621 257.323 435.527 257.229C435.447 257.149 435.406 257.041 435.406 256.907V243.54C435.406 243.406 435.447 243.299 435.527 243.218C435.621 243.124 435.735 243.077 435.869 243.077H436.795C436.93 243.077 437.037 243.124 437.117 243.218C437.211 243.299 437.258 243.406 437.258 243.54V244.426C438.01 243.393 439.11 242.876 440.56 242.876C441.969 242.876 443.022 243.319 443.72 244.205C444.431 245.091 444.814 246.231 444.868 247.627C444.881 247.775 444.888 248.003 444.888 248.311C444.888 248.62 444.881 248.848 444.868 248.996C444.814 250.378 444.431 251.519 443.72 252.418C443.009 253.304 441.955 253.747 440.56 253.747C439.164 253.747 438.077 253.243 437.299 252.237V256.907C437.299 257.041 437.258 257.149 437.178 257.229C437.097 257.323 436.99 257.37 436.856 257.37H435.869ZM440.137 252.116C441.09 252.116 441.781 251.821 442.21 251.23C442.653 250.64 442.895 249.861 442.935 248.895C442.949 248.761 442.955 248.566 442.955 248.311C442.955 245.775 442.016 244.507 440.137 244.507C439.211 244.507 438.513 244.815 438.043 245.433C437.587 246.037 437.339 246.761 437.299 247.607L437.278 248.372L437.299 249.157C437.325 249.949 437.58 250.64 438.064 251.23C438.547 251.821 439.238 252.116 440.137 252.116ZM449.738 253.747C448.798 253.747 448.007 253.599 447.362 253.304C446.732 252.995 446.255 252.646 445.933 252.257C445.625 251.868 445.47 251.546 445.47 251.291C445.47 251.156 445.517 251.056 445.611 250.989C445.718 250.908 445.826 250.868 445.933 250.868H446.839C446.973 250.868 447.094 250.935 447.201 251.069C447.523 251.445 447.872 251.74 448.248 251.955C448.624 252.17 449.127 252.277 449.758 252.277C450.456 252.277 451.019 252.143 451.449 251.874C451.892 251.593 452.113 251.21 452.113 250.727C452.113 250.405 452.019 250.143 451.831 249.942C451.657 249.727 451.348 249.546 450.905 249.398C450.476 249.237 449.832 249.063 448.973 248.875C447.805 248.62 446.973 248.251 446.477 247.768C445.994 247.285 445.752 246.661 445.752 245.896C445.752 245.386 445.9 244.903 446.195 244.446C446.504 243.977 446.946 243.601 447.523 243.319C448.114 243.024 448.819 242.876 449.637 242.876C450.496 242.876 451.227 243.017 451.831 243.299C452.435 243.581 452.885 243.916 453.18 244.305C453.489 244.681 453.643 244.997 453.643 245.252C453.643 245.372 453.596 245.473 453.502 245.554C453.422 245.634 453.321 245.674 453.2 245.674H452.355C452.194 245.674 452.06 245.607 451.952 245.473C451.737 245.218 451.55 245.023 451.389 244.889C451.241 244.742 451.019 244.614 450.724 244.507C450.442 244.399 450.08 244.346 449.637 244.346C448.993 244.346 448.496 244.487 448.148 244.768C447.799 245.037 447.624 245.392 447.624 245.835C447.624 246.117 447.698 246.359 447.846 246.56C447.993 246.748 448.275 246.922 448.691 247.083C449.12 247.244 449.738 247.412 450.543 247.587C451.818 247.855 452.717 248.244 453.241 248.754C453.777 249.251 454.046 249.888 454.046 250.667C454.046 251.244 453.878 251.767 453.542 252.237C453.207 252.707 452.71 253.076 452.053 253.344C451.409 253.612 450.637 253.747 449.738 253.747ZM459.018 253.747C457.743 253.747 456.757 253.337 456.059 252.519C455.361 251.687 455.012 250.586 455.012 249.217V243.54C455.012 243.406 455.052 243.299 455.133 243.218C455.227 243.124 455.341 243.077 455.475 243.077H456.481C456.616 243.077 456.723 243.124 456.804 243.218C456.897 243.299 456.944 243.406 456.944 243.54V249.117C456.944 251.116 457.817 252.116 459.561 252.116C460.407 252.116 461.078 251.854 461.574 251.331C462.071 250.794 462.319 250.056 462.319 249.117V243.54C462.319 243.406 462.36 243.299 462.44 243.218C462.534 243.124 462.648 243.077 462.782 243.077H463.789C463.923 243.077 464.03 243.124 464.111 243.218C464.191 243.299 464.232 243.406 464.232 243.54V253.082C464.232 253.216 464.191 253.331 464.111 253.425C464.03 253.505 463.923 253.545 463.789 253.545H462.843C462.708 253.545 462.594 253.505 462.5 253.425C462.42 253.331 462.38 253.216 462.38 253.082V252.197C462.004 252.707 461.548 253.096 461.011 253.364C460.474 253.619 459.81 253.747 459.018 253.747ZM466.422 253.545C466.287 253.545 466.173 253.505 466.079 253.425C465.999 253.331 465.959 253.216 465.959 253.082V243.54C465.959 243.406 465.999 243.299 466.079 243.218C466.173 243.124 466.287 243.077 466.422 243.077H467.328C467.462 243.077 467.569 243.124 467.65 243.218C467.744 243.299 467.791 243.406 467.791 243.54V244.245C468.488 243.332 469.461 242.876 470.709 242.876C472.199 242.876 473.253 243.493 473.87 244.728C474.192 244.165 474.648 243.715 475.239 243.379C475.829 243.044 476.494 242.876 477.232 242.876C478.332 242.876 479.231 243.252 479.929 244.003C480.627 244.755 480.976 245.842 480.976 247.265V253.082C480.976 253.216 480.929 253.331 480.835 253.425C480.755 253.505 480.647 253.545 480.513 253.545H479.567C479.433 253.545 479.319 253.505 479.225 253.425C479.144 253.331 479.104 253.216 479.104 253.082V247.446C479.104 246.399 478.882 245.647 478.44 245.191C478.01 244.735 477.44 244.507 476.728 244.507C476.098 244.507 475.554 244.742 475.098 245.211C474.642 245.668 474.413 246.412 474.413 247.446V253.082C474.413 253.216 474.366 253.331 474.273 253.425C474.192 253.505 474.085 253.545 473.95 253.545H473.004C472.87 253.545 472.756 253.505 472.662 253.425C472.582 253.331 472.541 253.216 472.541 253.082V247.446C472.541 246.399 472.313 245.647 471.857 245.191C471.414 244.735 470.85 244.507 470.166 244.507C469.535 244.507 468.992 244.742 468.535 245.211C468.079 245.668 467.851 246.406 467.851 247.426V253.082C467.851 253.216 467.804 253.331 467.71 253.425C467.629 253.505 467.522 253.545 467.388 253.545H466.422Z" fill="black"/>
<g filter="url(#filter1_d)">
<path d="M84 163.558L142.416 134.465C156.006 127.698 172.433 130.725 182.716 141.893V141.893C192.133 152.119 206.812 155.608 219.823 150.713L288.141 125.007C302.037 119.778 317.708 124.699 326.121 136.933V136.933C334.863 149.647 351.378 154.399 365.54 148.278L512.611 84.7137" stroke="black" stroke-width="1.67754"/>
</g>
</g>
<defs>
<filter id="filter0_d" x="0" y="0" width="597" height="312" filterUnits="userSpaceOnUse" color-interpolation-filters="sRGB">
<feFlood flood-opacity="0" result="BackgroundImageFix"/>
<feColorMatrix in="SourceAlpha" type="matrix" values="0 0 0 0 0 0 0 0 0 0 0 0 0 0 0 0 0 0 127 0" result="hardAlpha"/>
<feOffset dy="4"/>
<feGaussianBlur stdDeviation="15"/>
<feColorMatrix type="matrix" values="0 0 0 0 0 0 0 0 0 0 0 0 0 0 0 0 0 0 0.1 0"/>
<feBlend mode="normal" in2="BackgroundImageFix" result="effect1_dropShadow"/>
<feBlend mode="normal" in="SourceGraphic" in2="effect1_dropShadow" result="shape"/>
</filter>
<filter id="filter1_d" x="75.6261" y="83.9438" width="445.317" height="102.365" filterUnits="userSpaceOnUse" color-interpolation-filters="sRGB">
<feFlood flood-opacity="0" result="BackgroundImageFix"/>
<feColorMatrix in="SourceAlpha" type="matrix" values="0 0 0 0 0 0 0 0 0 0 0 0 0 0 0 0 0 0 127 0" result="hardAlpha"/>
<feOffset dy="14"/>
<feGaussianBlur stdDeviation="4"/>
<feColorMatrix type="matrix" values="0 0 0 0 0 0 0 0 0 0 0 0 0 0 0 0 0 0 0.25 0"/>
<feBlend mode="normal" in2="BackgroundImageFix" result="effect1_dropShadow"/>
<feBlend mode="normal" in="SourceGraphic" in2="effect1_dropShadow" result="shape"/>
</filter>
</defs>
</svg>
