<svg width="261" height="216" viewBox="0 0 261 216" fill="none" xmlns="http://www.w3.org/2000/svg">
<rect x="5" y="5" width="250.096" height="116" rx="7.5" fill="#E7E7E7" stroke="#DBDBDB"/>
<path d="M243.358 15.3333C244.023 15.3333 244.567 14.7333 244.567 14C244.567 13.2667 244.023 12.6667 243.358 12.6667C242.694 12.6667 242.15 13.2667 242.15 14C242.15 14.7333 242.694 15.3333 243.358 15.3333ZM243.358 16.6667C242.694 16.6667 242.15 17.2667 242.15 18C242.15 18.7333 242.694 19.3333 243.358 19.3333C244.023 19.3333 244.567 18.7333 244.567 18C244.567 17.2667 244.023 16.6667 243.358 16.6667ZM243.358 20.6667C242.694 20.6667 242.15 21.2667 242.15 22C242.15 22.7333 242.694 23.3333 243.358 23.3333C244.023 23.3333 244.567 22.7333 244.567 22C244.567 21.2667 244.023 20.6667 243.358 20.6667Z" fill="#323232"/>
<g clip-path="url(#clip0)">
<path d="M50.5775 140.564H46.6175L45.7815 142.5H44.6265L48.1135 134.668H49.0705L52.5685 142.5H51.4135L50.5775 140.564ZM50.1925 139.662L48.5975 135.933L47.0025 139.662H50.1925ZM58.0279 141.873C57.8079 142.071 57.5329 142.232 57.2029 142.357C56.8802 142.482 56.5392 142.555 56.1799 142.577L56.1249 142.973C56.1762 142.958 56.2532 142.951 56.3559 142.951C56.6052 142.951 56.8105 143.017 56.9719 143.149C57.1405 143.281 57.2249 143.472 57.2249 143.721C57.2249 143.992 57.1039 144.216 56.8619 144.392C56.6272 144.568 56.3009 144.656 55.8829 144.656C55.7215 144.656 55.5492 144.638 55.3659 144.601C55.1825 144.564 55.0212 144.513 54.8819 144.447L55.0249 143.919C55.2962 144.022 55.5785 144.073 55.8719 144.073C56.0552 144.073 56.1982 144.044 56.3009 143.985C56.4035 143.926 56.4549 143.838 56.4549 143.721C56.4549 143.538 56.3265 143.446 56.0699 143.446C55.9305 143.446 55.7729 143.475 55.5969 143.534L55.3879 143.347L55.4759 142.544C54.7865 142.441 54.2439 142.141 53.8479 141.642C53.4519 141.136 53.2539 140.498 53.2539 139.728C53.2539 139.156 53.3675 138.65 53.5949 138.21C53.8295 137.77 54.1559 137.429 54.5739 137.187C54.9919 136.945 55.4795 136.824 56.0369 136.824C56.4255 136.824 56.7995 136.89 57.1589 137.022C57.5182 137.147 57.8079 137.319 58.0279 137.539L57.6869 138.342C57.1662 137.931 56.6419 137.726 56.1139 137.726C55.5785 137.726 55.1605 137.902 54.8599 138.254C54.5592 138.599 54.4089 139.086 54.4089 139.717C54.4089 140.348 54.5592 140.835 54.8599 141.18C55.1605 141.517 55.5785 141.686 56.1139 141.686C56.6565 141.686 57.1809 141.481 57.6869 141.07L58.0279 141.873ZM59.1731 136.956H60.2731V142.5H59.1731V136.956ZM65.7526 142.5L63.1016 139.882V142.5H62.0016V134.404H63.1016V139.464L65.5656 136.967H66.9406L64.2896 139.629L67.1716 142.5H65.7526Z" fill="black"/>
<rect x="71.274" y="131.5" width="19" height="14" rx="6" fill="black"/>
<path d="M81.1831 137.539C81.6524 137.539 82.0668 137.645 82.4261 137.858C82.7928 138.063 83.0788 138.357 83.2841 138.738C83.4894 139.112 83.5921 139.545 83.5921 140.036C83.5921 140.527 83.4821 140.967 83.2621 141.356C83.0421 141.737 82.7378 142.038 82.3491 142.258C81.9604 142.478 81.5204 142.588 81.0291 142.588C80.0611 142.588 79.3131 142.258 78.7851 141.598C78.2644 140.938 78.0041 139.992 78.0041 138.76C78.0041 137.887 78.1251 137.139 78.3671 136.516C78.6164 135.885 78.9721 135.405 79.4341 135.075C79.9034 134.745 80.4608 134.58 81.1061 134.58C81.5681 134.58 82.0154 134.661 82.4481 134.822C82.8881 134.983 83.2694 135.218 83.5921 135.526L83.1851 136.362C82.4958 135.79 81.8138 135.504 81.1391 135.504C80.5011 135.504 80.0098 135.786 79.6651 136.351C79.3204 136.908 79.1481 137.704 79.1481 138.738V138.749C79.3168 138.368 79.5808 138.071 79.9401 137.858C80.3068 137.645 80.7211 137.539 81.1831 137.539ZM80.9741 141.664C81.4288 141.664 81.7954 141.517 82.0741 141.224C82.3528 140.931 82.4921 140.542 82.4921 140.058C82.4921 139.581 82.3528 139.196 82.0741 138.903C81.7954 138.61 81.4251 138.463 80.9631 138.463C80.5011 138.463 80.1198 138.613 79.8191 138.914C79.5258 139.207 79.3791 139.589 79.3791 140.058C79.3791 140.535 79.5258 140.923 79.8191 141.224C80.1124 141.517 80.4974 141.664 80.9741 141.664Z" fill="white"/>
<rect x="4.5" y="153.5" width="125.548" height="2" fill="black"/>
</g>
<g clip-path="url(#clip1)">
<path d="M173.708 138.342V142.038C173.378 142.207 172.96 142.342 172.454 142.445C171.955 142.54 171.446 142.588 170.925 142.588C170.133 142.588 169.447 142.43 168.868 142.115C168.289 141.792 167.845 141.33 167.537 140.729C167.236 140.128 167.086 139.409 167.086 138.573C167.086 137.752 167.236 137.04 167.537 136.439C167.845 135.838 168.281 135.379 168.846 135.064C169.418 134.741 170.089 134.58 170.859 134.58C171.409 134.58 171.915 134.664 172.377 134.833C172.846 134.994 173.246 135.229 173.576 135.537L173.169 136.384C172.795 136.076 172.428 135.856 172.069 135.724C171.71 135.592 171.31 135.526 170.87 135.526C170.019 135.526 169.37 135.786 168.923 136.307C168.483 136.828 168.263 137.583 168.263 138.573C168.263 139.592 168.49 140.366 168.945 140.894C169.4 141.415 170.071 141.675 170.958 141.675C171.552 141.675 172.124 141.587 172.674 141.411V139.211H170.848V138.342H173.708ZM180.181 139.75H176.221C176.258 141.048 176.848 141.697 177.992 141.697C178.63 141.697 179.213 141.488 179.741 141.07L180.082 141.862C179.833 142.082 179.514 142.258 179.125 142.39C178.744 142.515 178.359 142.577 177.97 142.577C177.083 142.577 176.386 142.324 175.88 141.818C175.374 141.305 175.121 140.604 175.121 139.717C175.121 139.152 175.231 138.65 175.451 138.21C175.678 137.77 175.994 137.429 176.397 137.187C176.8 136.945 177.259 136.824 177.772 136.824C178.52 136.824 179.107 137.066 179.532 137.55C179.965 138.034 180.181 138.705 180.181 139.563V139.75ZM177.794 137.649C177.376 137.649 177.035 137.774 176.771 138.023C176.507 138.272 176.338 138.628 176.265 139.09H179.202C179.158 138.621 179.015 138.265 178.773 138.023C178.531 137.774 178.205 137.649 177.794 137.649ZM181.556 134.404H182.656V142.5H181.556V134.404ZM189.114 139.75H185.154C185.191 141.048 185.781 141.697 186.925 141.697C187.563 141.697 188.146 141.488 188.674 141.07L189.015 141.862C188.766 142.082 188.447 142.258 188.058 142.39C187.677 142.515 187.292 142.577 186.903 142.577C186.016 142.577 185.319 142.324 184.813 141.818C184.307 141.305 184.054 140.604 184.054 139.717C184.054 139.152 184.164 138.65 184.384 138.21C184.612 137.77 184.927 137.429 185.33 137.187C185.734 136.945 186.192 136.824 186.705 136.824C187.453 136.824 188.04 137.066 188.465 137.55C188.898 138.034 189.114 138.705 189.114 139.563V139.75ZM186.727 137.649C186.309 137.649 185.968 137.774 185.704 138.023C185.44 138.272 185.272 138.628 185.198 139.09H188.135C188.091 138.621 187.948 138.265 187.706 138.023C187.464 137.774 187.138 137.649 186.727 137.649ZM193.437 136.824C194.765 136.824 195.428 137.565 195.428 139.046V142.5H194.317V139.112C194.317 138.628 194.222 138.276 194.031 138.056C193.848 137.836 193.551 137.726 193.14 137.726C192.671 137.726 192.293 137.873 192.007 138.166C191.729 138.459 191.589 138.852 191.589 139.343V142.5H190.489V138.518C190.489 137.939 190.46 137.418 190.401 136.956H191.435L191.534 137.913C191.71 137.561 191.963 137.293 192.293 137.11C192.631 136.919 193.012 136.824 193.437 136.824Z" fill="black"/>
<rect x="200.322" y="131.5" width="19" height="14" rx="6" fill="#C5C5C5"/>
<path d="M210.231 137.539C210.7 137.539 211.115 137.645 211.474 137.858C211.841 138.063 212.127 138.357 212.332 138.738C212.537 139.112 212.64 139.545 212.64 140.036C212.64 140.527 212.53 140.967 212.31 141.356C212.09 141.737 211.786 142.038 211.397 142.258C211.008 142.478 210.568 142.588 210.077 142.588C209.109 142.588 208.361 142.258 207.833 141.598C207.312 140.938 207.052 139.992 207.052 138.76C207.052 137.887 207.173 137.139 207.415 136.516C207.664 135.885 208.02 135.405 208.482 135.075C208.951 134.745 209.509 134.58 210.154 134.58C210.616 134.58 211.063 134.661 211.496 134.822C211.936 134.983 212.317 135.218 212.64 135.526L212.233 136.362C211.544 135.79 210.862 135.504 210.187 135.504C209.549 135.504 209.058 135.786 208.713 136.351C208.368 136.908 208.196 137.704 208.196 138.738V138.749C208.365 138.368 208.629 138.071 208.988 137.858C209.355 137.645 209.769 137.539 210.231 137.539ZM210.022 141.664C210.477 141.664 210.843 141.517 211.122 141.224C211.401 140.931 211.54 140.542 211.54 140.058C211.54 139.581 211.401 139.196 211.122 138.903C210.843 138.61 210.473 138.463 210.011 138.463C209.549 138.463 209.168 138.613 208.867 138.914C208.574 139.207 208.427 139.589 208.427 140.058C208.427 140.535 208.574 140.923 208.867 141.224C209.16 141.517 209.545 141.664 210.022 141.664Z" fill="black"/>
<rect x="130.048" y="153.5" width="125.548" height="2" fill="#C5C5C5"/>
</g>
<path d="M97.1517 184.552V188.5H95.3457V184.552L91.2997 178.532H93.3577L96.2417 183.04L99.1397 178.532H101.198L97.1517 184.552ZM107.557 181.43V188.5H105.835V187.366C105.62 187.758 105.312 188.066 104.911 188.29C104.51 188.505 104.052 188.612 103.539 188.612C102.923 188.612 102.377 188.463 101.901 188.164C101.425 187.865 101.056 187.441 100.795 186.89C100.534 186.339 100.403 185.7 100.403 184.972C100.403 184.244 100.534 183.6 100.795 183.04C101.066 182.471 101.439 182.032 101.915 181.724C102.391 181.407 102.932 181.248 103.539 181.248C104.052 181.248 104.51 181.36 104.911 181.584C105.312 181.799 105.62 182.102 105.835 182.494V181.43H107.557ZM104.015 187.24C104.594 187.24 105.042 187.039 105.359 186.638C105.676 186.237 105.835 185.672 105.835 184.944C105.835 184.197 105.676 183.623 105.359 183.222C105.042 182.821 104.589 182.62 104.001 182.62C103.422 182.62 102.97 182.83 102.643 183.25C102.326 183.661 102.167 184.235 102.167 184.972C102.167 185.7 102.326 186.26 102.643 186.652C102.97 187.044 103.427 187.24 104.015 187.24ZM116.455 181.43L113.165 188.976C112.792 189.853 112.316 190.493 111.737 190.894C111.158 191.295 110.444 191.561 109.595 191.692L109.203 190.348C109.866 190.199 110.36 190.007 110.687 189.774C111.023 189.55 111.294 189.214 111.499 188.766L111.723 188.248L108.783 181.43H110.617L112.647 186.512L114.719 181.43H116.455ZM117.665 181.43H119.401V188.5H117.665V181.43ZM125.661 181.248C127.35 181.248 128.195 182.219 128.195 184.16V188.5H126.445V184.244C126.445 183.684 126.338 183.278 126.123 183.026C125.908 182.765 125.577 182.634 125.129 182.634C124.597 182.634 124.168 182.807 123.841 183.152C123.514 183.488 123.351 183.936 123.351 184.496V188.5H121.615V183.432C121.615 182.685 121.578 182.018 121.503 181.43H123.141L123.267 182.592C123.51 182.163 123.836 181.831 124.247 181.598C124.667 181.365 125.138 181.248 125.661 181.248ZM133.556 188.612C132.819 188.612 132.18 188.463 131.638 188.164C131.097 187.865 130.682 187.445 130.392 186.904C130.103 186.353 129.958 185.709 129.958 184.972C129.958 184.235 130.108 183.586 130.406 183.026C130.714 182.466 131.144 182.032 131.694 181.724C132.254 181.407 132.898 181.248 133.626 181.248C134.13 181.248 134.616 181.327 135.082 181.486C135.558 181.645 135.936 181.864 136.216 182.144L135.726 183.376C135.428 183.133 135.11 182.951 134.774 182.83C134.438 182.699 134.107 182.634 133.78 182.634C133.146 182.634 132.651 182.835 132.296 183.236C131.942 183.628 131.764 184.197 131.764 184.944C131.764 185.691 131.937 186.26 132.282 186.652C132.637 187.044 133.136 187.24 133.78 187.24C134.107 187.24 134.438 187.175 134.774 187.044C135.11 186.913 135.428 186.727 135.726 186.484L136.216 187.716C135.918 187.996 135.53 188.215 135.054 188.374C134.578 188.533 134.079 188.612 133.556 188.612ZM137.692 181.43H139.428V188.5H137.692V181.43ZM152.532 186.162H147.66L146.652 188.5H144.832L149.34 178.532H150.81L155.332 188.5H153.526L152.532 186.162ZM151.93 184.762L150.096 180.492L148.262 184.762H151.93ZM163.346 178.196V188.5H161.624V187.366C161.409 187.758 161.101 188.066 160.7 188.29C160.298 188.505 159.841 188.612 159.328 188.612C158.721 188.612 158.18 188.458 157.704 188.15C157.228 187.842 156.854 187.408 156.584 186.848C156.322 186.279 156.192 185.63 156.192 184.902C156.192 184.174 156.322 183.535 156.584 182.984C156.845 182.433 157.214 182.009 157.69 181.71C158.166 181.402 158.712 181.248 159.328 181.248C159.832 181.248 160.28 181.355 160.672 181.57C161.073 181.775 161.381 182.069 161.596 182.452V178.196H163.346ZM159.79 187.24C160.368 187.24 160.816 187.039 161.134 186.638C161.46 186.237 161.624 185.667 161.624 184.93C161.624 184.193 161.465 183.623 161.148 183.222C160.83 182.821 160.382 182.62 159.804 182.62C159.216 182.62 158.758 182.821 158.432 183.222C158.114 183.614 157.956 184.174 157.956 184.902C157.956 185.639 158.114 186.213 158.432 186.624C158.758 187.035 159.211 187.24 159.79 187.24ZM165.552 181.43H167.288V188.5H165.552V181.43Z" fill="black"/>
<path d="M8 1H252.096V-1H8V1ZM259.096 8V208H261.096V8H259.096ZM252.096 215H8V217H252.096V215ZM1 208V8H-1V208H1ZM8 215C4.13401 215 1 211.866 1 208H-1C-1 212.971 3.02944 217 8 217V215ZM259.096 208C259.096 211.866 255.962 215 252.096 215V217C257.066 217 261.096 212.971 261.096 208H259.096ZM252.096 1C255.962 1 259.096 4.13401 259.096 8H261.096C261.096 3.02944 257.066 -1 252.096 -1V1ZM8 -1C3.02944 -1 -1 3.02943 -1 8H1C1 4.134 4.13401 1 8 1V-1Z" fill="#DBDBDB"/>
<defs>
<clipPath id="clip0">
<rect width="125.548" height="28" fill="white" transform="translate(4.5 127.5)"/>
</clipPath>
<clipPath id="clip1">
<rect width="125.548" height="28" fill="white" transform="translate(130.048 127.5)"/>
</clipPath>
</defs>
</svg>
