<svg width="12" height="14" viewBox="0 0 12 14" fill="none" xmlns="http://www.w3.org/2000/svg">
<path d="M10 7.78665V5.66665C9.99906 4.72206 9.66385 3.80829 9.05376 3.08716C8.44367 2.36603 7.59806 1.88408 6.66669 1.72665V0.99998C6.66669 0.823169 6.59645 0.653599 6.47142 0.528575C6.3464 0.403551 6.17683 0.333313 6.00002 0.333313C5.82321 0.333313 5.65364 0.403551 5.52861 0.528575C5.40359 0.653599 5.33335 0.823169 5.33335 0.99998V1.72665C4.40198 1.88408 3.55637 2.36603 2.94628 3.08716C2.33618 3.80829 2.00098 4.72206 2.00002 5.66665V7.78665C1.61099 7.92419 1.27402 8.17869 1.03531 8.51527C0.796606 8.85185 0.667847 9.25402 0.666687 9.66665V11C0.666687 11.1768 0.736925 11.3464 0.861949 11.4714C0.986973 11.5964 1.15654 11.6666 1.33335 11.6666H3.42669C3.58021 12.2316 3.91535 12.7303 4.38042 13.0858C4.84548 13.4413 5.41462 13.634 6.00002 13.634C6.58542 13.634 7.15456 13.4413 7.61962 13.0858C8.08468 12.7303 8.41983 12.2316 8.57335 11.6666H10.6667C10.8435 11.6666 11.0131 11.5964 11.1381 11.4714C11.2631 11.3464 11.3334 11.1768 11.3334 11V9.66665C11.3322 9.25402 11.2034 8.85185 10.9647 8.51527C10.726 8.17869 10.3891 7.92419 10 7.78665ZM3.33335 5.66665C3.33335 4.9594 3.6143 4.28112 4.1144 3.78103C4.6145 3.28093 5.29278 2.99998 6.00002 2.99998C6.70726 2.99998 7.38554 3.28093 7.88564 3.78103C8.38573 4.28112 8.66669 4.9594 8.66669 5.66665V7.66665H3.33335V5.66665ZM6.00002 12.3333C5.76733 12.3319 5.53907 12.2696 5.33791 12.1527C5.13675 12.0357 4.96969 11.8682 4.85335 11.6666H7.14669C7.03035 11.8682 6.86329 12.0357 6.66213 12.1527C6.46097 12.2696 6.2327 12.3319 6.00002 12.3333ZM10 10.3333H2.00002V9.66665C2.00002 9.48983 2.07026 9.32027 2.19528 9.19524C2.32031 9.07022 2.48988 8.99998 2.66669 8.99998H9.33335C9.51016 8.99998 9.67973 9.07022 9.80476 9.19524C9.92978 9.32027 10 9.48983 10 9.66665V10.3333Z" fill="#9794C7"/>
</svg>
