<svg width="18" height="18" viewBox="0 0 18 18" fill="none" xmlns="http://www.w3.org/2000/svg">
<path d="M1.37762 1.38332C1.696 1.05879 2.09974 0.831002 2.54214 0.7263C2.98455 0.621597 3.44755 0.644255 3.87762 0.791655L15.6693 4.73332C16.1449 4.88899 16.5604 5.18844 16.8585 5.59035C17.1566 5.99226 17.3226 6.47679 17.3336 6.97707C17.3446 7.47735 17.2 7.9687 16.9198 8.3833C16.6396 8.79789 16.2376 9.11528 15.7693 9.29165L11.4026 10.9583C11.3032 10.9963 11.2127 11.0544 11.1367 11.129C11.0607 11.2036 11.0009 11.293 10.961 11.3917L9.29429 15.7667C9.12463 16.2283 8.81677 16.6264 8.41265 16.9068C8.00852 17.1871 7.52779 17.3361 7.03595 17.3333H6.97762C6.47677 17.3242 5.99133 17.1586 5.58933 16.8597C5.18734 16.5608 4.88893 16.1437 4.73595 15.6667L0.794289 3.85832C0.650936 3.43244 0.629599 2.97494 0.732685 2.53756C0.835772 2.10018 1.05917 1.70036 1.37762 1.38332ZM2.33595 3.33332L6.31929 15.15C6.36554 15.2995 6.45844 15.4304 6.58439 15.5233C6.71034 15.6163 6.86274 15.6665 7.01929 15.6667C7.17491 15.6692 7.32762 15.6243 7.45713 15.538C7.58663 15.4517 7.68679 15.328 7.74429 15.1833L9.41095 10.8083C9.53179 10.4904 9.71813 10.2015 9.95789 9.96031C10.1976 9.71911 10.4855 9.53105 10.8026 9.40832L15.1776 7.74165C15.3252 7.68757 15.4521 7.58849 15.5403 7.4584C15.6285 7.3283 15.6736 7.17378 15.6693 7.01665C15.6692 6.86011 15.6189 6.70771 15.526 6.58176C15.433 6.45581 15.3022 6.36291 15.1526 6.31665L3.33596 2.37499C3.20029 2.31969 3.05151 2.30488 2.9076 2.33234C2.76369 2.3598 2.63082 2.42836 2.52504 2.52973C2.41927 2.63109 2.34512 2.76093 2.31157 2.90354C2.27801 3.04615 2.28648 3.19542 2.33595 3.33332Z" fill="#484482"/>
</svg>
