<svg width="129" height="105" viewBox="0 0 129 105" fill="none" xmlns="http://www.w3.org/2000/svg">
<mask id="mask0" mask-type="alpha" maskUnits="userSpaceOnUse" x="0" y="0" width="129" height="105">
<rect width="129" height="105" fill="white"/>
</mask>
<g mask="url(#mask0)">
<rect opacity="0.02" width="129" height="105" fill="#3C64B1"/>
<g opacity="0.06">
<path d="M0 0L129 105" stroke="#3C64B1"/>
<path d="M5.03906 -4.10156L134.039 100.898" stroke="#3C64B1"/>
<path d="M10.0781 -8.20312L139.078 96.7969" stroke="#3C64B1"/>
<path d="M15.1172 -12.3047L144.117 92.6953" stroke="#3C64B1"/>
<path d="M20.1562 -16.4062L149.156 88.5938" stroke="#3C64B1"/>
<path d="M25.1953 -20.5078L154.195 84.4922" stroke="#3C64B1"/>
<path d="M30.2344 -24.6094L159.234 80.3906" stroke="#3C64B1"/>
<path d="M35.2734 -28.7109L164.273 76.2891" stroke="#3C64B1"/>
<path d="M40.3125 -32.8125L169.312 72.1875" stroke="#3C64B1"/>
<path d="M45.3516 -36.9141L174.352 68.0859" stroke="#3C64B1"/>
<path d="M50.3906 -41.0156L179.391 63.9844" stroke="#3C64B1"/>
<path d="M55.4297 -45.1172L184.43 59.8828" stroke="#3C64B1"/>
<path d="M60.4688 -49.2188L189.469 55.7812" stroke="#3C64B1"/>
<path d="M-5.03906 4.10156L123.961 109.102" stroke="#3C64B1"/>
<path d="M-10.0781 8.20312L118.922 113.203" stroke="#3C64B1"/>
<path d="M-15.1172 12.3047L113.883 117.305" stroke="#3C64B1"/>
<path d="M-20.1562 16.4062L108.844 121.406" stroke="#3C64B1"/>
<path d="M-25.1953 20.5078L103.805 125.508" stroke="#3C64B1"/>
<path d="M-30.2344 24.6094L98.7656 129.609" stroke="#3C64B1"/>
<path d="M-35.2734 28.7109L93.7266 133.711" stroke="#3C64B1"/>
<path d="M-40.3125 32.8125L88.6875 137.812" stroke="#3C64B1"/>
<path d="M-45.3516 36.9141L83.6484 141.914" stroke="#3C64B1"/>
<path d="M-50.3906 41.0156L78.6094 146.016" stroke="#3C64B1"/>
<path d="M-55.4297 45.1172L73.5703 150.117" stroke="#3C64B1"/>
<path d="M-60.4688 49.2188L68.5312 154.219" stroke="#3C64B1"/>
<path d="M-65.5078 53.3203L63.4922 158.32" stroke="#3C64B1"/>
</g>
<g opacity="0.06">
<path d="M2.51953 -2.05078L131.52 102.949" stroke="#3C64B1"/>
<path d="M7.55859 -6.15234L136.559 98.8477" stroke="#3C64B1"/>
<path d="M12.5977 -10.2539L141.598 94.7461" stroke="#3C64B1"/>
<path d="M17.6367 -14.3555L146.637 90.6445" stroke="#3C64B1"/>
<path d="M22.6758 -18.457L151.676 86.543" stroke="#3C64B1"/>
<path d="M27.7148 -22.5586L156.715 82.4414" stroke="#3C64B1"/>
<path d="M32.7539 -26.6602L161.754 78.3398" stroke="#3C64B1"/>
<path d="M37.793 -30.7617L166.793 74.2383" stroke="#3C64B1"/>
<path d="M42.832 -34.8633L171.832 70.1367" stroke="#3C64B1"/>
<path d="M47.8711 -38.9648L176.871 66.0352" stroke="#3C64B1"/>
<path d="M52.9102 -43.0664L181.91 61.9336" stroke="#3C64B1"/>
<path d="M57.9492 -47.168L186.949 57.832" stroke="#3C64B1"/>
<path d="M62.9883 -51.2695L191.988 53.7305" stroke="#3C64B1"/>
<path d="M-2.51953 2.05078L126.48 107.051" stroke="#3C64B1"/>
<path d="M-7.55859 6.15234L121.441 111.152" stroke="#3C64B1"/>
<path d="M-12.5977 10.2539L116.402 115.254" stroke="#3C64B1"/>
<path d="M-17.6367 14.3555L111.363 119.355" stroke="#3C64B1"/>
<path d="M-22.6758 18.457L106.324 123.457" stroke="#3C64B1"/>
<path d="M-27.7148 22.5586L101.285 127.559" stroke="#3C64B1"/>
<path d="M-32.7539 26.6602L96.2461 131.66" stroke="#3C64B1"/>
<path d="M-37.793 30.7617L91.207 135.762" stroke="#3C64B1"/>
<path d="M-42.832 34.8633L86.168 139.863" stroke="#3C64B1"/>
<path d="M-47.8711 38.9648L81.1289 143.965" stroke="#3C64B1"/>
<path d="M-52.9102 43.0664L76.0898 148.066" stroke="#3C64B1"/>
<path d="M-57.9492 47.168L71.0508 152.168" stroke="#3C64B1"/>
<path d="M-62.9883 51.2695L66.0117 156.27" stroke="#3C64B1"/>
</g>
</g>
<g opacity="0.5">
<path d="M76.6667 38H53.3333C51.4924 38 50 39.4924 50 41.3333V64.6667C50 66.5076 51.4924 68 53.3333 68H76.6667C78.5076 68 80 66.5076 80 64.6667V41.3333C80 39.4924 78.5076 38 76.6667 38Z" stroke="#3C64B1" stroke-width="1.5" stroke-linecap="round" stroke-linejoin="round"/>
<path d="M59.1665 49.6667C60.5472 49.6667 61.6665 48.5475 61.6665 47.1667C61.6665 45.786 60.5472 44.6667 59.1665 44.6667C57.7858 44.6667 56.6665 45.786 56.6665 47.1667C56.6665 48.5475 57.7858 49.6667 59.1665 49.6667Z" stroke="#3C64B1" stroke-width="1.5" stroke-linecap="round" stroke-linejoin="round"/>
<path d="M80.0002 58.0001L71.6668 49.6667L53.3335 68.0001" stroke="#3C64B1" stroke-width="1.5" stroke-linecap="round" stroke-linejoin="round"/>
</g>
</svg>
