<svg width="14" height="18" viewBox="0 0 14 18" fill="none" xmlns="http://www.w3.org/2000/svg">
<path d="M8.42287 17.0902C7.22953 17.0902 6.08208 16.6485 5.16412 15.858L5.11822 15.8348C4.93463 15.672 4.77399 15.4861 4.61335 15.3233L1.03331 11.6267C0.734976 11.3245 0.574333 10.9293 0.574333 10.5108C0.574333 10.0923 0.734976 9.69708 1.03331 9.39484C1.33165 9.09261 1.72178 8.92986 2.13486 8.92986C2.54794 8.92986 2.93807 9.09261 3.23641 9.39484L3.42 9.58083V4.81481C3.42 3.9546 4.10847 3.23389 4.98053 3.23389C5.21002 3.23389 5.43951 3.28038 5.64605 3.39663L5.7149 3.41988V2.58292C5.7149 1.65296 6.40336 0.908997 7.27542 0.908997C8.00979 0.908997 8.62941 1.44372 8.79005 2.21093L8.813 2.28068L8.8589 2.25743C9.08839 2.14119 9.31788 2.07144 9.57032 2.07144C10.4194 2.07144 11.1308 2.76891 11.1308 3.65237V4.81481L11.1997 4.79156C11.4062 4.69857 11.6357 4.62882 11.8652 4.62882C12.7143 4.62882 13.4257 5.32629 13.4257 6.20974V12.022C13.4257 14.8118 11.1767 17.0902 8.42287 17.0902ZM5.69195 15.2303C6.44926 15.9045 7.41312 16.2533 8.42287 16.2533C10.7178 16.2533 12.5996 14.3469 12.5996 12.022V6.20974C12.5996 5.79126 12.2783 5.46578 11.8652 5.46578C11.4521 5.46578 11.1308 5.79126 11.1308 6.20974V8.95311H10.3047V3.65237C10.3047 3.23389 9.9834 2.9084 9.57032 2.9084C9.15724 2.9084 8.83595 3.23389 8.83595 3.65237V8.83687H8.00979V2.60617C8.00979 2.14119 7.6885 1.74596 7.27542 1.74596C6.86234 1.74596 6.54106 2.11794 6.54106 2.60617V8.86012H5.7149V4.81481C5.7149 4.39633 5.39361 4.07085 4.98053 4.07085C4.56745 4.07085 4.24616 4.39633 4.24616 4.81481V10.441L5.09527 11.3245L4.4986 11.9057L2.63974 9.97606C2.50204 9.83657 2.31845 9.76682 2.13486 9.76682C1.92832 9.76682 1.74473 9.83657 1.60704 9.97606C1.46934 10.1156 1.40049 10.3015 1.40049 10.5108C1.40049 10.72 1.46934 10.906 1.60704 11.0455L5.21002 14.7188L5.69195 15.2303Z" fill="#484482"/>
<path fill-rule="evenodd" clip-rule="evenodd" d="M4.61335 15.3235L1.03332 11.627C0.73498 11.3247 0.574338 10.9295 0.574338 10.511C0.574338 10.0925 0.73498 9.6973 1.03332 9.39507C1.33165 9.09283 1.72178 8.93009 2.13487 8.93009C2.52196 8.93009 2.88891 9.073 3.17904 9.33969C3.19852 9.3576 3.21765 9.37606 3.23641 9.39507L3.42001 9.58106V4.81504C3.42001 3.95483 4.10847 3.23411 4.98053 3.23411C5.14797 3.23411 5.31541 3.25886 5.47394 3.3174C5.53268 3.33909 5.59021 3.36542 5.64605 3.39685L5.7149 3.4201V2.58314C5.7149 1.65319 6.40337 0.909222 7.27543 0.909222C7.95484 0.909222 8.53603 1.36691 8.74643 2.04295C8.76344 2.09764 8.77804 2.15375 8.79006 2.21116L8.81301 2.28091L8.8589 2.25766C8.9169 2.22828 8.9749 2.20187 9.03327 2.17881C9.20585 2.11062 9.38168 2.07167 9.57032 2.07167C10.4194 2.07167 11.1308 2.76913 11.1308 3.65259V4.81504L11.1997 4.79179C11.2555 4.76664 11.3131 4.7432 11.3718 4.72237C11.5303 4.66617 11.6978 4.62905 11.8652 4.62905C12.7143 4.62905 13.4257 5.32651 13.4257 6.20997V12.0222C13.4257 14.8121 11.1767 17.0905 8.42287 17.0905C7.22953 17.0905 6.08208 16.6487 5.16413 15.8583L5.11823 15.835C4.99489 15.7257 4.88192 15.6059 4.77234 15.4896C4.7188 15.4329 4.66608 15.3769 4.61335 15.3235ZM5.03005 16.062L4.98229 16.0378L4.95904 16.0172C4.82774 15.9008 4.70075 15.7663 4.58721 15.6459C4.53594 15.5916 4.48741 15.5402 4.44248 15.4947L4.44086 15.493L0.862442 11.7981L0.861594 11.7972C0.519008 11.4497 0.333374 10.9934 0.333374 10.511C0.333374 10.0283 0.519314 9.57154 0.862442 9.22393C1.20561 8.87628 1.65708 8.68737 2.13487 8.68737C2.51294 8.68737 2.87454 8.80566 3.17904 9.0273V4.81504C3.17904 3.82443 3.9718 2.99139 4.98053 2.99139C5.14352 2.99139 5.31064 3.012 5.47394 3.06163V2.58314C5.47394 1.53428 6.25574 0.666504 7.27543 0.666504C8.06079 0.666504 8.72161 1.18988 8.96793 1.94406C9.15662 1.8721 9.35501 1.82895 9.57032 1.82895C10.5515 1.82895 11.3718 2.63407 11.3718 3.65259V4.46677C11.5272 4.41838 11.694 4.38633 11.8652 4.38633C12.8464 4.38633 13.6667 5.19145 13.6667 6.20997V12.0222C13.6667 14.9448 11.3111 17.3332 8.42287 17.3332C7.17952 17.3332 5.98607 16.8764 5.03005 16.062ZM4.49861 11.9059L2.63974 9.97629C2.50205 9.8368 2.31846 9.76705 2.13487 9.76705C1.92833 9.76705 1.74473 9.8368 1.60704 9.97629C1.46935 10.1158 1.4005 10.3018 1.4005 10.511C1.4005 10.7203 1.46935 10.9062 1.60704 11.0457L5.21002 14.7191L5.69195 15.2305C6.44927 15.9048 7.41312 16.2535 8.42287 16.2535C10.7178 16.2535 12.5996 14.3471 12.5996 12.0222V6.20997C12.5996 5.79149 12.2783 5.466 11.8652 5.466C11.4521 5.466 11.1308 5.79149 11.1308 6.20997V8.95334H10.3047V3.65259C10.3047 3.23411 9.9834 2.90863 9.57032 2.90863C9.15724 2.90863 8.83595 3.23411 8.83595 3.65259V8.83709H8.00979V2.60639C8.00979 2.14141 7.68851 1.74618 7.27543 1.74618C6.86235 1.74618 6.54106 2.11816 6.54106 2.60639V8.86034H5.7149V4.81504C5.7149 4.39656 5.39362 4.07107 4.98053 4.07107C4.56745 4.07107 4.24617 4.39656 4.24617 4.81504V10.4413L5.09528 11.3247L4.49861 11.9059ZM4.48713 10.343V4.81504C4.48713 4.52929 4.70183 4.31379 4.98053 4.31379C5.25923 4.31379 5.47394 4.52929 5.47394 4.81504V9.10306H6.78203V2.60639C6.78203 2.21741 7.02754 1.9889 7.27543 1.9889C7.51947 1.9889 7.76883 2.23611 7.76883 2.60639V9.07981H9.07692V3.65259C9.07692 3.36685 9.29162 3.15135 9.57032 3.15135C9.84902 3.15135 10.0637 3.36685 10.0637 3.65259V9.19606H11.3718V6.20997C11.3718 5.92423 11.5865 5.70872 11.8652 5.70872C12.1439 5.70872 12.3586 5.92423 12.3586 6.20997V12.0222C12.3586 14.2143 10.5834 16.0108 8.42287 16.0108C7.47234 16.0108 6.5692 15.6841 5.85934 15.0556L5.3848 14.552L1.77845 10.8751C1.69133 10.7869 1.64146 10.6647 1.64146 10.511C1.64146 10.3573 1.69079 10.2357 1.77791 10.1474C1.86492 10.0593 1.9843 10.0098 2.13487 10.0098C2.258 10.0098 2.3784 10.0563 2.46795 10.1465L4.03378 11.772C4.28709 12.0349 4.70599 12.0416 4.96754 11.7868C5.22683 11.5342 5.23365 11.1197 4.98282 10.8588L4.48713 10.343Z" fill="#484482"/>
</svg>
