<svg width="40" height="40" viewBox="0 0 40 40" fill="none" xmlns="http://www.w3.org/2000/svg">
<circle cx="20" cy="20" r="19.25" stroke="#737B7D" stroke-width="1.5"/>
<path d="M21 11C16.03 11 12 15.03 12 20H9L12.89 23.89L12.96 24.03L17 20H14C14 16.13 17.13 13 21 13C24.87 13 28 16.13 28 20C28 23.87 24.87 27 21 27C19.07 27 17.32 26.21 16.06 24.94L14.64 26.36C16.27 27.99 18.51 29 21 29C25.97 29 30 24.97 30 20C30 15.03 25.97 11 21 11ZM20 16V21L24.28 23.54L25 22.33L21.5 20.25V16H20Z" fill="#737B7D"/>
</svg>
