<svg width="135" height="40" viewBox="0 0 135 40" fill="none" xmlns="http://www.w3.org/2000/svg">
<g clip-path="url(#clip0)">
<path d="M29.1064 15.5447V24.4185L21.9517 20.2748V11.401L29.1064 15.5447ZM7.38879 11.8506L14.5435 15.9943V7.12053L7.38879 2.97684V11.8506Z" fill="url(#paint0_linear)"/>
<path d="M14.5629 7.12018L21.9515 11.4007V20.2744V28.5618L14.5629 32.8423V15.9939V7.12018ZM0 1.7842V7.56973V38.1783C0 39.5465 1.48163 40.4065 2.67083 39.7224L7.38866 36.986V11.8502V2.97649L2.67083 0.240085C1.48163 -0.444016 0 0.415996 0 1.7842ZM34.097 18.4371L29.1062 15.5444V24.4181L34.097 21.5254C35.2862 20.8413 35.2862 19.1408 34.097 18.4371Z" fill="url(#paint1_linear)"/>
<path d="M39.5751 14.6456H41.895V16.1702H41.934C42.1484 15.7011 42.4993 15.2906 42.9867 14.9388C43.4741 14.587 44.1174 14.3915 44.9362 14.3915C46.4764 14.3915 47.4901 14.9975 47.9775 16.2093C48.3284 15.5838 48.7768 15.1343 49.3031 14.8411C49.8295 14.5479 50.4534 14.4111 51.1942 14.4111C51.8375 14.4111 52.3834 14.5284 52.8318 14.7434C53.2802 14.9584 53.6506 15.2516 53.9235 15.6425C54.1964 16.0138 54.3914 16.4634 54.5278 16.9716C54.6448 17.4798 54.7033 18.027 54.7033 18.6134V24.438H52.2664V18.8871C52.2664 18.5939 52.2469 18.3007 52.1884 18.027C52.1299 17.7534 52.0325 17.4993 51.896 17.2843C51.7595 17.0693 51.5841 16.9129 51.3501 16.7761C51.1162 16.6588 50.8238 16.6002 50.4534 16.6002C50.0829 16.6002 49.7515 16.6784 49.4981 16.8152C49.2252 16.952 49.0107 17.1475 48.8548 17.382C48.6793 17.6166 48.5623 17.8902 48.4843 18.203C48.4064 18.5157 48.3674 18.8089 48.3674 19.1216V24.4185H45.9305V18.5939C45.9305 17.988 45.794 17.4993 45.5406 17.1279C45.2871 16.7761 44.8583 16.5807 44.2539 16.5807C43.8445 16.5807 43.5131 16.6393 43.2207 16.7761C42.9477 16.9129 42.7138 17.0888 42.5383 17.3234C42.3629 17.5579 42.2264 17.812 42.1484 18.1248C42.0704 18.418 42.0315 18.7307 42.0315 19.063V24.3989H39.5751V14.6456Z" fill="#312783"/>
<path d="M58.8947 20.3921C58.9727 21.1348 59.2651 21.7016 59.7525 22.1121C60.2399 22.5226 60.8247 22.718 61.5266 22.718C62.1309 22.718 62.6378 22.6007 63.0667 22.3467C63.4761 22.0926 63.8465 21.7798 64.1584 21.4085L65.913 22.7376C65.3476 23.4412 64.7043 23.9494 64.0024 24.2426C63.3006 24.5358 62.5598 24.6921 61.78 24.6921C61.0392 24.6921 60.3569 24.5749 59.7135 24.3208C59.0702 24.0667 58.5048 23.7344 58.0369 23.2848C57.5691 22.8353 57.1792 22.288 56.9062 21.6626C56.6333 21.0371 56.4968 20.3334 56.4968 19.5516C56.4968 18.7698 56.6333 18.0661 56.9062 17.4407C57.1792 16.8152 57.5691 16.2679 58.0369 15.8184C58.5048 15.3688 59.0702 15.017 59.7135 14.7825C60.3569 14.5284 61.0587 14.4111 61.78 14.4111C62.4623 14.4111 63.0862 14.5284 63.632 14.7629C64.1974 14.9975 64.6653 15.3493 65.0747 15.7988C65.4646 16.2484 65.7765 16.7957 66.0105 17.4602C66.2249 18.1248 66.3419 18.8675 66.3419 19.7275V20.3921H58.8947ZM63.905 18.5548C63.8855 17.8316 63.671 17.2648 63.2421 16.8543C62.8132 16.4438 62.2089 16.2288 61.4291 16.2288C60.6883 16.2288 60.1229 16.4438 59.694 16.8543C59.2651 17.2843 59.0117 17.8316 58.9142 18.5352H63.905V18.5548Z" fill="#312783"/>
<path d="M75.9335 22.9525H75.8945C75.5436 23.5585 75.0757 23.9885 74.4714 24.2621C73.867 24.5358 73.2237 24.6726 72.5413 24.6726C71.781 24.6726 71.1182 24.5358 70.5139 24.2817C69.929 24.008 69.4221 23.6562 68.9932 23.1871C68.5643 22.718 68.2524 22.1903 68.038 21.5648C67.8235 20.9393 67.7065 20.2748 67.7065 19.5516C67.7065 18.8284 67.8235 18.1638 68.0575 17.5384C68.2914 16.9129 68.6033 16.3656 69.0322 15.9161C69.4416 15.447 69.9485 15.0952 70.5333 14.8215C71.1182 14.5479 71.7615 14.4306 72.4439 14.4306C72.9118 14.4306 73.3017 14.4697 73.6721 14.5674C74.023 14.6652 74.3349 14.7824 74.6078 14.9388C74.8808 15.0952 75.1147 15.2515 75.2902 15.4079C75.4851 15.5838 75.6411 15.7402 75.758 15.9161H75.8165V9.01645H78.2534V24.4185H75.9335V22.9525ZM70.1629 19.532C70.1629 19.9034 70.2214 20.2748 70.3579 20.6266C70.4944 20.9784 70.6698 21.2912 70.9232 21.5648C71.1767 21.8384 71.4691 22.0534 71.82 22.2098C72.1709 22.3662 72.5803 22.4639 73.0092 22.4639C73.4576 22.4639 73.8475 22.3857 74.1984 22.2098C74.5493 22.0534 74.8613 21.8384 75.0952 21.5648C75.3486 21.2912 75.5436 20.9784 75.6606 20.6266C75.797 20.2748 75.8555 19.9034 75.8555 19.532C75.8555 19.1607 75.797 18.7893 75.6606 18.4375C75.5241 18.0857 75.3486 17.7729 75.0952 17.4993C74.8418 17.2257 74.5493 17.0106 74.1984 16.8543C73.8475 16.6979 73.4381 16.6002 73.0092 16.6002C72.5608 16.6002 72.1709 16.6784 71.82 16.8543C71.4691 17.0106 71.1572 17.2257 70.9232 17.4993C70.6698 17.7729 70.4749 18.0857 70.3579 18.4375C70.2214 18.7893 70.1629 19.1607 70.1629 19.532Z" fill="#312783"/>
<path d="M80.3004 11.3228C80.3004 10.9319 80.4369 10.5801 80.7293 10.2869C81.0217 9.99374 81.3921 9.85692 81.8405 9.85692C82.2889 9.85692 82.6593 9.99374 82.9712 10.2674C83.2832 10.541 83.4196 10.8928 83.4196 11.3228C83.4196 11.7529 83.2637 12.0851 82.9712 12.3783C82.6593 12.652 82.2889 12.7888 81.8405 12.7888C81.3921 12.7888 81.0217 12.652 80.7293 12.3588C80.4369 12.0656 80.3004 11.7138 80.3004 11.3228ZM80.6513 14.6456H83.0882V24.4185H80.6513V14.6456Z" fill="#312783"/>
<path d="M91.5686 23.0698H91.5101C91.1592 23.6171 90.7108 24.0276 90.1649 24.2817C89.619 24.5358 89.0342 24.653 88.3714 24.653C87.923 24.653 87.4941 24.5944 87.0652 24.4771C86.6363 24.3599 86.2659 24.1644 85.9345 23.9299C85.603 23.6758 85.3301 23.3826 85.1352 23.0112C84.9402 22.6398 84.8232 22.2098 84.8232 21.7212C84.8232 21.1935 84.9207 20.7439 85.1157 20.3725C85.3106 20.0012 85.5641 19.6884 85.876 19.4343C86.1879 19.1802 86.5583 18.9848 86.9872 18.8284C87.4161 18.6721 87.845 18.5743 88.2934 18.4961C88.7418 18.418 89.2096 18.3789 89.658 18.3593C90.1259 18.3398 90.5548 18.3202 90.9642 18.3202H91.5686V18.0466C91.5686 17.4407 91.3541 16.9716 90.9447 16.6784C90.5158 16.3657 89.9894 16.2288 89.3461 16.2288C88.8392 16.2288 88.3519 16.3266 87.9035 16.5025C87.4551 16.6784 87.0652 16.9325 86.7533 17.2452L85.4666 15.9552C86.0124 15.4079 86.6363 14.9975 87.3576 14.7629C88.0789 14.5088 88.8392 14.3915 89.5996 14.3915C90.2819 14.3915 90.8667 14.4697 91.3541 14.6261C91.822 14.7825 92.2119 14.9779 92.5238 15.232C92.8357 15.4861 93.0697 15.7597 93.2451 16.0725C93.4206 16.3852 93.5376 16.7175 93.6156 17.0302C93.6935 17.3625 93.7325 17.6752 93.752 17.9684C93.7715 18.2811 93.7715 18.5352 93.7715 18.7698V24.3989H91.5686V23.0698ZM91.4321 20.0403H90.9252C90.5938 20.0403 90.2039 20.0598 89.7945 20.0793C89.3656 20.0989 88.9757 20.1771 88.6053 20.2748C88.2349 20.3725 87.923 20.5289 87.6695 20.7244C87.4161 20.9198 87.2796 21.1935 87.2796 21.5453C87.2796 21.7798 87.3381 21.9753 87.4356 22.1316C87.5331 22.288 87.6695 22.4248 87.8255 22.5226C87.9815 22.6398 88.1764 22.718 88.3714 22.7571C88.5663 22.7962 88.7808 22.8353 88.9757 22.8353C89.814 22.8353 90.4378 22.6398 90.8277 22.2294C91.2176 21.8385 91.4321 21.2912 91.4321 20.5875V20.0403Z" fill="#312783"/>
<path d="M96.0134 9.01645H98.4503V24.4185H96.0134V9.01645Z" fill="#312783"/>
<path d="M100.361 19.5321C100.361 18.7502 100.497 18.0466 100.77 17.4211C101.043 16.7957 101.433 16.2484 101.901 15.7988C102.369 15.3493 102.934 14.9975 103.578 14.7629C104.221 14.5088 104.923 14.3915 105.644 14.3915C106.385 14.3915 107.067 14.5088 107.711 14.7629C108.354 15.017 108.919 15.3493 109.387 15.7988C109.855 16.2484 110.245 16.7957 110.518 17.4211C110.791 18.0466 110.927 18.7502 110.927 19.5321C110.927 20.3139 110.791 21.0175 110.518 21.643C110.245 22.2685 109.855 22.8157 109.387 23.2653C108.919 23.7148 108.354 24.0667 107.711 24.3012C107.067 24.5553 106.365 24.6726 105.644 24.6726C104.903 24.6726 104.221 24.5553 103.578 24.3012C102.934 24.0471 102.369 23.7148 101.901 23.2653C101.433 22.8157 101.043 22.2685 100.77 21.643C100.517 21.0175 100.361 20.3139 100.361 19.5321ZM102.798 19.5321C102.798 19.9034 102.856 20.2748 102.993 20.6266C103.129 20.9784 103.305 21.2912 103.558 21.5648C103.811 21.8385 104.104 22.0535 104.455 22.2098C104.806 22.3662 105.215 22.4639 105.644 22.4639C106.092 22.4639 106.482 22.3857 106.833 22.2098C107.184 22.0535 107.496 21.8385 107.73 21.5648C107.983 21.2912 108.178 20.9784 108.295 20.6266C108.432 20.2748 108.49 19.9034 108.49 19.5321C108.49 19.1607 108.432 18.7893 108.295 18.4375C108.159 18.0857 107.983 17.773 107.73 17.4993C107.477 17.2257 107.184 17.0107 106.833 16.8543C106.482 16.6979 106.073 16.6002 105.644 16.6002C105.196 16.6002 104.806 16.6784 104.455 16.8543C104.104 17.0107 103.792 17.2257 103.558 17.4993C103.305 17.773 103.11 18.0857 102.993 18.4375C102.876 18.7893 102.798 19.1607 102.798 19.5321Z" fill="#312783"/>
<path d="M122.878 14.6456V23.5389C122.878 24.4185 122.761 25.2199 122.546 25.9235C122.332 26.6272 122.001 27.2331 121.533 27.7413C121.084 28.2299 120.499 28.6208 119.817 28.8945C119.135 29.1681 118.316 29.3049 117.361 29.3049C116.444 29.3049 115.587 29.1876 114.787 28.9531C113.969 28.7186 113.228 28.3081 112.526 27.6826L113.988 25.689C114.475 26.1385 114.982 26.4903 115.509 26.7249C116.035 26.9594 116.639 27.0963 117.341 27.0963C117.926 27.0963 118.413 27.0181 118.823 26.8422C119.213 26.6858 119.544 26.4512 119.778 26.1776C120.012 25.8844 120.187 25.5521 120.285 25.1417C120.382 24.7508 120.441 24.3012 120.441 23.8126V23.1089H120.402C120.051 23.578 119.583 23.9494 118.998 24.1839C118.413 24.4185 117.829 24.5358 117.205 24.5358C116.464 24.5358 115.801 24.3989 115.216 24.1449C114.612 23.8712 114.105 23.5194 113.676 23.0698C113.247 22.6203 112.916 22.0926 112.682 21.4866C112.448 20.8807 112.331 20.2162 112.331 19.5321C112.331 18.8089 112.448 18.1443 112.662 17.5189C112.877 16.8934 113.189 16.3461 113.618 15.8966C114.046 15.4275 114.534 15.0756 115.138 14.802C115.723 14.5284 116.405 14.4111 117.166 14.4111C117.848 14.4111 118.491 14.5479 119.096 14.8215C119.7 15.0952 120.168 15.5252 120.519 16.1311H120.558V14.6652H122.878V14.6456ZM117.673 16.6002C117.244 16.6002 116.854 16.6784 116.503 16.8152C116.152 16.952 115.84 17.1475 115.606 17.4016C115.353 17.6557 115.158 17.9489 115.021 18.3202C114.885 18.6721 114.807 19.0825 114.807 19.5125C114.807 19.9034 114.885 20.2748 115.021 20.6071C115.158 20.9394 115.372 21.2521 115.626 21.5062C115.879 21.7603 116.191 21.9753 116.542 22.1121C116.893 22.2685 117.283 22.3271 117.673 22.3271C118.121 22.3271 118.53 22.2489 118.881 22.1121C119.232 21.9557 119.544 21.7603 119.798 21.5062C120.051 21.2521 120.246 20.9589 120.382 20.6071C120.519 20.2553 120.577 19.8643 120.577 19.4734C120.577 18.6134 120.324 17.9293 119.798 17.4016C119.271 16.8738 118.569 16.6002 117.673 16.6002Z" fill="#312783"/>
<path d="M123.911 14.6456H126.601L129.331 21.428H129.37L131.807 14.6456H134.341L129.721 26.5294C129.545 26.9985 129.35 27.3894 129.136 27.7413C128.921 28.0931 128.687 28.3863 128.395 28.6208C128.102 28.8554 127.771 29.0313 127.381 29.1486C126.991 29.2658 126.523 29.3245 125.997 29.3245C125.354 29.3245 124.73 29.2463 124.125 29.0899L124.437 26.8813C124.632 26.9399 124.827 26.9985 125.042 27.0572C125.256 27.0963 125.471 27.1353 125.685 27.1353C125.977 27.1353 126.231 27.1158 126.445 27.0572C126.64 26.9985 126.816 26.9203 126.972 26.8031C127.108 26.6858 127.225 26.5294 127.323 26.3535C127.42 26.1776 127.518 25.9431 127.635 25.689L128.102 24.5358L123.911 14.6456Z" fill="#312783"/>
</g>
<defs>
<linearGradient id="paint0_linear" x1="20.0582" y1="10.6165" x2="14.0401" y2="20.8395" gradientUnits="userSpaceOnUse">
<stop stop-color="#312783"/>
<stop offset="0.5" stop-color="#0084CA"/>
<stop offset="1" stop-color="#83C7AD"/>
</linearGradient>
<linearGradient id="paint1_linear" x1="2.0079" y1="39.961" x2="18.1845" y2="9.75525" gradientUnits="userSpaceOnUse">
<stop stop-color="#312783"/>
<stop offset="0.5" stop-color="#0084CA"/>
<stop offset="1" stop-color="#83C7AD"/>
</linearGradient>
<clipPath id="clip0">
<rect width="134.286" height="40" fill="white"/>
</clipPath>
</defs>
</svg>
