<svg width="18" height="20" viewBox="0 0 18 20" fill="none" xmlns="http://www.w3.org/2000/svg">
<path d="M14 6.66667C14 5.34059 13.4732 4.06882 12.5355 3.13114C11.5979 2.19346 10.3261 1.66667 9 1.66667C7.67392 1.66667 6.40215 2.19346 5.46447 3.13114C4.52678 4.06882 4 5.34059 4 6.66667C4 12.5 1.5 14.1667 1.5 14.1667H16.5C16.5 14.1667 14 12.5 14 6.66667Z" stroke="#737B7D" stroke-width="1.5" stroke-linecap="round" stroke-linejoin="round"/>
<path d="M10.4417 17.5C10.2952 17.7526 10.0849 17.9622 9.83187 18.1079C9.57886 18.2537 9.292 18.3304 9.00002 18.3304C8.70803 18.3304 8.42117 18.2537 8.16816 18.1079C7.91515 17.9622 7.70486 17.7526 7.55835 17.5" stroke="#737B7D" stroke-width="1.5" stroke-linecap="round" stroke-linejoin="round"/>
</svg>
