<svg width="18" height="18" viewBox="0 0 18 18" fill="none" xmlns="http://www.w3.org/2000/svg">
<path d="M12.3334 7.55835L8.16669 5.15002C7.91345 5.00381 7.6262 4.9268 7.33378 4.92673C7.04137 4.92665 6.75408 5.00351 6.50076 5.14959C6.24745 5.29567 6.03702 5.50583 5.89062 5.75895C5.74422 6.01208 5.66699 6.29927 5.66669 6.59169V11.4084C5.66699 11.7006 5.74414 11.9877 5.89041 12.2407C6.03667 12.4938 6.24691 12.7039 6.50002 12.85C6.75339 12.9963 7.0408 13.0733 7.33336 13.0733C7.62592 13.0733 7.91333 12.9963 8.16669 12.85L12.3334 10.4417C12.5859 10.2952 12.7956 10.0849 12.9413 9.83188C13.087 9.57886 13.1637 9.292 13.1637 9.00002C13.1637 8.70804 13.087 8.42118 12.9413 8.16817C12.7956 7.91515 12.5859 7.70486 12.3334 7.55835ZM11.5 9.00002L7.33336 11.4084V6.59169L11.5 9.00002ZM9.00002 0.666687C7.35185 0.666687 5.74068 1.15543 4.37027 2.07111C2.99986 2.98679 1.93176 4.28827 1.30103 5.81099C0.670298 7.33371 0.50527 9.00926 0.826813 10.6258C1.14836 12.2423 1.94203 13.7271 3.10747 14.8926C4.27291 16.058 5.75776 16.8517 7.37427 17.1732C8.99078 17.4948 10.6663 17.3297 12.1891 16.699C13.7118 16.0683 15.0133 15.0002 15.9289 13.6298C16.8446 12.2594 17.3334 10.6482 17.3334 9.00002C17.3334 7.90567 17.1178 6.82204 16.699 5.81099C16.2802 4.79994 15.6664 3.88129 14.8926 3.10746C14.1188 2.33364 13.2001 1.71981 12.1891 1.30102C11.178 0.882235 10.0944 0.666687 9.00002 0.666687ZM9.00002 15.6667C7.68148 15.6667 6.39255 15.2757 5.29622 14.5432C4.19989 13.8106 3.34541 12.7694 2.84083 11.5512C2.33624 10.3331 2.20422 8.99263 2.46146 7.69942C2.71869 6.40621 3.35363 5.21833 4.28598 4.28598C5.21833 3.35363 6.40622 2.71869 7.69942 2.46145C8.99263 2.20422 10.3331 2.33624 11.5512 2.84082C12.7694 3.34541 13.8106 4.19989 14.5432 5.29622C15.2757 6.39255 15.6667 7.68148 15.6667 9.00002C15.6667 10.7681 14.9643 12.4638 13.7141 13.7141C12.4638 14.9643 10.7681 15.6667 9.00002 15.6667Z" fill="#484482"/>
</svg>
