<svg width="14" height="14" viewBox="0 0 14 14" fill="none" xmlns="http://www.w3.org/2000/svg">
<path d="M7.00016 0.333328C3.32016 0.333328 0.333496 3.31999 0.333496 7C0.333496 10.68 3.32016 13.6667 7.00016 13.6667C10.6802 13.6667 13.6668 10.68 13.6668 7C13.6668 3.31999 10.6802 0.333328 7.00016 0.333328ZM7.94016 11.06V12.3333H6.16016V11.0467C5.02016 10.8067 4.0535 10.0733 3.98016 8.77999H5.28683C5.3535 9.47999 5.8335 10.0267 7.0535 10.0267C8.36016 10.0267 8.6535 9.37333 8.6535 8.96666C8.6535 8.41333 8.36016 7.89333 6.8735 7.54C5.22016 7.14 4.08683 6.46 4.08683 5.09333C4.08683 3.94666 5.0135 3.19999 6.16016 2.95333V1.66666H7.94016V2.96666C9.18016 3.26666 9.80016 4.20666 9.84016 5.22666H8.5335C8.50016 4.48666 8.10683 3.97999 7.0535 3.97999C6.0535 3.97999 5.4535 4.43333 5.4535 5.07333C5.4535 5.63333 5.88683 6 7.2335 6.34666C8.58016 6.69333 10.0202 7.27333 10.0202 8.95333C10.0135 10.1733 9.10016 10.84 7.94016 11.06Z" fill="#323232"/>
</svg>
