<svg width="90" height="90" viewBox="0 0 90 90" fill="none" xmlns="http://www.w3.org/2000/svg">
<circle cx="45" cy="45" r="42.5" fill="#7D7D7D" fill-opacity="0.5" stroke="#E9E9E9" stroke-width="5"/>
<g opacity="0.1">
<path d="M56.6667 30H33.3333C31.4924 30 30 31.4924 30 33.3333V56.6667C30 58.5076 31.4924 60 33.3333 60H56.6667C58.5076 60 60 58.5076 60 56.6667V33.3333C60 31.4924 58.5076 30 56.6667 30Z" stroke="#3C64B1" stroke-width="1.5" stroke-linecap="round" stroke-linejoin="round"/>
<path d="M39.166 41.6666C40.5467 41.6666 41.666 40.5474 41.666 39.1666C41.666 37.7859 40.5467 36.6666 39.166 36.6666C37.7853 36.6666 36.666 37.7859 36.666 39.1666C36.666 40.5474 37.7853 41.6666 39.166 41.6666Z" stroke="#3C64B1" stroke-width="1.5" stroke-linecap="round" stroke-linejoin="round"/>
<path d="M60.0007 50L51.6673 41.6666L33.334 60" stroke="#3C64B1" stroke-width="1.5" stroke-linecap="round" stroke-linejoin="round"/>
</g>
<path d="M39.2493 52.9925L31.2568 45L28.5352 47.7025L39.2493 58.4167L62.2493 35.4167L59.5468 32.7142L39.2493 52.9925Z" fill="white"/>
</svg>
