<svg width="14" height="14" viewBox="0 0 14 14" fill="none" xmlns="http://www.w3.org/2000/svg">
<path d="M11.7602 7.62666C11.7869 7.42666 11.8002 7.22 11.8002 7C11.8002 6.78667 11.7869 6.57333 11.7536 6.37333L13.1069 5.32C13.2269 5.22667 13.2602 5.04667 13.1869 4.91333L11.9069 2.7C11.8269 2.55333 11.6602 2.50667 11.5136 2.55333L9.92024 3.19333C9.5869 2.94 9.23357 2.72667 8.84024 2.56667L8.60024 0.873332C8.57357 0.713332 8.44024 0.599998 8.28024 0.599998H5.72024C5.56024 0.599998 5.43357 0.713332 5.4069 0.873332L5.1669 2.56667C4.77357 2.72667 4.41357 2.94667 4.0869 3.19333L2.49357 2.55333C2.3469 2.5 2.18024 2.55333 2.10024 2.7L0.826903 4.91333C0.746903 5.05333 0.773569 5.22667 0.906903 5.32L2.26024 6.37333C2.2269 6.57333 2.20024 6.79333 2.20024 7C2.20024 7.20667 2.21357 7.42666 2.2469 7.62666L0.893569 8.68C0.773569 8.77333 0.740236 8.95333 0.813569 9.08667L2.09357 11.3C2.17357 11.4467 2.34024 11.4933 2.4869 11.4467L4.08024 10.8067C4.41357 11.06 4.7669 11.2733 5.16024 11.4333L5.40024 13.1267C5.43357 13.2867 5.56024 13.4 5.72024 13.4H8.28024C8.44024 13.4 8.57357 13.2867 8.59357 13.1267L8.83357 11.4333C9.2269 11.2733 9.5869 11.06 9.91357 10.8067L11.5069 11.4467C11.6536 11.5 11.8202 11.4467 11.9002 11.3L13.1802 9.08667C13.2602 8.94 13.2269 8.77333 13.1002 8.68L11.7602 7.62666ZM7.00024 9.4C5.68024 9.4 4.60024 8.32 4.60024 7C4.60024 5.68 5.68024 4.6 7.00024 4.6C8.32024 4.6 9.40024 5.68 9.40024 7C9.40024 8.32 8.32024 9.4 7.00024 9.4Z" fill="#323232"/>
</svg>
