<svg width="18" height="18" viewBox="0 0 18 18" fill="none" xmlns="http://www.w3.org/2000/svg">
<path d="M14 10.6667C13.5076 10.6699 13.0221 10.7822 12.5783 10.9955C12.1346 11.2087 11.7435 11.5176 11.4333 11.9L7.18334 9.94166C7.38316 9.32978 7.38316 8.6702 7.18334 8.05833L11.4333 6.09999C11.9347 6.70497 12.6336 7.11339 13.4068 7.25319C14.18 7.39299 14.9777 7.25518 15.6591 6.86408C16.3406 6.47298 16.862 5.85372 17.1313 5.11561C17.4006 4.3775 17.4005 3.56798 17.1311 2.82992C16.8616 2.09185 16.3401 1.4727 15.6586 1.08172C14.9771 0.690738 14.1793 0.553071 13.4062 0.693013C12.6331 0.832955 11.9342 1.24151 11.433 1.84657C10.9317 2.45163 10.6603 3.21431 10.6667 3.99999C10.6692 4.19852 10.6887 4.39647 10.725 4.59166L6.325 6.61666C5.8559 6.15798 5.26187 5.84792 4.61734 5.72535C3.97281 5.60278 3.30644 5.67313 2.70171 5.9276C2.09699 6.18208 1.58081 6.60934 1.21784 7.15588C0.854868 7.70241 0.661255 8.34391 0.661255 8.99999C0.661255 9.65608 0.854868 10.2976 1.21784 10.8441C1.58081 11.3906 2.09699 11.8179 2.70171 12.0724C3.30644 12.3269 3.97281 12.3972 4.61734 12.2746C5.26187 12.1521 5.8559 11.842 6.325 11.3833L10.725 13.4083C10.6887 13.6035 10.6692 13.8015 10.6667 14C10.6667 14.6593 10.8622 15.3037 11.2284 15.8519C11.5947 16.4001 12.1153 16.8273 12.7244 17.0796C13.3335 17.3319 14.0037 17.3979 14.6503 17.2693C15.2969 17.1407 15.8909 16.8232 16.357 16.357C16.8232 15.8908 17.1407 15.2969 17.2693 14.6503C17.3979 14.0037 17.3319 13.3335 17.0796 12.7244C16.8273 12.1153 16.4001 11.5947 15.8519 11.2284C15.3037 10.8622 14.6593 10.6667 14 10.6667ZM14 2.33333C14.3296 2.33333 14.6519 2.43108 14.926 2.61421C15.2 2.79735 15.4137 3.05764 15.5398 3.36219C15.6659 3.66673 15.699 4.00184 15.6346 4.32514C15.5703 4.64845 15.4116 4.94542 15.1785 5.17851C14.9454 5.41159 14.6485 5.57033 14.3252 5.63464C14.0019 5.69895 13.6667 5.66594 13.3622 5.53979C13.0577 5.41365 12.7974 5.20003 12.6142 4.92594C12.4311 4.65186 12.3333 4.32963 12.3333 3.99999C12.3333 3.55797 12.5089 3.13404 12.8215 2.82148C13.1341 2.50892 13.558 2.33333 14 2.33333ZM4 10.6667C3.67037 10.6667 3.34813 10.5689 3.07405 10.3858C2.79997 10.2026 2.58635 9.94234 2.4602 9.6378C2.33406 9.33326 2.30105 8.99815 2.36536 8.67484C2.42967 8.35154 2.5884 8.05457 2.82149 7.82148C3.05458 7.5884 3.35155 7.42966 3.67485 7.36535C3.99815 7.30104 4.33327 7.33405 4.63781 7.4602C4.94235 7.58634 5.20265 7.79996 5.38579 8.07404C5.56892 8.34813 5.66667 8.67036 5.66667 8.99999C5.66667 9.44202 5.49108 9.86594 5.17851 10.1785C4.86595 10.4911 4.44203 10.6667 4 10.6667ZM14 15.6667C13.6704 15.6667 13.3481 15.5689 13.0741 15.3858C12.8 15.2026 12.5864 14.9423 12.4602 14.6378C12.3341 14.3333 12.3011 13.9981 12.3654 13.6748C12.4297 13.3515 12.5884 13.0546 12.8215 12.8215C13.0546 12.5884 13.3516 12.4297 13.6749 12.3654C13.9982 12.301 14.3333 12.334 14.6378 12.4602C14.9424 12.5863 15.2027 12.8 15.3858 13.074C15.5689 13.3481 15.6667 13.6704 15.6667 14C15.6667 14.442 15.4911 14.8659 15.1785 15.1785C14.866 15.4911 14.442 15.6667 14 15.6667Z" fill="#484482"/>
</svg>
