<svg width="24" height="24" viewBox="0 0 24 24" fill="none" xmlns="http://www.w3.org/2000/svg">
<circle cx="12" cy="12" r="11.25" stroke="#737B7D" stroke-width="1.5"/>
<path d="M11.994 6C8.682 6 6 8.688 6 12C6 15.312 8.682 18 11.994 18C15.312 18 18 15.312 18 12C18 8.688 15.312 6 11.994 6ZM12 16.8C9.348 16.8 7.2 14.652 7.2 12C7.2 9.348 9.348 7.2 12 7.2C14.652 7.2 16.8 9.348 16.8 12C16.8 14.652 14.652 16.8 12 16.8ZM14.1 11.4C14.598 11.4 15 10.998 15 10.5C15 10.002 14.598 9.6 14.1 9.6C13.602 9.6 13.2 10.002 13.2 10.5C13.2 10.998 13.602 11.4 14.1 11.4ZM9.9 11.4C10.398 11.4 10.8 10.998 10.8 10.5C10.8 10.002 10.398 9.6 9.9 9.6C9.402 9.6 9 10.002 9 10.5C9 10.998 9.402 11.4 9.9 11.4ZM12 15.3C13.398 15.3 14.586 14.424 15.066 13.2H8.934C9.414 14.424 10.602 15.3 12 15.3Z" fill="#737B7D"/>
</svg>
