<svg width="18" height="18" viewBox="0 0 18 18" fill="none" xmlns="http://www.w3.org/2000/svg">
<path d="M16.5 0.666687H1.5C1.27898 0.666687 1.06702 0.754484 0.910742 0.910765C0.754461 1.06704 0.666664 1.27901 0.666664 1.50002V16.5C0.666664 16.721 0.754461 16.933 0.910742 17.0893C1.06702 17.2456 1.27898 17.3334 1.5 17.3334H16.5C16.721 17.3334 16.933 17.2456 17.0893 17.0893C17.2455 16.933 17.3333 16.721 17.3333 16.5V1.50002C17.3333 1.27901 17.2455 1.06704 17.0893 0.910765C16.933 0.754484 16.721 0.666687 16.5 0.666687ZM15.6667 15.6667H2.33333V2.33335H15.6667V15.6667Z" fill="#484482"/>
</svg>
