<svg width="773" height="203" viewBox="0 0 773 203" fill="none" xmlns="http://www.w3.org/2000/svg">
<rect x="11" y="50" width="45" height="107" rx="22.5" fill="#EAEAEA"/>
<rect x="553" y="84" width="45" height="73" rx="22.5" fill="#EAEAEA"/>
<rect x="93" y="11" width="45" height="146" rx="22.5" fill="#EAEAEA"/>
<rect x="633" width="45" height="157" rx="22.5" fill="#EAEAEA"/>
<rect x="186" y="68" width="45" height="89" rx="22.5" fill="#EAEAEA"/>
<rect x="728" y="77" width="45" height="80" rx="22.5" fill="#EAEAEA"/>
<rect x="281" y="11" width="45" height="146" rx="22.5" fill="#EAEAEA"/>
<rect x="375" y="56" width="46" height="101" rx="23" fill="#EAEAEA"/>
<rect x="469" y="70" width="45" height="87" rx="22.5" fill="#EAEAEA"/>
<rect y="50" width="45" height="107" rx="22.5" fill="#C4C4C4"/>
<path d="M22.2 194.112C21.0613 194.112 20.1933 193.683 19.596 192.824C19.008 191.956 18.714 190.687 18.714 189.016C18.714 187.345 19.008 186.081 19.596 185.222C20.1933 184.354 21.0613 183.92 22.2 183.92C23.3387 183.92 24.202 184.354 24.79 185.222C25.3873 186.081 25.686 187.341 25.686 189.002C25.686 190.673 25.3873 191.942 24.79 192.81C24.202 193.678 23.3387 194.112 22.2 194.112ZM22.2 193.146C22.9933 193.146 23.5767 192.81 23.95 192.138C24.3327 191.466 24.524 190.421 24.524 189.002C24.524 187.593 24.3373 186.557 23.964 185.894C23.5907 185.231 23.0027 184.9 22.2 184.9C21.4067 184.9 20.8187 185.231 20.436 185.894C20.0627 186.557 19.876 187.593 19.876 189.002C19.876 190.411 20.0627 191.457 20.436 192.138C20.8187 192.81 21.4067 193.146 22.2 193.146ZM33.9445 193.034V194H28.3865V193.034H30.5845V185.46L28.5405 186.762V185.656L31.0885 184.032H31.7465V193.034H33.9445Z" fill="#737B7D"/>
<path d="M105.2 194.112C104.061 194.112 103.193 193.683 102.596 192.824C102.008 191.956 101.714 190.687 101.714 189.016C101.714 187.345 102.008 186.081 102.596 185.222C103.193 184.354 104.061 183.92 105.2 183.92C106.339 183.92 107.202 184.354 107.79 185.222C108.387 186.081 108.686 187.341 108.686 189.002C108.686 190.673 108.387 191.942 107.79 192.81C107.202 193.678 106.339 194.112 105.2 194.112ZM105.2 193.146C105.993 193.146 106.577 192.81 106.95 192.138C107.333 191.466 107.524 190.421 107.524 189.002C107.524 187.593 107.337 186.557 106.964 185.894C106.591 185.231 106.003 184.9 105.2 184.9C104.407 184.9 103.819 185.231 103.436 185.894C103.063 186.557 102.876 187.593 102.876 189.002C102.876 190.411 103.063 191.457 103.436 192.138C103.819 192.81 104.407 193.146 105.2 193.146ZM117.169 193.034V194H110.757V193.132L114.243 189.268C114.709 188.745 115.05 188.274 115.265 187.854C115.479 187.434 115.587 187.014 115.587 186.594C115.587 186.043 115.428 185.623 115.111 185.334C114.793 185.035 114.341 184.886 113.753 184.886C112.801 184.886 111.858 185.269 110.925 186.034L110.491 185.152C110.883 184.779 111.377 184.48 111.975 184.256C112.572 184.032 113.174 183.92 113.781 183.92C114.695 183.92 115.419 184.158 115.951 184.634C116.483 185.101 116.749 185.735 116.749 186.538C116.749 187.107 116.618 187.658 116.357 188.19C116.105 188.713 115.68 189.301 115.083 189.954L112.241 193.034H117.169Z" fill="#737B7D"/>
<path d="M188.2 194.112C187.061 194.112 186.193 193.683 185.596 192.824C185.008 191.956 184.714 190.687 184.714 189.016C184.714 187.345 185.008 186.081 185.596 185.222C186.193 184.354 187.061 183.92 188.2 183.92C189.339 183.92 190.202 184.354 190.79 185.222C191.387 186.081 191.686 187.341 191.686 189.002C191.686 190.673 191.387 191.942 190.79 192.81C190.202 193.678 189.339 194.112 188.2 194.112ZM188.2 193.146C188.993 193.146 189.577 192.81 189.95 192.138C190.333 191.466 190.524 190.421 190.524 189.002C190.524 187.593 190.337 186.557 189.964 185.894C189.591 185.231 189.003 184.9 188.2 184.9C187.407 184.9 186.819 185.231 186.436 185.894C186.063 186.557 185.876 187.593 185.876 189.002C185.876 190.411 186.063 191.457 186.436 192.138C186.819 192.81 187.407 193.146 188.2 193.146ZM198.167 188.876C198.755 189.044 199.203 189.333 199.511 189.744C199.819 190.155 199.973 190.673 199.973 191.298C199.973 192.166 199.679 192.852 199.091 193.356C198.503 193.851 197.705 194.098 196.697 194.098C196.053 194.098 195.432 193.991 194.835 193.776C194.247 193.561 193.747 193.258 193.337 192.866L193.785 191.984C194.709 192.749 195.67 193.132 196.669 193.132C197.378 193.132 197.915 192.973 198.279 192.656C198.652 192.339 198.839 191.872 198.839 191.256C198.839 190.033 198.073 189.422 196.543 189.422H195.395V188.456H196.319C197.056 188.456 197.621 188.293 198.013 187.966C198.405 187.639 198.601 187.173 198.601 186.566C198.601 186.025 198.437 185.609 198.111 185.32C197.793 185.031 197.341 184.886 196.753 184.886C195.801 184.886 194.858 185.269 193.925 186.034L193.491 185.152C193.892 184.769 194.382 184.471 194.961 184.256C195.549 184.032 196.16 183.92 196.795 183.92C197.691 183.92 198.405 184.149 198.937 184.606C199.478 185.063 199.749 185.679 199.749 186.454C199.749 187.023 199.609 187.523 199.329 187.952C199.049 188.381 198.661 188.689 198.167 188.876Z" fill="#737B7D"/>
<path d="M288.2 194.112C287.061 194.112 286.193 193.683 285.596 192.824C285.008 191.956 284.714 190.687 284.714 189.016C284.714 187.345 285.008 186.081 285.596 185.222C286.193 184.354 287.061 183.92 288.2 183.92C289.339 183.92 290.202 184.354 290.79 185.222C291.387 186.081 291.686 187.341 291.686 189.002C291.686 190.673 291.387 191.942 290.79 192.81C290.202 193.678 289.339 194.112 288.2 194.112ZM288.2 193.146C288.993 193.146 289.577 192.81 289.95 192.138C290.333 191.466 290.524 190.421 290.524 189.002C290.524 187.593 290.337 186.557 289.964 185.894C289.591 185.231 289.003 184.9 288.2 184.9C287.407 184.9 286.819 185.231 286.436 185.894C286.063 186.557 285.876 187.593 285.876 189.002C285.876 190.411 286.063 191.457 286.436 192.138C286.819 192.81 287.407 193.146 288.2 193.146ZM300.533 191.83H299.021V194H297.873V191.83H293.281V190.962L298.083 184.032H299.021V190.878H300.533V191.83ZM297.873 190.878V185.978L294.471 190.878H297.873Z" fill="#737B7D"/>
<path d="M382.2 194.112C381.061 194.112 380.193 193.683 379.596 192.824C379.008 191.956 378.714 190.687 378.714 189.016C378.714 187.345 379.008 186.081 379.596 185.222C380.193 184.354 381.061 183.92 382.2 183.92C383.339 183.92 384.202 184.354 384.79 185.222C385.387 186.081 385.686 187.341 385.686 189.002C385.686 190.673 385.387 191.942 384.79 192.81C384.202 193.678 383.339 194.112 382.2 194.112ZM382.2 193.146C382.993 193.146 383.577 192.81 383.95 192.138C384.333 191.466 384.524 190.421 384.524 189.002C384.524 187.593 384.337 186.557 383.964 185.894C383.591 185.231 383.003 184.9 382.2 184.9C381.407 184.9 380.819 185.231 380.436 185.894C380.063 186.557 379.876 187.593 379.876 189.002C379.876 190.411 380.063 191.457 380.436 192.138C380.819 192.81 381.407 193.146 382.2 193.146ZM391.215 187.742C391.84 187.742 392.386 187.877 392.853 188.148C393.329 188.409 393.693 188.778 393.945 189.254C394.197 189.73 394.323 190.281 394.323 190.906C394.323 191.531 394.183 192.087 393.903 192.572C393.632 193.057 393.24 193.435 392.727 193.706C392.223 193.967 391.63 194.098 390.949 194.098C390.342 194.098 389.745 193.991 389.157 193.776C388.569 193.552 388.074 193.249 387.673 192.866L388.107 191.984C389.031 192.749 389.978 193.132 390.949 193.132C391.649 193.132 392.195 192.936 392.587 192.544C392.988 192.143 393.189 191.601 393.189 190.92C393.189 190.257 392.993 189.725 392.601 189.324C392.209 188.913 391.686 188.708 391.033 188.708C390.081 188.708 389.32 189.095 388.751 189.87H387.953V184.032H393.931V184.984H389.101V188.54C389.651 188.008 390.356 187.742 391.215 187.742Z" fill="#737B7D"/>
<path d="M476.2 194.112C475.061 194.112 474.193 193.683 473.596 192.824C473.008 191.956 472.714 190.687 472.714 189.016C472.714 187.345 473.008 186.081 473.596 185.222C474.193 184.354 475.061 183.92 476.2 183.92C477.339 183.92 478.202 184.354 478.79 185.222C479.387 186.081 479.686 187.341 479.686 189.002C479.686 190.673 479.387 191.942 478.79 192.81C478.202 193.678 477.339 194.112 476.2 194.112ZM476.2 193.146C476.993 193.146 477.577 192.81 477.95 192.138C478.333 191.466 478.524 190.421 478.524 189.002C478.524 187.593 478.337 186.557 477.964 185.894C477.591 185.231 477.003 184.9 476.2 184.9C475.407 184.9 474.819 185.231 474.436 185.894C474.063 186.557 473.876 187.593 473.876 189.002C473.876 190.411 474.063 191.457 474.436 192.138C474.819 192.81 475.407 193.146 476.2 193.146ZM485.215 187.742C485.821 187.742 486.358 187.877 486.825 188.148C487.301 188.409 487.669 188.783 487.931 189.268C488.192 189.744 488.323 190.29 488.323 190.906C488.323 191.522 488.183 192.073 487.903 192.558C487.632 193.043 487.254 193.426 486.769 193.706C486.283 193.977 485.733 194.112 485.117 194.112C483.913 194.112 482.984 193.692 482.331 192.852C481.677 192.012 481.351 190.817 481.351 189.268C481.351 188.148 481.5 187.187 481.799 186.384C482.107 185.581 482.545 184.97 483.115 184.55C483.693 184.13 484.384 183.92 485.187 183.92C485.765 183.92 486.325 184.027 486.867 184.242C487.417 184.457 487.898 184.76 488.309 185.152L487.875 186.034C487.408 185.642 486.96 185.353 486.531 185.166C486.101 184.979 485.663 184.886 485.215 184.886C484.356 184.886 483.689 185.269 483.213 186.034C482.737 186.799 482.499 187.873 482.499 189.254V189.464C482.713 188.932 483.063 188.512 483.549 188.204C484.034 187.896 484.589 187.742 485.215 187.742ZM485.061 193.146C485.695 193.146 486.209 192.945 486.601 192.544C486.993 192.133 487.189 191.592 487.189 190.92C487.189 190.257 486.988 189.725 486.587 189.324C486.195 188.913 485.681 188.708 485.047 188.708C484.393 188.708 483.861 188.913 483.451 189.324C483.04 189.735 482.835 190.267 482.835 190.92C482.835 191.583 483.04 192.119 483.451 192.53C483.861 192.941 484.398 193.146 485.061 193.146Z" fill="#737B7D"/>
<path d="M560.2 194.112C559.061 194.112 558.193 193.683 557.596 192.824C557.008 191.956 556.714 190.687 556.714 189.016C556.714 187.345 557.008 186.081 557.596 185.222C558.193 184.354 559.061 183.92 560.2 183.92C561.339 183.92 562.202 184.354 562.79 185.222C563.387 186.081 563.686 187.341 563.686 189.002C563.686 190.673 563.387 191.942 562.79 192.81C562.202 193.678 561.339 194.112 560.2 194.112ZM560.2 193.146C560.993 193.146 561.577 192.81 561.95 192.138C562.333 191.466 562.524 190.421 562.524 189.002C562.524 187.593 562.337 186.557 561.964 185.894C561.591 185.231 561.003 184.9 560.2 184.9C559.407 184.9 558.819 185.231 558.436 185.894C558.063 186.557 557.876 187.593 557.876 189.002C557.876 190.411 558.063 191.457 558.436 192.138C558.819 192.81 559.407 193.146 560.2 193.146ZM572.085 184.032V184.886L567.409 194H566.177L570.825 184.998H565.505V184.032H572.085Z" fill="#737B7D"/>
<path d="M640.2 194.112C639.061 194.112 638.193 193.683 637.596 192.824C637.008 191.956 636.714 190.687 636.714 189.016C636.714 187.345 637.008 186.081 637.596 185.222C638.193 184.354 639.061 183.92 640.2 183.92C641.339 183.92 642.202 184.354 642.79 185.222C643.387 186.081 643.686 187.341 643.686 189.002C643.686 190.673 643.387 191.942 642.79 192.81C642.202 193.678 641.339 194.112 640.2 194.112ZM640.2 193.146C640.993 193.146 641.577 192.81 641.95 192.138C642.333 191.466 642.524 190.421 642.524 189.002C642.524 187.593 642.337 186.557 641.964 185.894C641.591 185.231 641.003 184.9 640.2 184.9C639.407 184.9 638.819 185.231 638.436 185.894C638.063 186.557 637.876 187.593 637.876 189.002C637.876 190.411 638.063 191.457 638.436 192.138C638.819 192.81 639.407 193.146 640.2 193.146ZM650.307 188.876C650.96 189.053 651.464 189.361 651.819 189.8C652.183 190.229 652.365 190.747 652.365 191.354C652.365 192.203 652.043 192.875 651.399 193.37C650.755 193.855 649.887 194.098 648.795 194.098C647.703 194.098 646.835 193.855 646.191 193.37C645.547 192.875 645.225 192.203 645.225 191.354C645.225 190.747 645.407 190.225 645.771 189.786C646.144 189.347 646.653 189.044 647.297 188.876C646.699 188.699 646.242 188.409 645.925 188.008C645.607 187.597 645.449 187.117 645.449 186.566C645.449 186.034 645.589 185.572 645.869 185.18C646.149 184.779 646.541 184.471 647.045 184.256C647.558 184.032 648.141 183.92 648.795 183.92C649.448 183.92 650.027 184.032 650.531 184.256C651.044 184.471 651.441 184.779 651.721 185.18C652.001 185.572 652.141 186.034 652.141 186.566C652.141 187.117 651.977 187.597 651.651 188.008C651.333 188.409 650.885 188.699 650.307 188.876ZM646.597 186.65C646.597 187.182 646.793 187.616 647.185 187.952C647.586 188.279 648.123 188.479 648.795 188.554C649.467 188.479 649.999 188.279 650.391 187.952C650.792 187.616 650.993 187.182 650.993 186.65C650.993 186.099 650.797 185.665 650.405 185.348C650.022 185.031 649.485 184.872 648.795 184.872C648.104 184.872 647.563 185.031 647.171 185.348C646.788 185.665 646.597 186.099 646.597 186.65ZM648.795 193.146C649.579 193.146 650.181 192.987 650.601 192.67C651.021 192.353 651.231 191.891 651.231 191.284C651.231 190.733 651.007 190.295 650.559 189.968C650.12 189.632 649.532 189.427 648.795 189.352C648.057 189.427 647.465 189.632 647.017 189.968C646.578 190.295 646.359 190.733 646.359 191.284C646.359 191.891 646.569 192.353 646.989 192.67C647.409 192.987 648.011 193.146 648.795 193.146Z" fill="#737B7D"/>
<path d="M735.2 194.112C734.061 194.112 733.193 193.683 732.596 192.824C732.008 191.956 731.714 190.687 731.714 189.016C731.714 187.345 732.008 186.081 732.596 185.222C733.193 184.354 734.061 183.92 735.2 183.92C736.339 183.92 737.202 184.354 737.79 185.222C738.387 186.081 738.686 187.341 738.686 189.002C738.686 190.673 738.387 191.942 737.79 192.81C737.202 193.678 736.339 194.112 735.2 194.112ZM735.2 193.146C735.993 193.146 736.577 192.81 736.95 192.138C737.333 191.466 737.524 190.421 737.524 189.002C737.524 187.593 737.337 186.557 736.964 185.894C736.591 185.231 736.003 184.9 735.2 184.9C734.407 184.9 733.819 185.231 733.436 185.894C733.063 186.557 732.876 187.593 732.876 189.002C732.876 190.411 733.063 191.457 733.436 192.138C733.819 192.81 734.407 193.146 735.2 193.146ZM743.487 183.92C744.691 183.92 745.619 184.34 746.273 185.18C746.926 186.02 747.253 187.215 747.253 188.764C747.253 190.453 746.912 191.769 746.231 192.712C745.559 193.645 744.616 194.112 743.403 194.112C742.833 194.112 742.273 194.005 741.723 193.79C741.181 193.575 740.701 193.272 740.281 192.88L740.729 191.998C741.205 192.399 741.657 192.693 742.087 192.88C742.516 193.057 742.95 193.146 743.389 193.146C744.247 193.146 744.91 192.763 745.377 191.998C745.853 191.233 746.091 190.159 746.091 188.778V188.596C745.876 189.119 745.526 189.534 745.041 189.842C744.555 190.141 744 190.29 743.375 190.29C742.768 190.29 742.231 190.159 741.765 189.898C741.298 189.627 740.934 189.254 740.673 188.778C740.411 188.293 740.281 187.742 740.281 187.126C740.281 186.51 740.416 185.959 740.687 185.474C740.967 184.989 741.349 184.611 741.835 184.34C742.32 184.06 742.871 183.92 743.487 183.92ZM743.557 189.324C744.21 189.324 744.742 189.119 745.153 188.708C745.563 188.297 745.769 187.765 745.769 187.112C745.769 186.449 745.563 185.913 745.153 185.502C744.742 185.091 744.205 184.886 743.543 184.886C742.908 184.886 742.395 185.091 742.003 185.502C741.611 185.903 741.415 186.44 741.415 187.112C741.415 187.775 741.611 188.311 742.003 188.722C742.395 189.123 742.913 189.324 743.557 189.324Z" fill="#737B7D"/>
<rect x="542" y="50" width="45" height="107" rx="22.5" fill="#C4C4C4"/>
<rect x="82" y="27" width="45" height="130" rx="22.5" fill="#C4C4C4"/>
<rect x="622" y="27" width="45" height="130" rx="22.5" fill="#C4C4C4"/>
<rect x="175" y="55" width="45" height="102" rx="22.5" fill="#C4C4C4"/>
<rect x="717" y="55" width="45" height="102" rx="22.5" fill="#C4C4C4"/>
<rect x="270" y="37" width="45" height="120" rx="22.5" fill="#C4C4C4"/>
<rect x="364" y="21" width="46" height="136" rx="23" fill="#C4C4C4"/>
<rect x="458" y="82" width="45" height="75" rx="22.5" fill="#C4C4C4"/>
</svg>
