<svg width="10" height="10" viewBox="0 0 10 10" fill="none" xmlns="http://www.w3.org/2000/svg">
<path d="M9.16667 0H0.833333C0.61232 0 0.400358 0.0877975 0.244078 0.244078C0.0877975 0.400358 0 0.61232 0 0.833333C0 1.05435 0.0877975 1.26631 0.244078 1.42259C0.400358 1.57887 0.61232 1.66667 0.833333 1.66667H4.16667V9.16667C4.16667 9.38768 4.25446 9.59964 4.41074 9.75592C4.56702 9.9122 4.77899 10 5 10C5.22101 10 5.43297 9.9122 5.58926 9.75592C5.74554 9.59964 5.83333 9.38768 5.83333 9.16667V1.66667H9.16667C9.38768 1.66667 9.59964 1.57887 9.75592 1.42259C9.9122 1.26631 10 1.05435 10 0.833333C10 0.61232 9.9122 0.400358 9.75592 0.244078C9.59964 0.0877975 9.38768 0 9.16667 0Z" fill="#484482"/>
</svg>
